<mxfile host="app.diagrams.net" agent="Mozilla/5.0 (iPhone; CPU iPhone OS 16_2 like Mac OS X) AppleWebKit/605.1.15 (KHTML, like Gecko) Version/16.2 Mobile/15E148 Safari/605.1 NAVER(inapp; search; 2000; 12.8.52; 14PRO)" version="24.8.6">
  <diagram id="Ht1M8jgEwFfnCIfOTk4-" name="Page-1">
    <mxGraphModel dx="598" dy="2514" grid="1" gridSize="10" guides="1" tooltips="1" connect="1" arrows="1" fold="1" page="1" pageScale="1" pageWidth="1169" pageHeight="827" math="0" shadow="0">
      <root>
        <mxCell id="0" />
        <mxCell id="1" parent="0" />
        <mxCell id="UEzPUAAOIrF-is8g5C7q-175" value="AWS Cloud" style="points=[[0,0],[0.25,0],[0.5,0],[0.75,0],[1,0],[1,0.25],[1,0.5],[1,0.75],[1,1],[0.75,1],[0.5,1],[0.25,1],[0,1],[0,0.75],[0,0.5],[0,0.25]];outlineConnect=0;gradientColor=none;html=1;whiteSpace=wrap;fontSize=12;fontStyle=0;shape=mxgraph.aws4.group;grIcon=mxgraph.aws4.group_aws_cloud_alt;strokeColor=#232F3E;fillColor=none;verticalAlign=top;align=left;spacingLeft=30;fontColor=#232F3E;dashed=0;labelBackgroundColor=#ffffff;container=1;pointerEvents=0;collapsible=0;recursiveResize=0;" parent="1" vertex="1">
          <mxGeometry x="586" y="-1357.5" width="730" height="410" as="geometry" />
        </mxCell>
        <mxCell id="UEzPUAAOIrF-is8g5C7q-176" value="Public 2A" style="points=[[0,0],[0.25,0],[0.5,0],[0.75,0],[1,0],[1,0.25],[1,0.5],[1,0.75],[1,1],[0.75,1],[0.5,1],[0.25,1],[0,1],[0,0.75],[0,0.5],[0,0.25]];outlineConnect=0;gradientColor=none;html=1;whiteSpace=wrap;fontSize=12;fontStyle=0;shape=mxgraph.aws4.group;grIcon=mxgraph.aws4.group_aws_cloud_alt;strokeColor=#232F3E;fillColor=none;verticalAlign=top;align=left;spacingLeft=30;fontColor=#232F3E;dashed=0;labelBackgroundColor=#ffffff;container=1;pointerEvents=0;collapsible=0;recursiveResize=0;" parent="UEzPUAAOIrF-is8g5C7q-175" vertex="1">
          <mxGeometry x="21" y="27.5" width="219" height="160.5" as="geometry" />
        </mxCell>
        <mxCell id="sxGFlXzZ9FwV0MmhRmrx-39" value="" style="sketch=0;points=[[0,0,0],[0.25,0,0],[0.5,0,0],[0.75,0,0],[1,0,0],[0,1,0],[0.25,1,0],[0.5,1,0],[0.75,1,0],[1,1,0],[0,0.25,0],[0,0.5,0],[0,0.75,0],[1,0.25,0],[1,0.5,0],[1,0.75,0]];outlineConnect=0;fontColor=#232F3E;fillColor=#ED7100;strokeColor=#ffffff;dashed=0;verticalLabelPosition=bottom;verticalAlign=top;align=center;html=1;fontSize=12;fontStyle=0;aspect=fixed;shape=mxgraph.aws4.resourceIcon;resIcon=mxgraph.aws4.compute;" parent="UEzPUAAOIrF-is8g5C7q-176" vertex="1">
          <mxGeometry x="71" y="41" width="78" height="78" as="geometry" />
        </mxCell>
        <mxCell id="sxGFlXzZ9FwV0MmhRmrx-33" style="edgeStyle=orthogonalEdgeStyle;rounded=0;orthogonalLoop=1;jettySize=auto;html=1;exitX=0.5;exitY=1;exitDx=0;exitDy=0;" parent="UEzPUAAOIrF-is8g5C7q-175" source="UEzPUAAOIrF-is8g5C7q-176" target="UEzPUAAOIrF-is8g5C7q-176" edge="1">
          <mxGeometry relative="1" as="geometry" />
        </mxCell>
        <mxCell id="sxGFlXzZ9FwV0MmhRmrx-34" value="Public 2C" style="points=[[0,0],[0.25,0],[0.5,0],[0.75,0],[1,0],[1,0.25],[1,0.5],[1,0.75],[1,1],[0.75,1],[0.5,1],[0.25,1],[0,1],[0,0.75],[0,0.5],[0,0.25]];outlineConnect=0;gradientColor=none;html=1;whiteSpace=wrap;fontSize=12;fontStyle=0;shape=mxgraph.aws4.group;grIcon=mxgraph.aws4.group_aws_cloud_alt;strokeColor=#232F3E;fillColor=none;verticalAlign=top;align=left;spacingLeft=30;fontColor=#232F3E;dashed=0;labelBackgroundColor=#ffffff;container=1;pointerEvents=0;collapsible=0;recursiveResize=0;" parent="UEzPUAAOIrF-is8g5C7q-175" vertex="1">
          <mxGeometry x="21" y="229.5" width="220" height="160.5" as="geometry" />
        </mxCell>
        <mxCell id="UEzPUAAOIrF-is8g5C7q-185" value="Private 2A" style="points=[[0,0],[0.25,0],[0.5,0],[0.75,0],[1,0],[1,0.25],[1,0.5],[1,0.75],[1,1],[0.75,1],[0.5,1],[0.25,1],[0,1],[0,0.75],[0,0.5],[0,0.25]];outlineConnect=0;gradientColor=none;html=1;whiteSpace=wrap;fontSize=12;fontStyle=0;shape=mxgraph.aws4.group;grIcon=mxgraph.aws4.group_aws_cloud_alt;strokeColor=#232F3E;fillColor=none;verticalAlign=top;align=left;spacingLeft=30;fontColor=#232F3E;dashed=0;labelBackgroundColor=#ffffff;container=1;pointerEvents=0;collapsible=0;recursiveResize=0;" parent="UEzPUAAOIrF-is8g5C7q-175" vertex="1">
          <mxGeometry x="251" y="27.5" width="230" height="162.5" as="geometry" />
        </mxCell>
        <mxCell id="sxGFlXzZ9FwV0MmhRmrx-45" value="Private 2A" style="points=[[0,0],[0.25,0],[0.5,0],[0.75,0],[1,0],[1,0.25],[1,0.5],[1,0.75],[1,1],[0.75,1],[0.5,1],[0.25,1],[0,1],[0,0.75],[0,0.5],[0,0.25]];outlineConnect=0;gradientColor=none;html=1;whiteSpace=wrap;fontSize=12;fontStyle=0;shape=mxgraph.aws4.group;grIcon=mxgraph.aws4.group_aws_cloud_alt;strokeColor=#232F3E;fillColor=none;verticalAlign=top;align=left;spacingLeft=30;fontColor=#232F3E;dashed=0;labelBackgroundColor=#ffffff;container=1;pointerEvents=0;collapsible=0;recursiveResize=0;" parent="UEzPUAAOIrF-is8g5C7q-185" vertex="1">
          <mxGeometry x="-1" width="230" height="160.5" as="geometry" />
        </mxCell>
        <mxCell id="sxGFlXzZ9FwV0MmhRmrx-46" value="" style="sketch=0;points=[[0,0,0],[0.25,0,0],[0.5,0,0],[0.75,0,0],[1,0,0],[0,1,0],[0.25,1,0],[0.5,1,0],[0.75,1,0],[1,1,0],[0,0.25,0],[0,0.5,0],[0,0.75,0],[1,0.25,0],[1,0.5,0],[1,0.75,0]];outlineConnect=0;fontColor=#232F3E;fillColor=#ED7100;strokeColor=#ffffff;dashed=0;verticalLabelPosition=bottom;verticalAlign=top;align=center;html=1;fontSize=12;fontStyle=0;aspect=fixed;shape=mxgraph.aws4.resourceIcon;resIcon=mxgraph.aws4.compute;" parent="sxGFlXzZ9FwV0MmhRmrx-45" vertex="1">
          <mxGeometry x="76" y="41.25" width="78" height="78" as="geometry" />
        </mxCell>
        <mxCell id="sxGFlXzZ9FwV0MmhRmrx-35" value="Private 2C" style="points=[[0,0],[0.25,0],[0.5,0],[0.75,0],[1,0],[1,0.25],[1,0.5],[1,0.75],[1,1],[0.75,1],[0.5,1],[0.25,1],[0,1],[0,0.75],[0,0.5],[0,0.25]];outlineConnect=0;gradientColor=none;html=1;whiteSpace=wrap;fontSize=12;fontStyle=0;shape=mxgraph.aws4.group;grIcon=mxgraph.aws4.group_aws_cloud_alt;strokeColor=#232F3E;fillColor=none;verticalAlign=top;align=left;spacingLeft=30;fontColor=#232F3E;dashed=0;labelBackgroundColor=#ffffff;container=1;pointerEvents=0;collapsible=0;recursiveResize=0;" parent="UEzPUAAOIrF-is8g5C7q-175" vertex="1">
          <mxGeometry x="250" y="229.5" width="230" height="160.5" as="geometry" />
        </mxCell>
        <mxCell id="sxGFlXzZ9FwV0MmhRmrx-42" value="" style="sketch=0;points=[[0,0,0],[0.25,0,0],[0.5,0,0],[0.75,0,0],[1,0,0],[0,1,0],[0.25,1,0],[0.5,1,0],[0.75,1,0],[1,1,0],[0,0.25,0],[0,0.5,0],[0,0.75,0],[1,0.25,0],[1,0.5,0],[1,0.75,0]];outlineConnect=0;fontColor=#232F3E;fillColor=#ED7100;strokeColor=#ffffff;dashed=0;verticalLabelPosition=bottom;verticalAlign=top;align=center;html=1;fontSize=12;fontStyle=0;aspect=fixed;shape=mxgraph.aws4.resourceIcon;resIcon=mxgraph.aws4.compute;" parent="sxGFlXzZ9FwV0MmhRmrx-35" vertex="1">
          <mxGeometry x="77" y="41.25" width="78" height="78" as="geometry" />
        </mxCell>
        <mxCell id="sxGFlXzZ9FwV0MmhRmrx-37" value="Private 2C" style="points=[[0,0],[0.25,0],[0.5,0],[0.75,0],[1,0],[1,0.25],[1,0.5],[1,0.75],[1,1],[0.75,1],[0.5,1],[0.25,1],[0,1],[0,0.75],[0,0.5],[0,0.25]];outlineConnect=0;gradientColor=none;html=1;whiteSpace=wrap;fontSize=12;fontStyle=0;shape=mxgraph.aws4.group;grIcon=mxgraph.aws4.group_aws_cloud_alt;strokeColor=#232F3E;fillColor=none;verticalAlign=top;align=left;spacingLeft=30;fontColor=#232F3E;dashed=0;labelBackgroundColor=#ffffff;container=1;pointerEvents=0;collapsible=0;recursiveResize=0;" parent="UEzPUAAOIrF-is8g5C7q-175" vertex="1">
          <mxGeometry x="491" y="229.5" width="230" height="160.5" as="geometry" />
        </mxCell>
        <mxCell id="sxGFlXzZ9FwV0MmhRmrx-43" value="" style="sketch=0;points=[[0,0,0],[0.25,0,0],[0.5,0,0],[0.75,0,0],[1,0,0],[0,1,0],[0.25,1,0],[0.5,1,0],[0.75,1,0],[1,1,0],[0,0.25,0],[0,0.5,0],[0,0.75,0],[1,0.25,0],[1,0.5,0],[1,0.75,0]];outlineConnect=0;fontColor=#232F3E;fillColor=#ED7100;strokeColor=#ffffff;dashed=0;verticalLabelPosition=bottom;verticalAlign=top;align=center;html=1;fontSize=12;fontStyle=0;aspect=fixed;shape=mxgraph.aws4.resourceIcon;resIcon=mxgraph.aws4.compute;" parent="sxGFlXzZ9FwV0MmhRmrx-37" vertex="1">
          <mxGeometry x="76" y="41.25" width="78" height="78" as="geometry" />
        </mxCell>
        <mxCell id="UEzPUAAOIrF-is8g5C7q-186" value="Private 2A" style="points=[[0,0],[0.25,0],[0.5,0],[0.75,0],[1,0],[1,0.25],[1,0.5],[1,0.75],[1,1],[0.75,1],[0.5,1],[0.25,1],[0,1],[0,0.75],[0,0.5],[0,0.25]];outlineConnect=0;gradientColor=none;html=1;whiteSpace=wrap;fontSize=12;fontStyle=0;shape=mxgraph.aws4.group;grIcon=mxgraph.aws4.group_aws_cloud_alt;strokeColor=#232F3E;fillColor=none;verticalAlign=top;align=left;spacingLeft=30;fontColor=#232F3E;dashed=0;labelBackgroundColor=#ffffff;container=1;pointerEvents=0;collapsible=0;recursiveResize=0;" parent="UEzPUAAOIrF-is8g5C7q-175" vertex="1">
          <mxGeometry x="491" y="29.5" width="230" height="160.5" as="geometry" />
        </mxCell>
        <mxCell id="sxGFlXzZ9FwV0MmhRmrx-44" value="" style="sketch=0;points=[[0,0,0],[0.25,0,0],[0.5,0,0],[0.75,0,0],[1,0,0],[0,1,0],[0.25,1,0],[0.5,1,0],[0.75,1,0],[1,1,0],[0,0.25,0],[0,0.5,0],[0,0.75,0],[1,0.25,0],[1,0.5,0],[1,0.75,0]];outlineConnect=0;fontColor=#232F3E;fillColor=#ED7100;strokeColor=#ffffff;dashed=0;verticalLabelPosition=bottom;verticalAlign=top;align=center;html=1;fontSize=12;fontStyle=0;aspect=fixed;shape=mxgraph.aws4.resourceIcon;resIcon=mxgraph.aws4.compute;" parent="UEzPUAAOIrF-is8g5C7q-186" vertex="1">
          <mxGeometry x="76" y="41.25" width="78" height="78" as="geometry" />
        </mxCell>
        <mxCell id="sxGFlXzZ9FwV0MmhRmrx-36" style="edgeStyle=orthogonalEdgeStyle;rounded=0;orthogonalLoop=1;jettySize=auto;html=1;exitX=0.5;exitY=1;exitDx=0;exitDy=0;" parent="UEzPUAAOIrF-is8g5C7q-175" source="UEzPUAAOIrF-is8g5C7q-186" target="UEzPUAAOIrF-is8g5C7q-186" edge="1">
          <mxGeometry relative="1" as="geometry" />
        </mxCell>
        <mxCell id="ufO5z-Iy11hLr9e_9HTo-1" value="" style="shape=image;imageAspect=0;aspect=fixed;verticalLabelPosition=bottom;verticalAlign=top;image=data:image/png,iVBORw0KGgoAAAANSUhEUgAAAOEAAADhCAMAAAAJbSJIAAAAz1BMVEX1hTb///+dUCX0fR/1gi795dr1gS30exj84NH1gCn0fB33oWv++PX4r4P6v53+8OqdTySXQACXTCSWPgDygzX6y7CbTB3sgDT+9e/5uZb7iDeXQwWZRhH1iT37z7e0XimsWSjGaS371cD2l1r4q3z96t76wqLadTHr3df2k1L3pnT2jUb5to784dH3nGLcxrzTtqrNbS6vdVnheTLGn43n19Dodh/SaBa6inTWu6+kXTjFnYurbU68jXj0dwTs0cTGXxCmSwOzWR2mY0C1gGe04X8yAAAO90lEQVR4nO2da1viOheGaVqEYoW2YMFSFRkRFBWPe6szvvsw/v/f9KYtPaVJm5QV2tnXPJ+cy4HJPUnWKatpS/mvq1X3AKTrN+Gvr9+Ev772RjgZLNp380DdbnsxmOzrH5ZNOLk76x8drnVVVXtqrJ7/s3Z9eHs8bxuSRyCRcDE/uT/tqbp+oLWo0rQDHXOvD/vzhbxhyCE07vrXHQzHQCNJMWfnut+VM5sSCNv9bzovXAZT/9Zvww8HmNCYX6o9YbqEsqcfzYGnEpLQODvU1ap0kQ5U/eYMEhKOsHup7oy3nUpVveyCjQuI0Lg6VQ9A8EIdqKdXQB4ThHBxpOqAeKH03iWI3QEgnF/3IKcvkda7njeA8GwNtPuojOr6rGbCs5YqDS+U2tqRcSfC+alsvoBxvdNa3YGwfd3bA5+v3vVdDYTGZU/e/iOl9W4q+46qhMe6HPvJ0oF6tVfCwfU+NmBW6rpailWJsL/HBZpI6/X3RLhYwwcwfNKrTKM44VUtExhK64hPoyihcb//HZiW+k3UqAoSdrX9mtC8NF0wsRIj7Hdq5vMluFKFCA/rXaGR1ENJhJPabCgpfS2wGfkJ21p9NpSUpvEnx9yE3Was0Eg97nyDl/CsCTYmrc4xLOFV0wDxLHKG4nyEJ80DxLN4Akd4u69UV0zqLRRhQwHxQuVB5CBsLCCeRY6FWk7Yby4gl7kpJTxOG5nm+PxIndJaYxnhPAPYkMA0rU5ZqlFCuMgsUXUxrzH9ZahXkvcXExrZL1PbyqJVd4JISmsVnzYWE15nZ0z1493GrVTtujrhEZEuBYTNSIPT0i+rEh6TfiIkVLqVD+olqVcUhRcQLnJztSVUJtdNyYW36hRYGzahkf8iNc47LxsWBpxWIbzJz1NCmA0E6pd+I054RpmlFKHSbpbb6DFjGxbhhLbT0oS114YJqaziFIvwnmYu1Wz957ZJK1W7FyM8ps4PQajM4yYFDVzCiCpjndIJqWs0T6gMtiXU+5tDaK2FEXV69EYnvKFbkRwh/puBQTqF7w89EjZkB/TQhkrYZXg7CuHWbfAWvvglTtjqUfsZqIRrxi6gESrdYM/02A6pmioQ0v0+jZBuZliEivHN34z6elA7oUqLTymEBjPopBPi0fizqHV2aHqBIWxpFGNDIbwVJbwLftk7ggRUTqoE9zql9pYnnLD9OJ0wtDXc5wgyCVud/CTmCQuWB5UwSDM0HboHvRqhnl9IOcJBQbRJITSCVFG/Bn8EphohJTzNEZKVi2LCdvC0yAHsFtyFUM8V+klCoyi1zRFuU6z1VR9EJ6lddFsxOVPJnUgS9ov+60jCOLnQYfS/lEut5C38oZCdGiRhYUyfJYRPEHsAhC2tmJAZzgTKEA5OwZN8EEIyiyIIWRHp9sMpwrmEBnaYOVwXEd4Vl9BShFIO9kEIW72stcgSlnxtQiintA9DSPiuLGGJD5JdEYYhJBxGhnBeMjNbwjtZVX0owjMmIbXAlv5oQJg7zgATEGG27JYmnJRtroDwSF5BH4gwG5ymCc/KdhcmDBN6SYIi1I8ZhIdl20tdDKTW8qEIM8s0RWiUuriDE7knh1CEmUQ4RVhmSbEkH8aAEapzKuFO3wkiMMK0008RnoKNtKrACNOV04RwUf+xLhxhqskmITyu/2y+jJD/RCrlLxLCy/obLEoID05ueAN+7ZJCWD9gGaHe50/atDxhQSF4byon5I76O5McIYc3lC4OQt7MLfGIMWFhkS2S5KdmeAjxb3hWW1JyiwlLg9KWH5fKbdrnI1TOOFpAtcMcIc+5Oc4tZBSgYnEScrWArklCg2cb+vnhQOJK5SXEuXrpcONSRkR4x0uoKNxOSVj8hOUtoHHFLSLkMqXbOo20R4QECEtbQGNjGhFe8ay9qNZ2J+lBPRHCssch9SuCkCvQjeulksqJQoQlLaBxAhURlpXZAqVq3lJ62gQJC1tA40pGRMiVHKbPLc46ez+3yBEWPtcapYgRIV8olD4RWOz97ClPWHTCpxOEXB6AOD8EP7wQJyzYLpFD3BKWFoPDDxFnwNDPJVQhZEZZ6iBDWNSBkfoQeY4fOaVTmAbTTppQzf1apV81wIiyCMI2V5Em34sROiXtXvYlpMW6oY0+KtVsCbmCNmrHUNgw1JJwaaWAaFGWun2obUvI97Q9tSdKTtOXoLr5W2DhCHEuI6XBVEz5E6MoMN0S8tUwGL2JRpA9V7oACFBkixEk4eTa/6UufDcOqCbEk4SQhGH5C7i9VFT5GhxBuMM+DO1Y+RPHUkWJwcEszba9FO7O2CqinbwDEYbtpRp8e6mI6CfvBOFf1Qjb4RP667u7LohSodGC8pV0Y72gXxMAQhhfWqPCKN19ednJ/5p6R8Sc9fjLXxnCTRVC8Dy/Sm7BrFGThOIZMEfNUlQVCNk5qr7ZkVBCe6k4YdEgSMI/eEaQIuzKqO6LEhYO4g+C8E+eESSEcm4dECQsrkz/8ZohfBUjlFTYFyMsGcSfWcLV3zwj2BJKu3xPhLC0KP33iiB0OUYQEsqq6QsRlg7CJQgH/3ATSrxrgJ+wfBDuP9lKlDHlGYFPKLG9lJ+QZxDTbL1U8cYcI1AXisz2Ul5Crh7XsadkCe1njhHoZxLcfEp8hIxIm9CzTRA+PfIMQXJjGBchZ1vM4xNB+Pkvj6mRLB5Czm4Q999PgvDF+zUIeU+DXO+FINxMeUyNZJURXvHHGqPphiBcDZewo62iEkLtkD/WWA5XBKExvKh/mZb2l3J/k3sxJPtplI8Z3EirCq5HuDX7UEjCJ6f+jQhHOHaecoQvHpdHlCo4wmVsShPCzfS8fCNKvooOjNA9j01pQjgY2qUf1Lv3UqMauDm0h4McoeLZpf4C5xZSr9wFI1zanpIn/HJK/YWfPclsMIUidM+dNwrhg4fKPhlkwBIbTMHmEHkPFMKVVbpMt3UaaTeYQhEubWtFIVSQWWZNo1rblaTNCETonptIoRG+Ofao+KNxNfFOzmYEIhzZqW2YJtxM7RKnn1SE5TSYAhE+2ok3zD5DOkSz4mWaPreQUZGCIXRnaEh/hhSHpiXVmszZE89TD4KCIXy2k6CUIHz3ULGtyZ6uwV98DULonqPpO4NwYpl2YYJBnJCCX1ADQji2TSvdSJi5U+HJQYVxTe4cPyoLaT0QQdwx5F6gzCLNEr5PUaHDyPdihDGcdjMZgCj9n1fRWI9slLakBKExNe2iSaT004QxnP4NvMG0IqF7YZvTzBdlb2/5dBAqmERqT9RNk26ka40Qcj4zX5QlXFmoaBIZtwoGnrEDfINpNUI8hSgVk+YJlZ9O0U5k9Ca2g4c1epegK7XiHNrI+Zn9IoIQ25oCc8q63TN4DFxTQW/3ZN/AWSBsSLPOME+oOCZi+0TGDa1Srk6s5C3GNjJN4otIwhcPsQMbKmH4ZE6v8A0MeyLE4QxKimwMQsPCk8iKTmmEYW9b4fsX9kb4jKfQKrs3UfmOJ9HkJ7wNfQXoFqxMaOIp/E5+UY5wMjWZHiNHuI1M1wPFAFZ4N7GQfE9hWuX3lyqfeBIZxoYkjNvK1A64xFMzbGaQ95njyRPiRBgxUmGCsFmvRsKJL8qkvkzCwJzajzTELGGz3qjjPtoUQ0onNDyTsU4zhPIeWq8kf42aDt993srDlLFOU4TNebFsqGCNTh8oNNR79T9wikGzpwmhtKsTK8q3o8j5oMFQCV99Y0Px+zFhw96jE/h6hKxXbkLlDRsblD/GiAhl9rZV0sgfrvdGZaET4mQfT+KM/KKQUOrViZUUbELTE3lHifJuIcpWDAj52sr2qWATIuudjsJ6V9CT4yMus4jB+WHTtmDoCYkCGwehH57mrA0mPGnaFtxaGXMq+r4nZeOvU4Qyjl/tNszN+xoH47Q2LBD2e9e+AntKJFJN24LYjJqBHf1ichS8HRAFW3FWN0KJfDOKR8rGKCBcDYP5Lzlxq1kBIBqu2BgFhMpDsBVtjk6i2nRuB4C0eJSHcBvaNBfRDQEpaS8voV8gbjJiCEiWgIUIDccMEetmoWoWAqJd3geMrU2IOKubhqIQ0LQKrAwHIU6kzNCiljSi7F2j0IqaQ2rKJECovIc+w0b1N9imNTbt0E8w4m0BQuUhRETouTn2xn3ejqnQT/ASKt/DCDWXadQndxlOILJyFe5KhAliA9r5fYX5ICcgF6HyGSE2wt6MZiKAfITK9+1etOvfjPEWRENK+bcyYWJu7IuaAaMVygvIS4idhhmt1HF90+iOoxVqlrsJQUJlEyEyzjT2AvgYTaBJr43uRKi8ek6EeF7LNCYTiBynJFSrRKhMPjxU5zTGE4i8D4HGFgFCRfmyYsTZno2q+xxPILLYRZldCZWXeDPipTraH6M7Oo/5TF4jWokwtRn36jiSBYocj9vGVCJUjB/TBNHcz+Nuj2YCOP0h2lsmSohXqpWaRlP+s7VpPscSW6HVCJVVYlPDeZS3H90MH7ah/E5iF0I/THVSjOhCknt0xxcoxefwRdoghMrqp2WmGO1zCb7DHZ/bKT7T+llhAisT+t0MqaXq+8dHUOfhjh5naT48geXZPCyhYnyml2o4kUA70m0tM9Pn871Vbs+tTIiX6o/0Ug135O6QPh7K4CFn+KPaAt2VEOcbHySjjc6XOyxXd+TPXpYPb0Dm2aB0QsyIrMxaDShnlabSbT1fzAg6f32infh2JgzmkWQMKZdjXkzXbY2XFDqf72NHPgBCzPiTwuhTmhjzeeRiMdFcd/z8eDFDFDpk4v23Mx8IIY7HvyzPzA8xwLTR7Pzicbl8Ho/H20rdaIR/fl4+Xlyc44kj913E51mfO9iXRCCEODt+wBuSDrkFDUFM00z+TCXbTp9lPgA9vgFEiPX6Zk0LIPmF8bxPwRSpQHCEOAjYfHm7QprO1PsC2H2JIAkVH/LNsryKlKbj4dnbAD8GB0zoa/Xy5AlTBnRPL3CLM5YEQizj9eHLGk75MDHcdGg9PbzKeUmGHMJAq83L04dlTT3Pccw8qmk6judNLevj6WUD4hfokkgYyFhtHl7efiBM4mvqa/sj+vH28rBZyX69iWzCWMZgtXp93fh6fV2tBnt7b8veCGvTb8JfX78Jf3399wn/DyxGUOzL5UJGAAAAAElFTkSuQmCC;" parent="UEzPUAAOIrF-is8g5C7q-175" vertex="1">
          <mxGeometry x="190.31" y="179.66" width="50.69" height="50.69" as="geometry" />
        </mxCell>
        <mxCell id="ufO5z-Iy11hLr9e_9HTo-5" value="" style="shape=image;imageAspect=0;aspect=fixed;verticalLabelPosition=bottom;verticalAlign=top;image=data:image/png,iVBORw0KGgoAAAANSUhEUgAAAOEAAADhCAMAAAAJbSJIAAAA7VBMVEX1hTb///+dUCX1gjD1hDP7y6z1fyf1gCr4pGn1hDH7yKj+8er959n2j0T2k1D1gS37z7P6vpn0fB3/9/H5tpH96uH3om794c2bTB3//Pny6uaZTSSaSRikXDL71LzXvrLkezOZRhH1ij32iz/vgTWWQQDdeDTPby/3pXP2llb82sX5tIn4rXz6v5v0eRT3nGDr3dWqWCi1Xyrm0sfbw7e7iXHIai3HoZG0fGCtcFGkWzH2jT/3oGT4sIX0dQDlw7LacCTCYh+zWyDKdkS+ckazb0mkY0GrdF20gWrCloC4gWPQsqPFnIfMqZq7ZTD140o2AAARw0lEQVR4nO2daVfjuBKGvQibrE5ishiH7AlkIwsQIB3uMvcO0zTd/P+fc2VnsyXZlm1Z7nPPvB/m9GEM5KFKVaXSYkHkJMPQnTIMXr9YSPw36Pl6q3RRnr5d7s66fJuWL0qtel5P/PcnSpibzGe1RbEvqIqqabJTmga/JvSLi9psPqkm+SESItSr+fJOrUAwWQZA8BIAkFVVKpVFuV7NJfNRkiDMt+a1fkWVPcFwyarS25Vb+QQ+DXPCXLZWFFTZ226e9syooFgrM4dkSqjny4V7JQLdiVJWK9+mdabhhyFhPnunqNHpTpSqejmfsPtYzAhbdwUtzMjzk6z2axesEiYTQiOfVRQtvvnOArKiXLFJlgwIjfr0m8KQ7ii1N5swMGR8wnqtz2D0kQS03qKUNqE+uazEiJ2BjHKl2Irpq/EI67OMlhjeXrKya8Xy1TiE1VkvaT6bUajVUyHMldmGTz/Gylv0Uicy4cVY5YNnSytko7pqRMLqXYZVeqcT0BYRXTUSoT7XeAxAt+TKNNL8Kgph/k7hNADdUhctPoTZfiYNPqiMMOVAWK2lY0BbQBmHHo1hCSdj/iPQKRhUEyU05j2+IRQX0KbhyrhQhLmUQoxbyiJU+g9DmN8lMUkKL60YpgUQgnBSSNtDj5KFEJMqesKL38FDDwKVKXURR0toZDO/DyAUfbyhJDSueM0jaKVdUlqRjlCfVtImwqTs6JY7qAj1Gc+ZEq20BRUiDaFxmW4d4yW5SDPZoCDUL3+PNIhLK1JYMZjQmP6eFrQkL4KtGEhoTLnneVkN1PEzabvAiBpIeMU9isq1q0DVjrlLuQzKi0GEJf5pUKEoyc4fS74KsGIAYSuFSka5CCa8OLcZ1HkcwnpCKxIsCYWKv819CavjNGYTYQlB37ez4Ueo36WSJ8ISwszvNyX2I5ymU6uFJhTUnU9A9SEspVSMhicUlHIUwnwhpflSBEIAvKONJ6G+S6tYi0DoNxQ9CcupVaNRCOGEOCxhPb0pbyRCQfHqFHsQ5orp9dWiEYKeR1b0ICyntfgCg0YlEiEs2Mkpg0w4SamxBjStV1xQ9HsJhF5+SiTU0+j9Ak0Rxm/ZCVWXkEQIVOKMn0iY5dy2ALKmVHqzVr5K2+clEQraHS1hvs/RR4GsCoXxrBRuJzSRUCDmfQKhMeOWCmVVKdTmpXrofRZkQmLbhkBY5xVHlcqiPKlG2tRFJiQGGwIhr1SYCbuaG0woKLgRccISr2pGe2NPqOJbGTBCY8EtU6jRt3J5EYIC9jMxwiy/akbeMScU1Dc0aqGEOa6tmSg7gPwJQQ81IkrY4pns5buou2M9CQV15k9ofONakCpRjehNKNwjtQNCWOJarwEtoJsbhVBDwilCuOM4CoFSiLy/2YcQIEtubsIWPz5B7nnsp8hHnD0dpbkrCReh8cavOaNceszJjRpFreNHKI9dhY2LsMptUqEpZa8wWo44xz9LdTmBi3DOKc4A7c5zstSqROvTOCSPPQk5pQqt6L0tPV8AsQmFivPv5yTk00EEFZ+NMDosqWhWSP0JVWeT30nIZalJG6NZXs+fLWrtz1Xn1UCVfb1NHjsGuYMwV0zeSYGGbbjP1zKnyLBvEKmVQPkvGoGeI9Y4CJNfsgdKHztvly1ocuHw70mP0UdwuumZMPlkKPfLKF/9m7WnU903yfLMurTAsVvqTFhNejVN2aHFSu5KOFSJVnDRGbZPlDqBsJ5sMtQqczTHT8bHLZ3WDjWD5ZKzw03PhIn2EEHmDp2ZVmeVs820scG03AAZAiE2yoFCJZq/vFZAj2YbpYLrG9U3thXjOemfCPNougfjVolG2X7Qb5OVS8yANQEBYrwH+dw5PRHOUVvInquqbulBESozRosUfV5JPG7XMMI7NJDREub8CYGK5fjJLvldHmB8dNMjYW6Mfk4mhEAtoDneKPM4PXwua46EeDnBglDrz1G+SYbPuQ31OBCPhBfY35UBoVpDc3x1ymt1WTu2hg+ExhU2NGITygqW40sFfgt3x5W2A2Fuh024YhLCHI9OA/M7ngeLMlUXIaEojUeofSuhIzDLz4CWlImLMI+XTHEIZfUSNWD9kvO5omNpeiAk7E2IQaji8/hpJcTEAQSK4occV7YOhIQzFZEJQWaKGrC1COOg/UKgAitF+DEEFyGW7yMTAg3bfpWbCWFmfmpWzwVIz1JY8d5FSMhS0QgJOb70LVyRFr/Xtlcl7yA07vEHohAC/BRyfhY2RcTvlx5+TstBWCV0SiMQakIWzfFzvxQBiOGVGWHWQTghzK9DExLm8fWFnwGVyduYcPcgK8LDQuKe8IIBodpHc7x+1feNMDAUVFuXGnpqhRnhnYOwTIgF4Qhl7Q6dBtbHASdu7q2/iFEt993eyorwMAneE5KOGIYiVLCLVVyNJh9CS5O3ouO+PmaEC/1MiE3wwxHK+Dy+RHHJ0v3Zq/Ot2unOxUQIa7EI1TE6DdQvAUWOv3eOW8tbM7a3siIE+xMKB0LCN1ATFtG9ZLlspRJ8DFRV/4H2+FvTsaaxIyzUT4Q6aS8bLaGB7SRrlel0hf+wamtWuU+AEG9DhSAkMEf9Rvubc2WKbURhCZeklcPohBxEQ3jYNmcTPpCm6X8TpqqwhO0B4X//TZiq/ib8m/D/hHDwT+vR/2NC4CD8/NdvRJibUBxSoCN8tB7dE/47Rj400NaMcZGlFOGn1ecLZpW304ZxCHNYgzs3y6gZCt2jfcdcaSxoMitCYdA+E/4Rh/DbPdbjnoxpWohuwtxklrHfq5AI4SoOYQFoRdThcmWK1wg4CfNXi8yhW8OMcOQgbMSZAcOiVsY3/eYXgau9R0JDz1reefwys3H4n6WDMJ4N4dNaD933a2SLAa2aPSH0TsH11g9WhJn/OgibsQkFoMzwbUH+7TZr6aReXmhI55sZ4Z9nwkeJkPJD97xlATtA0Sr6LYtWchcLQcNvR2BF+O4kHDEghGbcoQtr+tTvWl4YOwlfTYZww2Z1Te6jZjToEkcShOAv8UT4sP1itH4I1CJ2FKbcD7dDgRXh6PuZcPm+ZrYGLGtv2F71Wagrw9Ss+yV0BBkUa8Bg4yJc4aEm8jo+voahl/ohloHBuBaoMcWP+cNBKH5v4KEm+l4MWcOu+svNBPrzxUAOFIVPoIS3DAmtPcHoWqLY4rDl0qVO8yNBQgFkZmgZlyuH2VITX6Pms4PwqbnGBmLMfW2wjENdNX/J8dobcNt9dBA+N/FQE3dvIlBqaBlnZAv8XHUz1B2E7a7ZQZ+Iv79UK2AHmfm9/GOwGooOQnFoYgORwQ5aUv5vFfm4asdECCVsEsxkn7cslNH8nyuH2gMWVSPzxkXYkCQ0X7HZqw9U/B0/9WLyrgrWjR8uwh8NbCAyOo0gyCpWxhnZkKVqeAFzuHQRwlCDFt/yopqn0STwzJtSxE4d1mfoxJGx53bMrptwOZTW6EO9Ip2Cf50szNDcqJfce6FUtrkSfJnbaxfh9VbCZ8HBW3Vp9+sCTcDKON2561QeixdMx+a68aS7CV8aeL5gKaBi2/rEyeK4nc464cL0irGR1P0UXYTir66JF25MpRYxM+auDlsTVas1oDMci7dms40QtpsSXtawFVDGmBnzO2v4gf1NFuxuwhuspPclQvhwI5m3SWcpGd9hq1unMCqHKXMJPZQYVQOz8SIihOJfhKTPXEDG39VUvbxfHP89tQemFnxwNWDIbszmE0b4kbybWpIVrIwTW+evWKcWtLfAw6utmf+ZR0kaPmKED0MJS/qJCN/J6DQo7b0Yvp90ZErD06Pnk85DSVp1OBAKcu/K+4qvFoh/twlM940bAuGPhpRsSjx/AjXjfUHUhRKbcCRJ3ZOTOgihm0oJp0QHI7aoetIs9u7LW1NqLk+PngmXTYlLrNlLLnqNthy23BqSECbDxvfzOHDc/AGjKT4PTkwAP6R/UD3m/lJowlPJ5iIU2w2eRrSOSKEXLRz/1rEIM5Ik3TwQCa/fG5wSxkEgUwt3ezAVIUwVjb8cjzpvUXqCbkpaSUwOEb9tND7hGjpp2/Gok9CKpuYXR0KNsJc9JiGAqcKR7hFCK+lLJqeEIQS+ICYS4WAtSeeaFCP87EJEwlJiQopxkbDnLbswkErdpfNRF+G1JPEMp5UE7hGGAM5kiBKKz9CIJtaSSkhxNj96ENombH66HnUTPmwtI/KpToVMKeodu56EnRVMFa/ufIrc0PoCs75EWPJORNaF8xEd1YNwY43CZ/ejCOGDHU4Je0+SEJBVUFzMopiSTNgxrVSBlEToXdCvDa7Bxn7xw31vVsrnQp2WIhOu4Gfv/kIeRQkfrISRdGMRw9SUzGJ6MaF5rag3oR1mGjfXAYSGXbpxrd32ktVMv1jLUr4IgkTYsUzYRE2I3zr/KNnqcEe0VhFktVLZzSnKcRLh2jLhO2pCwrsR7HBqrlN7WZAcbY5v+6jU/Yk9ihMuh3Zlk3h72FPR+jQD2/WauJMT3uDx0U3NT21FIhysbRM+4o8SCK2ZMDTiKhU8ISKhleul5ndCaiW9K+iXHU65TvedivJ2QDvXSxLBhERCw077ksk/ZUQl3A/C7gfpUeIbrfbBhlMLnAHhfhBKTSxTeBIego3JqwSPS2gPQmKY8STcBxt+U8VYhPtMKDWfyOWQx9sBD5WNufn9Ce3eE6xmtkvyox6E4tM+KUqcZsMxCO1yFE6aPj0e9SIU936aRm0TjvAA2H3yetST8EE6aMQbMdRtZoOVPQgbr8Q46kt4yPspIGpX9UBdHT7TIU+Qc30Q4WkoSh3eiMFvDtDcgENsVkhFeH2zH4ow86c2zwjQAbDrkSiCCOFQ/L0Rjxb0GYQBhOLDgdBccQ83FDoB3nhkQgpC8XmYWkQN1CnIDB98GfwJ90uKUjq9KX91VgdA12JheEL9+8FRufX66QROgI1fAd25AMJzQE2lgPPSoRa1LPgjqP0YRCjqJ0TefWIf3R4BGy+B/dVAwuNMyg6pnbTRbA025hHwKXjNI5hQXEpnxN8gpIJTECW08KMROhDTmTC61ZGOgM0bmlUrGkJx+X5GXKdb3ww2x08CxyCFBSkJnRHVXKXXDbc89ATYfaFbd6QjFPX3U+o3za/UYurtyUOlZnAUDUVoHciQzmZMpcABnVOIgYA/aVeOaQlF/eVUo0JtUjDj7eoMOPxJvWRMTSgaz42Gg5G3GQcOvobPlD4GobU904ForjnmRtDZnPmk5rv/bCI6IZwSNx2I0FV5MTodVOq++s4HYxGK16fezZExeTogjFamw0Obz+HuuA1HaHXgGi7G28TtOHJEUOihW6/OLytC8fHG4alW5ki0jsuM1pITMKSHRiIUjRdXTDUT9NWByz+tGEpcIWRNKIqfbjNa4zGB3AE6t24+aMAwMTQOoXj9OmwgjDB3MB2QoPO1cuFJjeEHVaXNhBCOxveu5GaEhuww8lYwGIy2JsLXDD8CYxGK189NtxktyNXtKPYZSQC980sykZ/dvAlqODEnhOkfdVXbkOtNJ467gsHtGhl9toM+RXLQmIQw4rxidrQgpa/RYBDFloPOZitheDCCRnXQ2ISi3r7pop/HpjTXm9vRgNqY8MHO6PYLHXt7vu5riDKbNSEcjp/dLmbHo8Ouv2DFE4AJMrAq23ytVwTj2f65bUd3UBaEUD/fcV89mhJqu9qMOp3OwNbJH23BL2++tvvniD+hKb2GrdGSIBSv269kOzpJt9vVer2+3WsD/7nao/l8X7P79BjrRRLMCCHjw8vQw5CoSU8KeLrRHX4so59WcIgJIZT+8doIhKRVoyu9fDIwny1WhLAibz/fYBkyiprD11/xwqdL7AhFy1v/HAa7q6/1msPuxzJm9HSLKaGlx6dXqdsMZiHRNbcvH1GmD75iTgjd9fHzYzv0Da8EvGH35mebOZ6YCCGUcX39+GdzOOw2Gw1/Uvj/m93hsPHj4fqaVWxxKxnCgx5+PX1/fYehsWuhYmDwi9L7y/enzzhlZ6ASJbSkLx/b7c/2x8vLzfYGSrL+s7358ePj87PdflwmYziHEic8yND1a6d0PXG0g/4HF2vIvOFzVQ8AAAAASUVORK5CYII=;" parent="UEzPUAAOIrF-is8g5C7q-175" vertex="1">
          <mxGeometry x="-34" y="179.66" width="55" height="55" as="geometry" />
        </mxCell>
        <mxCell id="UEzPUAAOIrF-is8g5C7q-195" style="edgeStyle=orthogonalEdgeStyle;rounded=0;orthogonalLoop=1;jettySize=auto;html=1;startArrow=none;startFill=0;endArrow=open;endFill=0;strokeColor=#808080;strokeWidth=2;" parent="1" source="UEzPUAAOIrF-is8g5C7q-177" edge="1">
          <mxGeometry relative="1" as="geometry">
            <mxPoint x="806" y="-1289" as="targetPoint" />
          </mxGeometry>
        </mxCell>
        <mxCell id="UEzPUAAOIrF-is8g5C7q-177" value="Amazon S3&lt;br&gt;Bucket&lt;br&gt;" style="outlineConnect=0;fontColor=#232F3E;gradientColor=none;fillColor=#277116;strokeColor=none;dashed=0;verticalLabelPosition=bottom;verticalAlign=top;align=center;html=1;fontSize=12;fontStyle=0;aspect=fixed;pointerEvents=1;shape=mxgraph.aws4.bucket;labelBackgroundColor=#ffffff;" parent="1" vertex="1">
          <mxGeometry x="407" y="-1548" width="75" height="78" as="geometry" />
        </mxCell>
        <mxCell id="UEzPUAAOIrF-is8g5C7q-188" value="PRD VPC" style="outlineConnect=0;fontColor=#232F3E;gradientColor=#945DF2;gradientDirection=north;fillColor=#5A30B5;strokeColor=#ffffff;dashed=0;verticalLabelPosition=bottom;verticalAlign=top;align=center;html=1;fontSize=12;fontStyle=0;aspect=fixed;shape=mxgraph.aws4.resourceIcon;resIcon=mxgraph.aws4.vpc;labelBackgroundColor=#ffffff;" parent="1" vertex="1">
          <mxGeometry x="617" y="-1458" width="78" height="78" as="geometry" />
        </mxCell>
        <mxCell id="sxGFlXzZ9FwV0MmhRmrx-47" value="AWS Cloud" style="points=[[0,0],[0.25,0],[0.5,0],[0.75,0],[1,0],[1,0.25],[1,0.5],[1,0.75],[1,1],[0.75,1],[0.5,1],[0.25,1],[0,1],[0,0.75],[0,0.5],[0,0.25]];outlineConnect=0;gradientColor=none;html=1;whiteSpace=wrap;fontSize=12;fontStyle=0;shape=mxgraph.aws4.group;grIcon=mxgraph.aws4.group_aws_cloud_alt;strokeColor=#232F3E;fillColor=none;verticalAlign=top;align=left;spacingLeft=30;fontColor=#232F3E;dashed=0;labelBackgroundColor=#ffffff;container=1;pointerEvents=0;collapsible=0;recursiveResize=0;" parent="1" vertex="1">
          <mxGeometry x="586" y="-827.5" width="730" height="410" as="geometry" />
        </mxCell>
        <mxCell id="sxGFlXzZ9FwV0MmhRmrx-48" value="Public 2A" style="points=[[0,0],[0.25,0],[0.5,0],[0.75,0],[1,0],[1,0.25],[1,0.5],[1,0.75],[1,1],[0.75,1],[0.5,1],[0.25,1],[0,1],[0,0.75],[0,0.5],[0,0.25]];outlineConnect=0;gradientColor=none;html=1;whiteSpace=wrap;fontSize=12;fontStyle=0;shape=mxgraph.aws4.group;grIcon=mxgraph.aws4.group_aws_cloud_alt;strokeColor=#232F3E;fillColor=none;verticalAlign=top;align=left;spacingLeft=30;fontColor=#232F3E;dashed=0;labelBackgroundColor=#ffffff;container=1;pointerEvents=0;collapsible=0;recursiveResize=0;" parent="sxGFlXzZ9FwV0MmhRmrx-47" vertex="1">
          <mxGeometry x="21" y="27.5" width="220" height="160.5" as="geometry" />
        </mxCell>
        <mxCell id="sxGFlXzZ9FwV0MmhRmrx-49" value="" style="sketch=0;points=[[0,0,0],[0.25,0,0],[0.5,0,0],[0.75,0,0],[1,0,0],[0,1,0],[0.25,1,0],[0.5,1,0],[0.75,1,0],[1,1,0],[0,0.25,0],[0,0.5,0],[0,0.75,0],[1,0.25,0],[1,0.5,0],[1,0.75,0]];outlineConnect=0;fontColor=#232F3E;fillColor=#ED7100;strokeColor=#ffffff;dashed=0;verticalLabelPosition=bottom;verticalAlign=top;align=center;html=1;fontSize=12;fontStyle=0;aspect=fixed;shape=mxgraph.aws4.resourceIcon;resIcon=mxgraph.aws4.compute;" parent="sxGFlXzZ9FwV0MmhRmrx-48" vertex="1">
          <mxGeometry x="71" y="41" width="78" height="78" as="geometry" />
        </mxCell>
        <mxCell id="sxGFlXzZ9FwV0MmhRmrx-50" style="edgeStyle=orthogonalEdgeStyle;rounded=0;orthogonalLoop=1;jettySize=auto;html=1;exitX=0.5;exitY=1;exitDx=0;exitDy=0;" parent="sxGFlXzZ9FwV0MmhRmrx-47" source="sxGFlXzZ9FwV0MmhRmrx-48" target="sxGFlXzZ9FwV0MmhRmrx-48" edge="1">
          <mxGeometry relative="1" as="geometry" />
        </mxCell>
        <mxCell id="sxGFlXzZ9FwV0MmhRmrx-51" value="Public 2C" style="points=[[0,0],[0.25,0],[0.5,0],[0.75,0],[1,0],[1,0.25],[1,0.5],[1,0.75],[1,1],[0.75,1],[0.5,1],[0.25,1],[0,1],[0,0.75],[0,0.5],[0,0.25]];outlineConnect=0;gradientColor=none;html=1;whiteSpace=wrap;fontSize=12;fontStyle=0;shape=mxgraph.aws4.group;grIcon=mxgraph.aws4.group_aws_cloud_alt;strokeColor=#232F3E;fillColor=none;verticalAlign=top;align=left;spacingLeft=30;fontColor=#232F3E;dashed=0;labelBackgroundColor=#ffffff;container=1;pointerEvents=0;collapsible=0;recursiveResize=0;" parent="sxGFlXzZ9FwV0MmhRmrx-47" vertex="1">
          <mxGeometry x="21" y="229.5" width="220" height="160.5" as="geometry" />
        </mxCell>
        <mxCell id="sxGFlXzZ9FwV0MmhRmrx-52" value="Public 2A" style="points=[[0,0],[0.25,0],[0.5,0],[0.75,0],[1,0],[1,0.25],[1,0.5],[1,0.75],[1,1],[0.75,1],[0.5,1],[0.25,1],[0,1],[0,0.75],[0,0.5],[0,0.25]];outlineConnect=0;gradientColor=none;html=1;whiteSpace=wrap;fontSize=12;fontStyle=0;shape=mxgraph.aws4.group;grIcon=mxgraph.aws4.group_aws_cloud_alt;strokeColor=#232F3E;fillColor=none;verticalAlign=top;align=left;spacingLeft=30;fontColor=#232F3E;dashed=0;labelBackgroundColor=#ffffff;container=1;pointerEvents=0;collapsible=0;recursiveResize=0;" parent="sxGFlXzZ9FwV0MmhRmrx-51" vertex="1">
          <mxGeometry width="220" height="160.5" as="geometry" />
        </mxCell>
        <mxCell id="sxGFlXzZ9FwV0MmhRmrx-53" value="" style="sketch=0;points=[[0,0,0],[0.25,0,0],[0.5,0,0],[0.75,0,0],[1,0,0],[0,1,0],[0.25,1,0],[0.5,1,0],[0.75,1,0],[1,1,0],[0,0.25,0],[0,0.5,0],[0,0.75,0],[1,0.25,0],[1,0.5,0],[1,0.75,0]];outlineConnect=0;fontColor=#232F3E;fillColor=#ED7100;strokeColor=#ffffff;dashed=0;verticalLabelPosition=bottom;verticalAlign=top;align=center;html=1;fontSize=12;fontStyle=0;aspect=fixed;shape=mxgraph.aws4.resourceIcon;resIcon=mxgraph.aws4.compute;" parent="sxGFlXzZ9FwV0MmhRmrx-52" vertex="1">
          <mxGeometry x="71" y="41" width="78" height="78" as="geometry" />
        </mxCell>
        <mxCell id="sxGFlXzZ9FwV0MmhRmrx-54" value="Private 2A" style="points=[[0,0],[0.25,0],[0.5,0],[0.75,0],[1,0],[1,0.25],[1,0.5],[1,0.75],[1,1],[0.75,1],[0.5,1],[0.25,1],[0,1],[0,0.75],[0,0.5],[0,0.25]];outlineConnect=0;gradientColor=none;html=1;whiteSpace=wrap;fontSize=12;fontStyle=0;shape=mxgraph.aws4.group;grIcon=mxgraph.aws4.group_aws_cloud_alt;strokeColor=#232F3E;fillColor=none;verticalAlign=top;align=left;spacingLeft=30;fontColor=#232F3E;dashed=0;labelBackgroundColor=#ffffff;container=1;pointerEvents=0;collapsible=0;recursiveResize=0;" parent="sxGFlXzZ9FwV0MmhRmrx-47" vertex="1">
          <mxGeometry x="251" y="27.5" width="230" height="162.5" as="geometry" />
        </mxCell>
        <mxCell id="sxGFlXzZ9FwV0MmhRmrx-55" value="Private 2A" style="points=[[0,0],[0.25,0],[0.5,0],[0.75,0],[1,0],[1,0.25],[1,0.5],[1,0.75],[1,1],[0.75,1],[0.5,1],[0.25,1],[0,1],[0,0.75],[0,0.5],[0,0.25]];outlineConnect=0;gradientColor=none;html=1;whiteSpace=wrap;fontSize=12;fontStyle=0;shape=mxgraph.aws4.group;grIcon=mxgraph.aws4.group_aws_cloud_alt;strokeColor=#232F3E;fillColor=none;verticalAlign=top;align=left;spacingLeft=30;fontColor=#232F3E;dashed=0;labelBackgroundColor=#ffffff;container=1;pointerEvents=0;collapsible=0;recursiveResize=0;" parent="sxGFlXzZ9FwV0MmhRmrx-54" vertex="1">
          <mxGeometry x="-1" y="2" width="230" height="160.5" as="geometry" />
        </mxCell>
        <mxCell id="sxGFlXzZ9FwV0MmhRmrx-56" value="" style="sketch=0;points=[[0,0,0],[0.25,0,0],[0.5,0,0],[0.75,0,0],[1,0,0],[0,1,0],[0.25,1,0],[0.5,1,0],[0.75,1,0],[1,1,0],[0,0.25,0],[0,0.5,0],[0,0.75,0],[1,0.25,0],[1,0.5,0],[1,0.75,0]];outlineConnect=0;fontColor=#232F3E;fillColor=#ED7100;strokeColor=#ffffff;dashed=0;verticalLabelPosition=bottom;verticalAlign=top;align=center;html=1;fontSize=12;fontStyle=0;aspect=fixed;shape=mxgraph.aws4.resourceIcon;resIcon=mxgraph.aws4.compute;" parent="sxGFlXzZ9FwV0MmhRmrx-55" vertex="1">
          <mxGeometry x="76" y="41.25" width="78" height="78" as="geometry" />
        </mxCell>
        <mxCell id="sxGFlXzZ9FwV0MmhRmrx-57" value="Private 2C" style="points=[[0,0],[0.25,0],[0.5,0],[0.75,0],[1,0],[1,0.25],[1,0.5],[1,0.75],[1,1],[0.75,1],[0.5,1],[0.25,1],[0,1],[0,0.75],[0,0.5],[0,0.25]];outlineConnect=0;gradientColor=none;html=1;whiteSpace=wrap;fontSize=12;fontStyle=0;shape=mxgraph.aws4.group;grIcon=mxgraph.aws4.group_aws_cloud_alt;strokeColor=#232F3E;fillColor=none;verticalAlign=top;align=left;spacingLeft=30;fontColor=#232F3E;dashed=0;labelBackgroundColor=#ffffff;container=1;pointerEvents=0;collapsible=0;recursiveResize=0;" parent="sxGFlXzZ9FwV0MmhRmrx-47" vertex="1">
          <mxGeometry x="250" y="229.5" width="230" height="160.5" as="geometry" />
        </mxCell>
        <mxCell id="sxGFlXzZ9FwV0MmhRmrx-58" value="" style="sketch=0;points=[[0,0,0],[0.25,0,0],[0.5,0,0],[0.75,0,0],[1,0,0],[0,1,0],[0.25,1,0],[0.5,1,0],[0.75,1,0],[1,1,0],[0,0.25,0],[0,0.5,0],[0,0.75,0],[1,0.25,0],[1,0.5,0],[1,0.75,0]];outlineConnect=0;fontColor=#232F3E;fillColor=#ED7100;strokeColor=#ffffff;dashed=0;verticalLabelPosition=bottom;verticalAlign=top;align=center;html=1;fontSize=12;fontStyle=0;aspect=fixed;shape=mxgraph.aws4.resourceIcon;resIcon=mxgraph.aws4.compute;" parent="sxGFlXzZ9FwV0MmhRmrx-57" vertex="1">
          <mxGeometry x="77" y="41.25" width="78" height="78" as="geometry" />
        </mxCell>
        <mxCell id="sxGFlXzZ9FwV0MmhRmrx-59" value="Private 2C" style="points=[[0,0],[0.25,0],[0.5,0],[0.75,0],[1,0],[1,0.25],[1,0.5],[1,0.75],[1,1],[0.75,1],[0.5,1],[0.25,1],[0,1],[0,0.75],[0,0.5],[0,0.25]];outlineConnect=0;gradientColor=none;html=1;whiteSpace=wrap;fontSize=12;fontStyle=0;shape=mxgraph.aws4.group;grIcon=mxgraph.aws4.group_aws_cloud_alt;strokeColor=#232F3E;fillColor=none;verticalAlign=top;align=left;spacingLeft=30;fontColor=#232F3E;dashed=0;labelBackgroundColor=#ffffff;container=1;pointerEvents=0;collapsible=0;recursiveResize=0;" parent="sxGFlXzZ9FwV0MmhRmrx-47" vertex="1">
          <mxGeometry x="491" y="229.5" width="230" height="160.5" as="geometry" />
        </mxCell>
        <mxCell id="sxGFlXzZ9FwV0MmhRmrx-60" value="" style="sketch=0;points=[[0,0,0],[0.25,0,0],[0.5,0,0],[0.75,0,0],[1,0,0],[0,1,0],[0.25,1,0],[0.5,1,0],[0.75,1,0],[1,1,0],[0,0.25,0],[0,0.5,0],[0,0.75,0],[1,0.25,0],[1,0.5,0],[1,0.75,0]];outlineConnect=0;fontColor=#232F3E;fillColor=#ED7100;strokeColor=#ffffff;dashed=0;verticalLabelPosition=bottom;verticalAlign=top;align=center;html=1;fontSize=12;fontStyle=0;aspect=fixed;shape=mxgraph.aws4.resourceIcon;resIcon=mxgraph.aws4.compute;" parent="sxGFlXzZ9FwV0MmhRmrx-59" vertex="1">
          <mxGeometry x="76" y="41.25" width="78" height="78" as="geometry" />
        </mxCell>
        <mxCell id="sxGFlXzZ9FwV0MmhRmrx-61" value="Private 2A" style="points=[[0,0],[0.25,0],[0.5,0],[0.75,0],[1,0],[1,0.25],[1,0.5],[1,0.75],[1,1],[0.75,1],[0.5,1],[0.25,1],[0,1],[0,0.75],[0,0.5],[0,0.25]];outlineConnect=0;gradientColor=none;html=1;whiteSpace=wrap;fontSize=12;fontStyle=0;shape=mxgraph.aws4.group;grIcon=mxgraph.aws4.group_aws_cloud_alt;strokeColor=#232F3E;fillColor=none;verticalAlign=top;align=left;spacingLeft=30;fontColor=#232F3E;dashed=0;labelBackgroundColor=#ffffff;container=1;pointerEvents=0;collapsible=0;recursiveResize=0;" parent="sxGFlXzZ9FwV0MmhRmrx-47" vertex="1">
          <mxGeometry x="491" y="29.5" width="230" height="160.5" as="geometry" />
        </mxCell>
        <mxCell id="sxGFlXzZ9FwV0MmhRmrx-62" value="" style="sketch=0;points=[[0,0,0],[0.25,0,0],[0.5,0,0],[0.75,0,0],[1,0,0],[0,1,0],[0.25,1,0],[0.5,1,0],[0.75,1,0],[1,1,0],[0,0.25,0],[0,0.5,0],[0,0.75,0],[1,0.25,0],[1,0.5,0],[1,0.75,0]];outlineConnect=0;fontColor=#232F3E;fillColor=#ED7100;strokeColor=#ffffff;dashed=0;verticalLabelPosition=bottom;verticalAlign=top;align=center;html=1;fontSize=12;fontStyle=0;aspect=fixed;shape=mxgraph.aws4.resourceIcon;resIcon=mxgraph.aws4.compute;" parent="sxGFlXzZ9FwV0MmhRmrx-61" vertex="1">
          <mxGeometry x="76" y="41.25" width="78" height="78" as="geometry" />
        </mxCell>
        <mxCell id="sxGFlXzZ9FwV0MmhRmrx-63" style="edgeStyle=orthogonalEdgeStyle;rounded=0;orthogonalLoop=1;jettySize=auto;html=1;exitX=0.5;exitY=1;exitDx=0;exitDy=0;" parent="sxGFlXzZ9FwV0MmhRmrx-47" source="sxGFlXzZ9FwV0MmhRmrx-61" target="sxGFlXzZ9FwV0MmhRmrx-61" edge="1">
          <mxGeometry relative="1" as="geometry" />
        </mxCell>
        <mxCell id="ufO5z-Iy11hLr9e_9HTo-2" value="" style="shape=image;imageAspect=0;aspect=fixed;verticalLabelPosition=bottom;verticalAlign=top;image=data:image/png,iVBORw0KGgoAAAANSUhEUgAAAOEAAADhCAMAAAAJbSJIAAAAz1BMVEX1hTb///+dUCX0fR/1gi795dr1gS30exj84NH1gCn0fB33oWv++PX4r4P6v53+8OqdTySXQACXTCSWPgDygzX6y7CbTB3sgDT+9e/5uZb7iDeXQwWZRhH1iT37z7e0XimsWSjGaS371cD2l1r4q3z96t76wqLadTHr3df2k1L3pnT2jUb5to784dH3nGLcxrzTtqrNbS6vdVnheTLGn43n19Dodh/SaBa6inTWu6+kXTjFnYurbU68jXj0dwTs0cTGXxCmSwOzWR2mY0C1gGe04X8yAAAO90lEQVR4nO2da1viOheGaVqEYoW2YMFSFRkRFBWPe6szvvsw/v/f9KYtPaVJm5QV2tnXPJ+cy4HJPUnWKatpS/mvq1X3AKTrN+Gvr9+Ev772RjgZLNp380DdbnsxmOzrH5ZNOLk76x8drnVVVXtqrJ7/s3Z9eHs8bxuSRyCRcDE/uT/tqbp+oLWo0rQDHXOvD/vzhbxhyCE07vrXHQzHQCNJMWfnut+VM5sSCNv9bzovXAZT/9Zvww8HmNCYX6o9YbqEsqcfzYGnEpLQODvU1ap0kQ5U/eYMEhKOsHup7oy3nUpVveyCjQuI0Lg6VQ9A8EIdqKdXQB4ThHBxpOqAeKH03iWI3QEgnF/3IKcvkda7njeA8GwNtPuojOr6rGbCs5YqDS+U2tqRcSfC+alsvoBxvdNa3YGwfd3bA5+v3vVdDYTGZU/e/iOl9W4q+46qhMe6HPvJ0oF6tVfCwfU+NmBW6rpailWJsL/HBZpI6/X3RLhYwwcwfNKrTKM44VUtExhK64hPoyihcb//HZiW+k3UqAoSdrX9mtC8NF0wsRIj7Hdq5vMluFKFCA/rXaGR1ENJhJPabCgpfS2wGfkJ21p9NpSUpvEnx9yE3Was0Eg97nyDl/CsCTYmrc4xLOFV0wDxLHKG4nyEJ80DxLN4Akd4u69UV0zqLRRhQwHxQuVB5CBsLCCeRY6FWk7Yby4gl7kpJTxOG5nm+PxIndJaYxnhPAPYkMA0rU5ZqlFCuMgsUXUxrzH9ZahXkvcXExrZL1PbyqJVd4JISmsVnzYWE15nZ0z1493GrVTtujrhEZEuBYTNSIPT0i+rEh6TfiIkVLqVD+olqVcUhRcQLnJztSVUJtdNyYW36hRYGzahkf8iNc47LxsWBpxWIbzJz1NCmA0E6pd+I054RpmlFKHSbpbb6DFjGxbhhLbT0oS114YJqaziFIvwnmYu1Wz957ZJK1W7FyM8ps4PQajM4yYFDVzCiCpjndIJqWs0T6gMtiXU+5tDaK2FEXV69EYnvKFbkRwh/puBQTqF7w89EjZkB/TQhkrYZXg7CuHWbfAWvvglTtjqUfsZqIRrxi6gESrdYM/02A6pmioQ0v0+jZBuZliEivHN34z6elA7oUqLTymEBjPopBPi0fizqHV2aHqBIWxpFGNDIbwVJbwLftk7ggRUTqoE9zql9pYnnLD9OJ0wtDXc5wgyCVud/CTmCQuWB5UwSDM0HboHvRqhnl9IOcJBQbRJITSCVFG/Bn8EphohJTzNEZKVi2LCdvC0yAHsFtyFUM8V+klCoyi1zRFuU6z1VR9EJ6lddFsxOVPJnUgS9ov+60jCOLnQYfS/lEut5C38oZCdGiRhYUyfJYRPEHsAhC2tmJAZzgTKEA5OwZN8EEIyiyIIWRHp9sMpwrmEBnaYOVwXEd4Vl9BShFIO9kEIW72stcgSlnxtQiintA9DSPiuLGGJD5JdEYYhJBxGhnBeMjNbwjtZVX0owjMmIbXAlv5oQJg7zgATEGG27JYmnJRtroDwSF5BH4gwG5ymCc/KdhcmDBN6SYIi1I8ZhIdl20tdDKTW8qEIM8s0RWiUuriDE7knh1CEmUQ4RVhmSbEkH8aAEapzKuFO3wkiMMK0008RnoKNtKrACNOV04RwUf+xLhxhqskmITyu/2y+jJD/RCrlLxLCy/obLEoID05ueAN+7ZJCWD9gGaHe50/atDxhQSF4byon5I76O5McIYc3lC4OQt7MLfGIMWFhkS2S5KdmeAjxb3hWW1JyiwlLg9KWH5fKbdrnI1TOOFpAtcMcIc+5Oc4tZBSgYnEScrWArklCg2cb+vnhQOJK5SXEuXrpcONSRkR4x0uoKNxOSVj8hOUtoHHFLSLkMqXbOo20R4QECEtbQGNjGhFe8ay9qNZ2J+lBPRHCssch9SuCkCvQjeulksqJQoQlLaBxAhURlpXZAqVq3lJ62gQJC1tA40pGRMiVHKbPLc46ez+3yBEWPtcapYgRIV8olD4RWOz97ClPWHTCpxOEXB6AOD8EP7wQJyzYLpFD3BKWFoPDDxFnwNDPJVQhZEZZ6iBDWNSBkfoQeY4fOaVTmAbTTppQzf1apV81wIiyCMI2V5Em34sROiXtXvYlpMW6oY0+KtVsCbmCNmrHUNgw1JJwaaWAaFGWun2obUvI97Q9tSdKTtOXoLr5W2DhCHEuI6XBVEz5E6MoMN0S8tUwGL2JRpA9V7oACFBkixEk4eTa/6UufDcOqCbEk4SQhGH5C7i9VFT5GhxBuMM+DO1Y+RPHUkWJwcEszba9FO7O2CqinbwDEYbtpRp8e6mI6CfvBOFf1Qjb4RP667u7LohSodGC8pV0Y72gXxMAQhhfWqPCKN19ednJ/5p6R8Sc9fjLXxnCTRVC8Dy/Sm7BrFGThOIZMEfNUlQVCNk5qr7ZkVBCe6k4YdEgSMI/eEaQIuzKqO6LEhYO4g+C8E+eESSEcm4dECQsrkz/8ZohfBUjlFTYFyMsGcSfWcLV3zwj2BJKu3xPhLC0KP33iiB0OUYQEsqq6QsRlg7CJQgH/3ATSrxrgJ+wfBDuP9lKlDHlGYFPKLG9lJ+QZxDTbL1U8cYcI1AXisz2Ul5Crh7XsadkCe1njhHoZxLcfEp8hIxIm9CzTRA+PfIMQXJjGBchZ1vM4xNB+Pkvj6mRLB5Czm4Q999PgvDF+zUIeU+DXO+FINxMeUyNZJURXvHHGqPphiBcDZewo62iEkLtkD/WWA5XBKExvKh/mZb2l3J/k3sxJPtplI8Z3EirCq5HuDX7UEjCJ6f+jQhHOHaecoQvHpdHlCo4wmVsShPCzfS8fCNKvooOjNA9j01pQjgY2qUf1Lv3UqMauDm0h4McoeLZpf4C5xZSr9wFI1zanpIn/HJK/YWfPclsMIUidM+dNwrhg4fKPhlkwBIbTMHmEHkPFMKVVbpMt3UaaTeYQhEubWtFIVSQWWZNo1rblaTNCETonptIoRG+Ofao+KNxNfFOzmYEIhzZqW2YJtxM7RKnn1SE5TSYAhE+2ok3zD5DOkSz4mWaPreQUZGCIXRnaEh/hhSHpiXVmszZE89TD4KCIXy2k6CUIHz3ULGtyZ6uwV98DULonqPpO4NwYpl2YYJBnJCCX1ADQji2TSvdSJi5U+HJQYVxTe4cPyoLaT0QQdwx5F6gzCLNEr5PUaHDyPdihDGcdjMZgCj9n1fRWI9slLakBKExNe2iSaT004QxnP4NvMG0IqF7YZvTzBdlb2/5dBAqmERqT9RNk26ka40Qcj4zX5QlXFmoaBIZtwoGnrEDfINpNUI8hSgVk+YJlZ9O0U5k9Ca2g4c1epegK7XiHNrI+Zn9IoIQ25oCc8q63TN4DFxTQW/3ZN/AWSBsSLPOME+oOCZi+0TGDa1Srk6s5C3GNjJN4otIwhcPsQMbKmH4ZE6v8A0MeyLE4QxKimwMQsPCk8iKTmmEYW9b4fsX9kb4jKfQKrs3UfmOJ9HkJ7wNfQXoFqxMaOIp/E5+UY5wMjWZHiNHuI1M1wPFAFZ4N7GQfE9hWuX3lyqfeBIZxoYkjNvK1A64xFMzbGaQ95njyRPiRBgxUmGCsFmvRsKJL8qkvkzCwJzajzTELGGz3qjjPtoUQ0onNDyTsU4zhPIeWq8kf42aDt993srDlLFOU4TNebFsqGCNTh8oNNR79T9wikGzpwmhtKsTK8q3o8j5oMFQCV99Y0Px+zFhw96jE/h6hKxXbkLlDRsblD/GiAhl9rZV0sgfrvdGZaET4mQfT+KM/KKQUOrViZUUbELTE3lHifJuIcpWDAj52sr2qWATIuudjsJ6V9CT4yMus4jB+WHTtmDoCYkCGwehH57mrA0mPGnaFtxaGXMq+r4nZeOvU4Qyjl/tNszN+xoH47Q2LBD2e9e+AntKJFJN24LYjJqBHf1ichS8HRAFW3FWN0KJfDOKR8rGKCBcDYP5Lzlxq1kBIBqu2BgFhMpDsBVtjk6i2nRuB4C0eJSHcBvaNBfRDQEpaS8voV8gbjJiCEiWgIUIDccMEetmoWoWAqJd3geMrU2IOKubhqIQ0LQKrAwHIU6kzNCiljSi7F2j0IqaQ2rKJECovIc+w0b1N9imNTbt0E8w4m0BQuUhRETouTn2xn3ejqnQT/ASKt/DCDWXadQndxlOILJyFe5KhAliA9r5fYX5ICcgF6HyGSE2wt6MZiKAfITK9+1etOvfjPEWRENK+bcyYWJu7IuaAaMVygvIS4idhhmt1HF90+iOoxVqlrsJQUJlEyEyzjT2AvgYTaBJr43uRKi8ek6EeF7LNCYTiBynJFSrRKhMPjxU5zTGE4i8D4HGFgFCRfmyYsTZno2q+xxPILLYRZldCZWXeDPipTraH6M7Oo/5TF4jWokwtRn36jiSBYocj9vGVCJUjB/TBNHcz+Nuj2YCOP0h2lsmSohXqpWaRlP+s7VpPscSW6HVCJVVYlPDeZS3H90MH7ah/E5iF0I/THVSjOhCknt0xxcoxefwRdoghMrqp2WmGO1zCb7DHZ/bKT7T+llhAisT+t0MqaXq+8dHUOfhjh5naT48geXZPCyhYnyml2o4kUA70m0tM9Pn871Vbs+tTIiX6o/0Ug135O6QPh7K4CFn+KPaAt2VEOcbHySjjc6XOyxXd+TPXpYPb0Dm2aB0QsyIrMxaDShnlabSbT1fzAg6f32infh2JgzmkWQMKZdjXkzXbY2XFDqf72NHPgBCzPiTwuhTmhjzeeRiMdFcd/z8eDFDFDpk4v23Mx8IIY7HvyzPzA8xwLTR7Pzicbl8Ho/H20rdaIR/fl4+Xlyc44kj913E51mfO9iXRCCEODt+wBuSDrkFDUFM00z+TCXbTp9lPgA9vgFEiPX6Zk0LIPmF8bxPwRSpQHCEOAjYfHm7QprO1PsC2H2JIAkVH/LNsryKlKbj4dnbAD8GB0zoa/Xy5AlTBnRPL3CLM5YEQizj9eHLGk75MDHcdGg9PbzKeUmGHMJAq83L04dlTT3Pccw8qmk6judNLevj6WUD4hfokkgYyFhtHl7efiBM4mvqa/sj+vH28rBZyX69iWzCWMZgtXp93fh6fV2tBnt7b8veCGvTb8JfX78Jf3399wn/DyxGUOzL5UJGAAAAAElFTkSuQmCC;" parent="sxGFlXzZ9FwV0MmhRmrx-47" vertex="1">
          <mxGeometry x="192" y="177.5" width="49" height="49" as="geometry" />
        </mxCell>
        <mxCell id="sxGFlXzZ9FwV0MmhRmrx-64" value="DEV VPC" style="outlineConnect=0;fontColor=#232F3E;gradientColor=#945DF2;gradientDirection=north;fillColor=#5A30B5;strokeColor=#ffffff;dashed=0;verticalLabelPosition=bottom;verticalAlign=top;align=center;html=1;fontSize=12;fontStyle=0;aspect=fixed;shape=mxgraph.aws4.resourceIcon;resIcon=mxgraph.aws4.vpc;labelBackgroundColor=#ffffff;" parent="1" vertex="1">
          <mxGeometry x="617" y="-928" width="78" height="78" as="geometry" />
        </mxCell>
        <mxCell id="ufO5z-Iy11hLr9e_9HTo-3" value="" style="shape=image;imageAspect=0;aspect=fixed;verticalLabelPosition=bottom;verticalAlign=top;image=data:image/png,iVBORw0KGgoAAAANSUhEUgAAAOEAAADhCAMAAAAJbSJIAAAAkFBMVEX///9pPMVjMsNfKsKolNvRyOtnOcReKMJlNcSXfdXz8Pvc1PB0S8lmN8RiMMNdJsFaIMGagdadhdfq5fbZ0O/u6vhYHMD39fzj3PNuQ8d8WMy2peFxR8jDteaGZs92T8qMbtGii9mxn9+7q+ODYc7MwOq5qOLQxeuRdNOmkduyoN9/XM17VcvBsuWPctKsmd1rpS5kAAAPdElEQVR4nO1d6WLiKhSuQQGjATRG425dWpc6vv/bXe0IZCEJJLEy3n4/Z2zCFw5n48B5e/vFL37xi1/8Qxi5QeD7oe8HgTt69mDqhD/YrfuLJSQAIERvQAgAApeL/no38P9pru5g05sQigjBHoSNOCD0MCGIkklvM3CfPdQSCOf9BkMEJ4mlATFBrNGfh88esgHcXbtBdcjFaNJGe/dPzGV4WTJgxE6yBGx5sXwqw+aMkjLsBEtCZ/aSDKYz6lShdyfp0Nk0eDYZBXaLwtmDV/3pYe+qV4t+SOhi92xCCWzGyMsa7l+rwBgYLyfb1X61nSzHgLG7Fcn4Kw/AtT2mMjgA9fRBhyAw2/aP846fVJOu35kfe9sxzTIp14ns+U/hk0TQo45igFf1zyaHXadoItzBuddgQLmAHbZ/PsegN0zzgw4iq01H/ylu6zKhKhuDh+3nKp3Re3r+rtLVbQ7M15C762OUlnZM35+4Hj9S/CBhk2l5yQrXS5aSVwd91DhmE3yOQfJ7o0ZlSxY2GwgnngvGn7WM2Az+gsY/9lU694NaHt3aJ00rpIsfX45rGv/QEDSO9fnN7gWDOEdMj7U9XQedGYm936Nfdfsg8xmKcyQzA+VcFU0G4/y29YhnHJ/dOEfImg94iwrBV2wCIZ08gt8Nu3FcVsHXj6zGM4t5oKDbeuDL5jD2NT12fuDL7ujR6CsdsHnw+y5xlUZ7D35fsIx+U/gT/oa7j5klsnxoqqNFohL6U9qt1Yh+Vo88cFmch5GvCdnlcW9KIKa84fBhi/E9ugTJ7CfTKWHMANP3x7zlT8QNhexBL8lEPzqNYP+IV0wiXxF7jzQRanziiA4gk/pf8OVEn/+MkM2N6nHnq+anj7oRq8QONT9dF1FbjLu1fuXRTBKE9HmJvk1kMeJZjRSjM+jhZ6akBxFHtc5ZXEqCTve5uyd+Q44FL+t66kQqGbKo66FlMYqoPOdUzzO3EYIPsUOG2EqV6mzreGBbPhC063hgZazkiEgNI2oiSfDRkYsu2tK7QpXj/jm1j2BMrui82qMGQ7vWIMcfSXFYKYfiyq0EsqppcPVgIShCXMV+fQnjU4/WqhEnMTRcwQt/Fx/K69Y3tnowGotQg5SO5HZMSIJjXx1IIDP/ZT1lV6pRamN5RCcyvnITcBJiwCpGEyO/s9tc3tt/VotvrPa9w+Vj3kptfZthLmTMK+W+XYRZJRXiwXB3WHiAIkAcB2PvLzDGjkMIoACMF+/l672kngDrEkMTH6isrhq1LltCiZNZb/G9wj2HULy9lDNqSylm5p9pBsUYyoRh4fE0BE5WBUoSnoPY6my+d+yKDWM4M/3btRAAZp506tyKv3TZcWBCuwfTFPOnkDRiKKe+0FPGxsY/jssWf0GHwovZTPbETFCzPxR61HT2P4uLv/JJEnoy0txj/jYzfToXIZPZCv5oZBZ/6cMDzkXfjHSEnCKTKEOU1hGD8Mu9kKzpg9ghf6u8Afou9L5VejvZVW0mBV8HLqcQ6o9VqBk41v6b0QURxVghJoCRr/bh/DnohEHg3gr2w87gc3c+tLcNRoHammDW1uUop0Nb2Uh3jWmbqSlQ8MMAzfbT3Dr1cNdc3EqmVRx7erLaEsPVdt56PPXk6GZBdo0UP49Q0NMs3A7mbaBQUI6mp7Ln38fRzEJIS4H0bL1/ShQP3TTi5GjmZYTTSZokgTrFUFLmNC1Gm38Solekc6QJ/YnReF2mti3YdJOFcpCuNMTgwiUIawmdz1MzemomnMWr267T1y6/+R2+J4txsU6qSSiboc6XFVNIdSRkGhdQCLyKxV+jczdhU9GicLHM+VfWmUSxCj2NHbrRFsX5jSvm9r7RmsTlHpPCby08G42V+M5XAi22FB0c0/K5/EZ+a7M+9P9sl6dV/7DeDPKGMpjECr4gK6ra2fEv7RS60SMxhcXJtY9YeZtDskok/N1hO766M4TcgmB4DYC/w186W10+s8q4PuPLe1hU7rXkQynU/1OuloqncM0iQ/Ayioc66y3I8luu0S+geLVRz+bGie6rF5UJi0kk04JfNu5DgYV7c/4wMlg0UQzTnbdhcZz4HReqYtBRpPzCKfSPecQOG/m/E58CFYYwU+nGYEV1W3A+Md3za/A6l20FyVDUJhQzFOq0YOQLT+9LXNEUQgROqVXSWpkG+Rh5h7Qc9B1dhm98IXi5m7gB1zOF0hxhiJLeo3tMF6NrADpskZzIAdBmKBwbmqeVRNhEiz1SzpAkTESQckv04aFuXMZa+gxdrvhynU1uOHVcA84QxL570GOqM0J/04b3KPga/5KsJCNEMaNqwPBtdZebPG9T5MmRRlyoYjg6qM5A3U76gvGivz63OqHvXgPg1nn9vh0D5aGuq+MnM9AmDD+5lqTZfvHBKf4KeQxVYTAGbNyfd1TOqtvZ7CFLR78QCG/DhKHQNTk/5sZQK2xKM1yh5Fgd5BUdX/bPKyell4TTb8SwWThBQkiZTgySYviRIIgBeteKo0atPYsrJ+FdGjEUGxGZW2XiG2jV/aUYrmIz4dA/JoeV5l/RinWh6YwYvnWLxHRmIqRphl05DZCApunRiE5bauGSDC8FYhqISdZKQWQzhASWOqMQ9FOBrBnDkK+TjGU2J/lfIIFMhtArfV6QEyrJUKpKdSDHk3KO3oZoJkNQ/uhOB1VjyMN3rK794Z4y0ttOy2ZYPlFTleHn/efqBH/IbQXQy5LayHDEF7LSXpzvyzA/+pCwkeHb1stZiL37MtQInL5hJUMeHGFVfp9nVZFmPtdKhoOchSjCK6ZZmGAlw5FgkR7E4P5wqFvBZiVDEeEq4r/NXYKLU6p32MmQJ3ZI2qvqc0Wjm5e3kyG3CLif+q+ToaKxlCFfbIrKDB67IN3x2clQ7Jbi5P/wwEK/fsZOhkLVpJQpf7auR2MtQ57TTq22HX+UdpGXpQx5eAGSyf3jXQfp+mzWMuTbKalERSb1TFjKMFMYV1x8tWtELGUoFMoq8R9f9+Hp1zBaypDXIaQShjzDoet3W8uQ+96p/UGejmfao7GU4ZvYgor/swj/U65AJmxlyJOuiWSMaxo72cuQ57UT7mfAGeqfPLCVIdeZKJ7U9LmO1T+iZitDXqKO4laB61h9t9RahtwxTdg9Pod4pf0kWxmu1Ax5OjgjHa6CrQz55kRyDrmUrrSfZCvDjDn8/6zDV9KlcWvxQvZworaHL+TTZAzjFf3SxL+/fGzxP4gPXy/GT+rMl8nThFn+5+vn2l4vX5ok8vo579fft3iZvSeepklv5PP9Q816IVsZutw5SxdjvMgesFht6T3g3mvs48+zCy5epBaDq1JF2deL1NN0sxfbq9VEKVjw6ELnNMkNVjIUkqg6mfYStYnH7IIhqYX+6fpS7tEoLcJr1Qgrw1yxEP/dOu8WX4bq4wa11eo/jyE/mpZxurCu8xZPZMhLvjIcs7rOzDyPobgPgmUc+RDnnrTshYUMeXyfedRenF3TSu1byJAnDDOvU6p4/vDpDP3C84dyoercXmQfQ37YIid4qHYO+OkMNSZIiKnGzS32MRyIRZaT1a50Hv/ZDPnlSLkRbpk7FWxhKG7WURy1kChzL4YtDMVdK/mnDUrcbWILQx44FBTMiPtpindoLGO4E4FTQWikf8eQZQz5RVGFSfsj0fwUljEU10Nm3sfFIe/6KnJO7WI44ee0kwUKafDjbYWTaBVDOYXF7e6E+1q0Eq1iKK5ry71C6Q5xGyjKv7nDJobi8h1HlUVMQt59ma+VbGIork0car1bXH4Jch0bixhOuS3UmsLoHbS5mVN7GIosqdYqvEHeI5x3L689DOV4dXcGI3dB52wIW8NQ3lmuERHdcdS5z9sahkLNAIN7cbh3mncnuy0MmyWuV7866lJOMzMCgiHPeNTJkCuA4nsTZacRZnLz1tuCW4xsoyjvvkygBoYpZDMUMmpwVOSGQPa3yDIxkiH8i1oZJp6ZybAvbvnTvkjgjqOwMVmTb8Ucyh4lyLjRs+wzk9HXzAaGss9MYbCXRqRXkPoKvkyGpuISgSlD2RfOsAfLNyL9npSuwjR9z+V9Ds3fxeGzjGeq74KW/Z5QqSvwJvk9u4JhxmD0vF81vjJu51Xe5y37wuFyDWAD+UGVmzkbprgLGZJKjYh9oJJ9T3knuyitMCioTEB26FT3zmudWAqeXhFAJtw2SD2TnlQJFallDG19FNLY2Nf/8G0mJAhU6LZqcQ9L2aUYVxlaRBIs60MqewJDWKk9t629ZPeRXrLlO6J8w85+wD3ZGqJq90k7ezpHCKLiDHAhon257RDUvSRIavnoJ2mErVA30cbjNTWzn0hXijzfaESbx5dqsKrCUlJ0us/tDOx2pURlBD1lMJpJih5+Zm/gMNLaFBdu4hpg1JUUYdkOyjVgF+mfhZeVLH0So2XE52cV/MBKaEbCR6c+Eb0jolEb4FTr59PE6BRpAfUIlRfRYQ0MzVvoVkULRqJjsHrEK9qRJApkpTu2l8R7tEEYrZJHyEFT+qhXMen+pE4NZ9GsENM+rGyK8zDyHSGrwSXURDM6gXD4QGXeinXaJuNy/cJNMRhHJxA3Hio87jL6Msjaj1eqo3asRR/YPvqVvehibDj5e/01YBrPvv2ELZ7Hk4hg9kjDkWiDiEHprJoJgq/YWyGdPGo5Dr7iXU41OpLWhJhqu3V33D6C4+AUb0fq0VKp+3LozOKbFh79qluD75aJNsPKJpIPxCWR0oeoMa0vcnTXEMTEpIHN9werwj+h+BggoX/qUTqtfbJ/NWQ6rZ1rxxwm99cwgpeqohRe0u0hH6uv87BO9QKEDlsey5MMNkvmwMQzHUWX0x/DqJ/ud3iV1llzYK7WR4PmTNVCPqMN748h6A/TO37QQWS1Mcm2dz5WBKVm78pv2C/fH6suBD1V38oGJohNDruwaAJG4a45YUjZedah/edm9jiCQ0Zv1VufX9BdvE/nHT85VNfvzKfvi+6t47P6j0v033sgNmOU1f73u8UqooyB8XKyXe1X28lyDBijKLPd6k0E6OyJ+kWJ3VahJhJcIfQ87HmRWqeMHxK0f5Z9yIN/aVC1wBkBErbc2LH8FOgcxtVI3kzN5ZlJdQ2El652x/EEO0xY13Z6fxGc9w1qxvLKjo7bc4t0ZyHCTdtjyp7NSXg3ywl755+NjeqBO9j0T5ghQLCXUp9XvYoJQAyf+puBtYpFC8Fgt+4vllcD/rfv+Hfn8auLsFz017vBvySXhRi5QeD7oe8HgftcZ/oXv/jFL35hiP8Ak60IXR0I3/gAAAAASUVORK5CYII=;base64,iVBORw0KGgoAAAANSUhEUgAAAOEAAADhCAMAAAAJbSJIAAAA7VBMVEX1hTb///+dUCX1gjD1hDP7y6z1fyf1gCr4pGn1hDH7yKj+8er959n2j0T2k1D1gS37z7P6vpn0fB3/9/H5tpH96uH3om794c2bTB3//Pny6uaZTSSaSRikXDL71LzXvrLkezOZRhH1ij32iz/vgTWWQQDdeDTPby/3pXP2llb82sX5tIn4rXz6v5v0eRT3nGDr3dWqWCi1Xyrm0sfbw7e7iXHIai3HoZG0fGCtcFGkWzH2jT/3oGT4sIX0dQDlw7LacCTCYh+zWyDKdkS+ckazb0mkY0GrdF20gWrCloC4gWPQsqPFnIfMqZq7ZTD140o2AAARw0lEQVR4nO2daVfjuBKGvQibrE5ishiH7AlkIwsQIB3uMvcO0zTd/P+fc2VnsyXZlm1Z7nPPvB/m9GEM5KFKVaXSYkHkJMPQnTIMXr9YSPw36Pl6q3RRnr5d7s66fJuWL0qtel5P/PcnSpibzGe1RbEvqIqqabJTmga/JvSLi9psPqkm+SESItSr+fJOrUAwWQZA8BIAkFVVKpVFuV7NJfNRkiDMt+a1fkWVPcFwyarS25Vb+QQ+DXPCXLZWFFTZ226e9syooFgrM4dkSqjny4V7JQLdiVJWK9+mdabhhyFhPnunqNHpTpSqejmfsPtYzAhbdwUtzMjzk6z2axesEiYTQiOfVRQtvvnOArKiXLFJlgwIjfr0m8KQ7ii1N5swMGR8wnqtz2D0kQS03qKUNqE+uazEiJ2BjHKl2Irpq/EI67OMlhjeXrKya8Xy1TiE1VkvaT6bUajVUyHMldmGTz/Gylv0Uicy4cVY5YNnSytko7pqRMLqXYZVeqcT0BYRXTUSoT7XeAxAt+TKNNL8Kgph/k7hNADdUhctPoTZfiYNPqiMMOVAWK2lY0BbQBmHHo1hCSdj/iPQKRhUEyU05j2+IRQX0KbhyrhQhLmUQoxbyiJU+g9DmN8lMUkKL60YpgUQgnBSSNtDj5KFEJMqesKL38FDDwKVKXURR0toZDO/DyAUfbyhJDSueM0jaKVdUlqRjlCfVtImwqTs6JY7qAj1Gc+ZEq20BRUiDaFxmW4d4yW5SDPZoCDUL3+PNIhLK1JYMZjQmP6eFrQkL4KtGEhoTLnneVkN1PEzabvAiBpIeMU9isq1q0DVjrlLuQzKi0GEJf5pUKEoyc4fS74KsGIAYSuFSka5CCa8OLcZ1HkcwnpCKxIsCYWKv819CavjNGYTYQlB37ez4Ueo36WSJ8ISwszvNyX2I5ymU6uFJhTUnU9A9SEspVSMhicUlHIUwnwhpflSBEIAvKONJ6G+S6tYi0DoNxQ9CcupVaNRCOGEOCxhPb0pbyRCQfHqFHsQ5orp9dWiEYKeR1b0ICyntfgCg0YlEiEs2Mkpg0w4SamxBjStV1xQ9HsJhF5+SiTU0+j9Ak0Rxm/ZCVWXkEQIVOKMn0iY5dy2ALKmVHqzVr5K2+clEQraHS1hvs/RR4GsCoXxrBRuJzSRUCDmfQKhMeOWCmVVKdTmpXrofRZkQmLbhkBY5xVHlcqiPKlG2tRFJiQGGwIhr1SYCbuaG0woKLgRccISr2pGe2NPqOJbGTBCY8EtU6jRt3J5EYIC9jMxwiy/akbeMScU1Dc0aqGEOa6tmSg7gPwJQQ81IkrY4pns5buou2M9CQV15k9ofONakCpRjehNKNwjtQNCWOJarwEtoJsbhVBDwilCuOM4CoFSiLy/2YcQIEtubsIWPz5B7nnsp8hHnD0dpbkrCReh8cavOaNceszJjRpFreNHKI9dhY2LsMptUqEpZa8wWo44xz9LdTmBi3DOKc4A7c5zstSqROvTOCSPPQk5pQqt6L0tPV8AsQmFivPv5yTk00EEFZ+NMDosqWhWSP0JVWeT30nIZalJG6NZXs+fLWrtz1Xn1UCVfb1NHjsGuYMwV0zeSYGGbbjP1zKnyLBvEKmVQPkvGoGeI9Y4CJNfsgdKHztvly1ocuHw70mP0UdwuumZMPlkKPfLKF/9m7WnU903yfLMurTAsVvqTFhNejVN2aHFSu5KOFSJVnDRGbZPlDqBsJ5sMtQqczTHT8bHLZ3WDjWD5ZKzw03PhIn2EEHmDp2ZVmeVs820scG03AAZAiE2yoFCJZq/vFZAj2YbpYLrG9U3thXjOemfCPNougfjVolG2X7Qb5OVS8yANQEBYrwH+dw5PRHOUVvInquqbulBESozRosUfV5JPG7XMMI7NJDREub8CYGK5fjJLvldHmB8dNMjYW6Mfk4mhEAtoDneKPM4PXwua46EeDnBglDrz1G+SYbPuQ31OBCPhBfY35UBoVpDc3x1ymt1WTu2hg+ExhU2NGITygqW40sFfgt3x5W2A2Fuh024YhLCHI9OA/M7ngeLMlUXIaEojUeofSuhIzDLz4CWlImLMI+XTHEIZfUSNWD9kvO5omNpeiAk7E2IQaji8/hpJcTEAQSK4occV7YOhIQzFZEJQWaKGrC1COOg/UKgAitF+DEEFyGW7yMTAg3bfpWbCWFmfmpWzwVIz1JY8d5FSMhS0QgJOb70LVyRFr/Xtlcl7yA07vEHohAC/BRyfhY2RcTvlx5+TstBWCV0SiMQakIWzfFzvxQBiOGVGWHWQTghzK9DExLm8fWFnwGVyduYcPcgK8LDQuKe8IIBodpHc7x+1feNMDAUVFuXGnpqhRnhnYOwTIgF4Qhl7Q6dBtbHASdu7q2/iFEt993eyorwMAneE5KOGIYiVLCLVVyNJh9CS5O3ouO+PmaEC/1MiE3wwxHK+Dy+RHHJ0v3Zq/Ot2unOxUQIa7EI1TE6DdQvAUWOv3eOW8tbM7a3siIE+xMKB0LCN1ATFtG9ZLlspRJ8DFRV/4H2+FvTsaaxIyzUT4Q6aS8bLaGB7SRrlel0hf+wamtWuU+AEG9DhSAkMEf9Rvubc2WKbURhCZeklcPohBxEQ3jYNmcTPpCm6X8TpqqwhO0B4X//TZiq/ib8m/D/hHDwT+vR/2NC4CD8/NdvRJibUBxSoCN8tB7dE/47Rj400NaMcZGlFOGn1ecLZpW304ZxCHNYgzs3y6gZCt2jfcdcaSxoMitCYdA+E/4Rh/DbPdbjnoxpWohuwtxklrHfq5AI4SoOYQFoRdThcmWK1wg4CfNXi8yhW8OMcOQgbMSZAcOiVsY3/eYXgau9R0JDz1reefwys3H4n6WDMJ4N4dNaD933a2SLAa2aPSH0TsH11g9WhJn/OgibsQkFoMzwbUH+7TZr6aReXmhI55sZ4Z9nwkeJkPJD97xlATtA0Sr6LYtWchcLQcNvR2BF+O4kHDEghGbcoQtr+tTvWl4YOwlfTYZww2Z1Te6jZjToEkcShOAv8UT4sP1itH4I1CJ2FKbcD7dDgRXh6PuZcPm+ZrYGLGtv2F71Wagrw9Ss+yV0BBkUa8Bg4yJc4aEm8jo+voahl/ohloHBuBaoMcWP+cNBKH5v4KEm+l4MWcOu+svNBPrzxUAOFIVPoIS3DAmtPcHoWqLY4rDl0qVO8yNBQgFkZmgZlyuH2VITX6Pms4PwqbnGBmLMfW2wjENdNX/J8dobcNt9dBA+N/FQE3dvIlBqaBlnZAv8XHUz1B2E7a7ZQZ+Iv79UK2AHmfm9/GOwGooOQnFoYgORwQ5aUv5vFfm4asdECCVsEsxkn7cslNH8nyuH2gMWVSPzxkXYkCQ0X7HZqw9U/B0/9WLyrgrWjR8uwh8NbCAyOo0gyCpWxhnZkKVqeAFzuHQRwlCDFt/yopqn0STwzJtSxE4d1mfoxJGx53bMrptwOZTW6EO9Ip2Cf50szNDcqJfce6FUtrkSfJnbaxfh9VbCZ8HBW3Vp9+sCTcDKON2561QeixdMx+a68aS7CV8aeL5gKaBi2/rEyeK4nc464cL0irGR1P0UXYTir66JF25MpRYxM+auDlsTVas1oDMci7dms40QtpsSXtawFVDGmBnzO2v4gf1NFuxuwhuspPclQvhwI5m3SWcpGd9hq1unMCqHKXMJPZQYVQOz8SIihOJfhKTPXEDG39VUvbxfHP89tQemFnxwNWDIbszmE0b4kbybWpIVrIwTW+evWKcWtLfAw6utmf+ZR0kaPmKED0MJS/qJCN/J6DQo7b0Yvp90ZErD06Pnk85DSVp1OBAKcu/K+4qvFoh/twlM940bAuGPhpRsSjx/AjXjfUHUhRKbcCRJ3ZOTOgihm0oJp0QHI7aoetIs9u7LW1NqLk+PngmXTYlLrNlLLnqNthy23BqSECbDxvfzOHDc/AGjKT4PTkwAP6R/UD3m/lJowlPJ5iIU2w2eRrSOSKEXLRz/1rEIM5Ik3TwQCa/fG5wSxkEgUwt3ezAVIUwVjb8cjzpvUXqCbkpaSUwOEb9tND7hGjpp2/Gok9CKpuYXR0KNsJc9JiGAqcKR7hFCK+lLJqeEIQS+ICYS4WAtSeeaFCP87EJEwlJiQopxkbDnLbswkErdpfNRF+G1JPEMp5UE7hGGAM5kiBKKz9CIJtaSSkhxNj96ENombH66HnUTPmwtI/KpToVMKeodu56EnRVMFa/ufIrc0PoCs75EWPJORNaF8xEd1YNwY43CZ/ejCOGDHU4Je0+SEJBVUFzMopiSTNgxrVSBlEToXdCvDa7Bxn7xw31vVsrnQp2WIhOu4Gfv/kIeRQkfrISRdGMRw9SUzGJ6MaF5rag3oR1mGjfXAYSGXbpxrd32ktVMv1jLUr4IgkTYsUzYRE2I3zr/KNnqcEe0VhFktVLZzSnKcRLh2jLhO2pCwrsR7HBqrlN7WZAcbY5v+6jU/Yk9ihMuh3Zlk3h72FPR+jQD2/WauJMT3uDx0U3NT21FIhysbRM+4o8SCK2ZMDTiKhU8ISKhleul5ndCaiW9K+iXHU65TvedivJ2QDvXSxLBhERCw077ksk/ZUQl3A/C7gfpUeIbrfbBhlMLnAHhfhBKTSxTeBIego3JqwSPS2gPQmKY8STcBxt+U8VYhPtMKDWfyOWQx9sBD5WNufn9Ce3eE6xmtkvyox6E4tM+KUqcZsMxCO1yFE6aPj0e9SIU936aRm0TjvAA2H3yetST8EE6aMQbMdRtZoOVPQgbr8Q46kt4yPspIGpX9UBdHT7TIU+Qc30Q4WkoSh3eiMFvDtDcgENsVkhFeH2zH4ow86c2zwjQAbDrkSiCCOFQ/L0Rjxb0GYQBhOLDgdBccQ83FDoB3nhkQgpC8XmYWkQN1CnIDB98GfwJ90uKUjq9KX91VgdA12JheEL9+8FRufX66QROgI1fAd25AMJzQE2lgPPSoRa1LPgjqP0YRCjqJ0TefWIf3R4BGy+B/dVAwuNMyg6pnbTRbA025hHwKXjNI5hQXEpnxN8gpIJTECW08KMROhDTmTC61ZGOgM0bmlUrGkJx+X5GXKdb3ww2x08CxyCFBSkJnRHVXKXXDbc89ATYfaFbd6QjFPX3U+o3za/UYurtyUOlZnAUDUVoHciQzmZMpcABnVOIgYA/aVeOaQlF/eVUo0JtUjDj7eoMOPxJvWRMTSgaz42Gg5G3GQcOvobPlD4GobU904ForjnmRtDZnPmk5rv/bCI6IZwSNx2I0FV5MTodVOq++s4HYxGK16fezZExeTogjFamw0Obz+HuuA1HaHXgGi7G28TtOHJEUOihW6/OLytC8fHG4alW5ki0jsuM1pITMKSHRiIUjRdXTDUT9NWByz+tGEpcIWRNKIqfbjNa4zGB3AE6t24+aMAwMTQOoXj9OmwgjDB3MB2QoPO1cuFJjeEHVaXNhBCOxveu5GaEhuww8lYwGIy2JsLXDD8CYxGK189NtxktyNXtKPYZSQC980sykZ/dvAlqODEnhOkfdVXbkOtNJ467gsHtGhl9toM+RXLQmIQw4rxidrQgpa/RYBDFloPOZitheDCCRnXQ2ISi3r7pop/HpjTXm9vRgNqY8MHO6PYLHXt7vu5riDKbNSEcjp/dLmbHo8Ouv2DFE4AJMrAq23ytVwTj2f65bUd3UBaEUD/fcV89mhJqu9qMOp3OwNbJH23BL2++tvvniD+hKb2GrdGSIBSv269kOzpJt9vVer2+3WsD/7nao/l8X7P79BjrRRLMCCHjw8vQw5CoSU8KeLrRHX4so59WcIgJIZT+8doIhKRVoyu9fDIwny1WhLAibz/fYBkyiprD11/xwqdL7AhFy1v/HAa7q6/1msPuxzJm9HSLKaGlx6dXqdsMZiHRNbcvH1GmD75iTgjd9fHzYzv0Da8EvGH35mebOZ6YCCGUcX39+GdzOOw2Gw1/Uvj/m93hsPHj4fqaVWxxKxnCgx5+PX1/fYehsWuhYmDwi9L7y/enzzhlZ6ASJbSkLx/b7c/2x8vLzfYGSrL+s7358ePj87PdflwmYziHEic8yND1a6d0PXG0g/4HF2vIvOFzVQ8AAAAASUVORK5CYII=;" parent="1" vertex="1">
          <mxGeometry x="431.5" y="-1182.5" width="72.5" height="72.5" as="geometry" />
        </mxCell>
        <mxCell id="ufO5z-Iy11hLr9e_9HTo-4" value="" style="shape=image;imageAspect=0;aspect=fixed;verticalLabelPosition=bottom;verticalAlign=top;image=data:image/png,iVBORw0KGgoAAAANSUhEUgAAAOEAAADhCAMAAAAJbSJIAAAAkFBMVEX///9pPMVjMsNfKsKolNvRyOtnOcReKMJlNcSXfdXz8Pvc1PB0S8lmN8RiMMNdJsFaIMGagdadhdfq5fbZ0O/u6vhYHMD39fzj3PNuQ8d8WMy2peFxR8jDteaGZs92T8qMbtGii9mxn9+7q+ODYc7MwOq5qOLQxeuRdNOmkduyoN9/XM17VcvBsuWPctKsmd1rpS5kAAAPdElEQVR4nO1d6WLiKhSuQQGjATRG425dWpc6vv/bXe0IZCEJJLEy3n4/Z2zCFw5n48B5e/vFL37xi1/8Qxi5QeD7oe8HgTt69mDqhD/YrfuLJSQAIERvQAgAApeL/no38P9pru5g05sQigjBHoSNOCD0MCGIkklvM3CfPdQSCOf9BkMEJ4mlATFBrNGfh88esgHcXbtBdcjFaNJGe/dPzGV4WTJgxE6yBGx5sXwqw+aMkjLsBEtCZ/aSDKYz6lShdyfp0Nk0eDYZBXaLwtmDV/3pYe+qV4t+SOhi92xCCWzGyMsa7l+rwBgYLyfb1X61nSzHgLG7Fcn4Kw/AtT2mMjgA9fRBhyAw2/aP846fVJOu35kfe9sxzTIp14ns+U/hk0TQo45igFf1zyaHXadoItzBuddgQLmAHbZ/PsegN0zzgw4iq01H/ylu6zKhKhuDh+3nKp3Re3r+rtLVbQ7M15C762OUlnZM35+4Hj9S/CBhk2l5yQrXS5aSVwd91DhmE3yOQfJ7o0ZlSxY2GwgnngvGn7WM2Az+gsY/9lU694NaHt3aJ00rpIsfX45rGv/QEDSO9fnN7gWDOEdMj7U9XQedGYm936Nfdfsg8xmKcyQzA+VcFU0G4/y29YhnHJ/dOEfImg94iwrBV2wCIZ08gt8Nu3FcVsHXj6zGM4t5oKDbeuDL5jD2NT12fuDL7ujR6CsdsHnw+y5xlUZ7D35fsIx+U/gT/oa7j5klsnxoqqNFohL6U9qt1Yh+Vo88cFmch5GvCdnlcW9KIKa84fBhi/E9ugTJ7CfTKWHMANP3x7zlT8QNhexBL8lEPzqNYP+IV0wiXxF7jzQRanziiA4gk/pf8OVEn/+MkM2N6nHnq+anj7oRq8QONT9dF1FbjLu1fuXRTBKE9HmJvk1kMeJZjRSjM+jhZ6akBxFHtc5ZXEqCTve5uyd+Q44FL+t66kQqGbKo66FlMYqoPOdUzzO3EYIPsUOG2EqV6mzreGBbPhC063hgZazkiEgNI2oiSfDRkYsu2tK7QpXj/jm1j2BMrui82qMGQ7vWIMcfSXFYKYfiyq0EsqppcPVgIShCXMV+fQnjU4/WqhEnMTRcwQt/Fx/K69Y3tnowGotQg5SO5HZMSIJjXx1IIDP/ZT1lV6pRamN5RCcyvnITcBJiwCpGEyO/s9tc3tt/VotvrPa9w+Vj3kptfZthLmTMK+W+XYRZJRXiwXB3WHiAIkAcB2PvLzDGjkMIoACMF+/l672kngDrEkMTH6isrhq1LltCiZNZb/G9wj2HULy9lDNqSylm5p9pBsUYyoRh4fE0BE5WBUoSnoPY6my+d+yKDWM4M/3btRAAZp506tyKv3TZcWBCuwfTFPOnkDRiKKe+0FPGxsY/jssWf0GHwovZTPbETFCzPxR61HT2P4uLv/JJEnoy0txj/jYzfToXIZPZCv5oZBZ/6cMDzkXfjHSEnCKTKEOU1hGD8Mu9kKzpg9ghf6u8Afou9L5VejvZVW0mBV8HLqcQ6o9VqBk41v6b0QURxVghJoCRr/bh/DnohEHg3gr2w87gc3c+tLcNRoHammDW1uUop0Nb2Uh3jWmbqSlQ8MMAzfbT3Dr1cNdc3EqmVRx7erLaEsPVdt56PPXk6GZBdo0UP49Q0NMs3A7mbaBQUI6mp7Ln38fRzEJIS4H0bL1/ShQP3TTi5GjmZYTTSZokgTrFUFLmNC1Gm38Solekc6QJ/YnReF2mti3YdJOFcpCuNMTgwiUIawmdz1MzemomnMWr267T1y6/+R2+J4txsU6qSSiboc6XFVNIdSRkGhdQCLyKxV+jczdhU9GicLHM+VfWmUSxCj2NHbrRFsX5jSvm9r7RmsTlHpPCby08G42V+M5XAi22FB0c0/K5/EZ+a7M+9P9sl6dV/7DeDPKGMpjECr4gK6ra2fEv7RS60SMxhcXJtY9YeZtDskok/N1hO766M4TcgmB4DYC/w186W10+s8q4PuPLe1hU7rXkQynU/1OuloqncM0iQ/Ayioc66y3I8luu0S+geLVRz+bGie6rF5UJi0kk04JfNu5DgYV7c/4wMlg0UQzTnbdhcZz4HReqYtBRpPzCKfSPecQOG/m/E58CFYYwU+nGYEV1W3A+Md3za/A6l20FyVDUJhQzFOq0YOQLT+9LXNEUQgROqVXSWpkG+Rh5h7Qc9B1dhm98IXi5m7gB1zOF0hxhiJLeo3tMF6NrADpskZzIAdBmKBwbmqeVRNhEiz1SzpAkTESQckv04aFuXMZa+gxdrvhynU1uOHVcA84QxL570GOqM0J/04b3KPga/5KsJCNEMaNqwPBtdZebPG9T5MmRRlyoYjg6qM5A3U76gvGivz63OqHvXgPg1nn9vh0D5aGuq+MnM9AmDD+5lqTZfvHBKf4KeQxVYTAGbNyfd1TOqtvZ7CFLR78QCG/DhKHQNTk/5sZQK2xKM1yh5Fgd5BUdX/bPKyell4TTb8SwWThBQkiZTgySYviRIIgBeteKo0atPYsrJ+FdGjEUGxGZW2XiG2jV/aUYrmIz4dA/JoeV5l/RinWh6YwYvnWLxHRmIqRphl05DZCApunRiE5bauGSDC8FYhqISdZKQWQzhASWOqMQ9FOBrBnDkK+TjGU2J/lfIIFMhtArfV6QEyrJUKpKdSDHk3KO3oZoJkNQ/uhOB1VjyMN3rK794Z4y0ttOy2ZYPlFTleHn/efqBH/IbQXQy5LayHDEF7LSXpzvyzA/+pCwkeHb1stZiL37MtQInL5hJUMeHGFVfp9nVZFmPtdKhoOchSjCK6ZZmGAlw5FgkR7E4P5wqFvBZiVDEeEq4r/NXYKLU6p32MmQJ3ZI2qvqc0Wjm5e3kyG3CLif+q+ToaKxlCFfbIrKDB67IN3x2clQ7Jbi5P/wwEK/fsZOhkLVpJQpf7auR2MtQ57TTq22HX+UdpGXpQx5eAGSyf3jXQfp+mzWMuTbKalERSb1TFjKMFMYV1x8tWtELGUoFMoq8R9f9+Hp1zBaypDXIaQShjzDoet3W8uQ+96p/UGejmfao7GU4ZvYgor/swj/U65AJmxlyJOuiWSMaxo72cuQ57UT7mfAGeqfPLCVIdeZKJ7U9LmO1T+iZitDXqKO4laB61h9t9RahtwxTdg9Pod4pf0kWxmu1Ax5OjgjHa6CrQz55kRyDrmUrrSfZCvDjDn8/6zDV9KlcWvxQvZworaHL+TTZAzjFf3SxL+/fGzxP4gPXy/GT+rMl8nThFn+5+vn2l4vX5ok8vo579fft3iZvSeepklv5PP9Q816IVsZutw5SxdjvMgesFht6T3g3mvs48+zCy5epBaDq1JF2deL1NN0sxfbq9VEKVjw6ELnNMkNVjIUkqg6mfYStYnH7IIhqYX+6fpS7tEoLcJr1Qgrw1yxEP/dOu8WX4bq4wa11eo/jyE/mpZxurCu8xZPZMhLvjIcs7rOzDyPobgPgmUc+RDnnrTshYUMeXyfedRenF3TSu1byJAnDDOvU6p4/vDpDP3C84dyoercXmQfQ37YIid4qHYO+OkMNSZIiKnGzS32MRyIRZaT1a50Hv/ZDPnlSLkRbpk7FWxhKG7WURy1kChzL4YtDMVdK/mnDUrcbWILQx44FBTMiPtpindoLGO4E4FTQWikf8eQZQz5RVGFSfsj0fwUljEU10Nm3sfFIe/6KnJO7WI44ee0kwUKafDjbYWTaBVDOYXF7e6E+1q0Eq1iKK5ry71C6Q5xGyjKv7nDJobi8h1HlUVMQt59ma+VbGIork0car1bXH4Jch0bixhOuS3UmsLoHbS5mVN7GIosqdYqvEHeI5x3L689DOV4dXcGI3dB52wIW8NQ3lmuERHdcdS5z9sahkLNAIN7cbh3mncnuy0MmyWuV7866lJOMzMCgiHPeNTJkCuA4nsTZacRZnLz1tuCW4xsoyjvvkygBoYpZDMUMmpwVOSGQPa3yDIxkiH8i1oZJp6ZybAvbvnTvkjgjqOwMVmTb8Ucyh4lyLjRs+wzk9HXzAaGss9MYbCXRqRXkPoKvkyGpuISgSlD2RfOsAfLNyL9npSuwjR9z+V9Ds3fxeGzjGeq74KW/Z5QqSvwJvk9u4JhxmD0vF81vjJu51Xe5y37wuFyDWAD+UGVmzkbprgLGZJKjYh9oJJ9T3knuyitMCioTEB26FT3zmudWAqeXhFAJtw2SD2TnlQJFallDG19FNLY2Nf/8G0mJAhU6LZqcQ9L2aUYVxlaRBIs60MqewJDWKk9t629ZPeRXrLlO6J8w85+wD3ZGqJq90k7ezpHCKLiDHAhon257RDUvSRIavnoJ2mErVA30cbjNTWzn0hXijzfaESbx5dqsKrCUlJ0us/tDOx2pURlBD1lMJpJih5+Zm/gMNLaFBdu4hpg1JUUYdkOyjVgF+mfhZeVLH0So2XE52cV/MBKaEbCR6c+Eb0jolEb4FTr59PE6BRpAfUIlRfRYQ0MzVvoVkULRqJjsHrEK9qRJApkpTu2l8R7tEEYrZJHyEFT+qhXMen+pE4NZ9GsENM+rGyK8zDyHSGrwSXURDM6gXD4QGXeinXaJuNy/cJNMRhHJxA3Hio87jL6Msjaj1eqo3asRR/YPvqVvehibDj5e/01YBrPvv2ELZ7Hk4hg9kjDkWiDiEHprJoJgq/YWyGdPGo5Dr7iXU41OpLWhJhqu3V33D6C4+AUb0fq0VKp+3LozOKbFh79qluD75aJNsPKJpIPxCWR0oeoMa0vcnTXEMTEpIHN9werwj+h+BggoX/qUTqtfbJ/NWQ6rZ1rxxwm99cwgpeqohRe0u0hH6uv87BO9QKEDlsey5MMNkvmwMQzHUWX0x/DqJ/ud3iV1llzYK7WR4PmTNVCPqMN748h6A/TO37QQWS1Mcm2dz5WBKVm78pv2C/fH6suBD1V38oGJohNDruwaAJG4a45YUjZedah/edm9jiCQ0Zv1VufX9BdvE/nHT85VNfvzKfvi+6t47P6j0v033sgNmOU1f73u8UqooyB8XKyXe1X28lyDBijKLPd6k0E6OyJ+kWJ3VahJhJcIfQ87HmRWqeMHxK0f5Z9yIN/aVC1wBkBErbc2LH8FOgcxtVI3kzN5ZlJdQ2El652x/EEO0xY13Z6fxGc9w1qxvLKjo7bc4t0ZyHCTdtjyp7NSXg3ywl755+NjeqBO9j0T5ghQLCXUp9XvYoJQAyf+puBtYpFC8Fgt+4vllcD/rfv+Hfn8auLsFz017vBvySXhRi5QeD7oe8HgftcZ/oXv/jFL35hiP8Ak60IXR0I3/gAAAAASUVORK5CYII=;" parent="1" vertex="1">
          <mxGeometry x="440" y="-653.25" width="61.5" height="61.5" as="geometry" />
        </mxCell>
        <mxCell id="ufO5z-Iy11hLr9e_9HTo-6" value="" style="shape=image;imageAspect=0;aspect=fixed;verticalLabelPosition=bottom;verticalAlign=top;image=data:image/png,iVBORw0KGgoAAAANSUhEUgAAAOEAAADhCAMAAAAJbSJIAAAA7VBMVEX1hTb///+dUCX1gjD1hDP7y6z1fyf1gCr4pGn1hDH7yKj+8er959n2j0T2k1D1gS37z7P6vpn0fB3/9/H5tpH96uH3om794c2bTB3//Pny6uaZTSSaSRikXDL71LzXvrLkezOZRhH1ij32iz/vgTWWQQDdeDTPby/3pXP2llb82sX5tIn4rXz6v5v0eRT3nGDr3dWqWCi1Xyrm0sfbw7e7iXHIai3HoZG0fGCtcFGkWzH2jT/3oGT4sIX0dQDlw7LacCTCYh+zWyDKdkS+ckazb0mkY0GrdF20gWrCloC4gWPQsqPFnIfMqZq7ZTD140o2AAARw0lEQVR4nO2daVfjuBKGvQibrE5ishiH7AlkIwsQIB3uMvcO0zTd/P+fc2VnsyXZlm1Z7nPPvB/m9GEM5KFKVaXSYkHkJMPQnTIMXr9YSPw36Pl6q3RRnr5d7s66fJuWL0qtel5P/PcnSpibzGe1RbEvqIqqabJTmga/JvSLi9psPqkm+SESItSr+fJOrUAwWQZA8BIAkFVVKpVFuV7NJfNRkiDMt+a1fkWVPcFwyarS25Vb+QQ+DXPCXLZWFFTZ226e9syooFgrM4dkSqjny4V7JQLdiVJWK9+mdabhhyFhPnunqNHpTpSqejmfsPtYzAhbdwUtzMjzk6z2axesEiYTQiOfVRQtvvnOArKiXLFJlgwIjfr0m8KQ7ii1N5swMGR8wnqtz2D0kQS03qKUNqE+uazEiJ2BjHKl2Irpq/EI67OMlhjeXrKya8Xy1TiE1VkvaT6bUajVUyHMldmGTz/Gylv0Uicy4cVY5YNnSytko7pqRMLqXYZVeqcT0BYRXTUSoT7XeAxAt+TKNNL8Kgph/k7hNADdUhctPoTZfiYNPqiMMOVAWK2lY0BbQBmHHo1hCSdj/iPQKRhUEyU05j2+IRQX0KbhyrhQhLmUQoxbyiJU+g9DmN8lMUkKL60YpgUQgnBSSNtDj5KFEJMqesKL38FDDwKVKXURR0toZDO/DyAUfbyhJDSueM0jaKVdUlqRjlCfVtImwqTs6JY7qAj1Gc+ZEq20BRUiDaFxmW4d4yW5SDPZoCDUL3+PNIhLK1JYMZjQmP6eFrQkL4KtGEhoTLnneVkN1PEzabvAiBpIeMU9isq1q0DVjrlLuQzKi0GEJf5pUKEoyc4fS74KsGIAYSuFSka5CCa8OLcZ1HkcwnpCKxIsCYWKv819CavjNGYTYQlB37ez4Ueo36WSJ8ISwszvNyX2I5ymU6uFJhTUnU9A9SEspVSMhicUlHIUwnwhpflSBEIAvKONJ6G+S6tYi0DoNxQ9CcupVaNRCOGEOCxhPb0pbyRCQfHqFHsQ5orp9dWiEYKeR1b0ICyntfgCg0YlEiEs2Mkpg0w4SamxBjStV1xQ9HsJhF5+SiTU0+j9Ak0Rxm/ZCVWXkEQIVOKMn0iY5dy2ALKmVHqzVr5K2+clEQraHS1hvs/RR4GsCoXxrBRuJzSRUCDmfQKhMeOWCmVVKdTmpXrofRZkQmLbhkBY5xVHlcqiPKlG2tRFJiQGGwIhr1SYCbuaG0woKLgRccISr2pGe2NPqOJbGTBCY8EtU6jRt3J5EYIC9jMxwiy/akbeMScU1Dc0aqGEOa6tmSg7gPwJQQ81IkrY4pns5buou2M9CQV15k9ofONakCpRjehNKNwjtQNCWOJarwEtoJsbhVBDwilCuOM4CoFSiLy/2YcQIEtubsIWPz5B7nnsp8hHnD0dpbkrCReh8cavOaNceszJjRpFreNHKI9dhY2LsMptUqEpZa8wWo44xz9LdTmBi3DOKc4A7c5zstSqROvTOCSPPQk5pQqt6L0tPV8AsQmFivPv5yTk00EEFZ+NMDosqWhWSP0JVWeT30nIZalJG6NZXs+fLWrtz1Xn1UCVfb1NHjsGuYMwV0zeSYGGbbjP1zKnyLBvEKmVQPkvGoGeI9Y4CJNfsgdKHztvly1ocuHw70mP0UdwuumZMPlkKPfLKF/9m7WnU903yfLMurTAsVvqTFhNejVN2aHFSu5KOFSJVnDRGbZPlDqBsJ5sMtQqczTHT8bHLZ3WDjWD5ZKzw03PhIn2EEHmDp2ZVmeVs820scG03AAZAiE2yoFCJZq/vFZAj2YbpYLrG9U3thXjOemfCPNougfjVolG2X7Qb5OVS8yANQEBYrwH+dw5PRHOUVvInquqbulBESozRosUfV5JPG7XMMI7NJDREub8CYGK5fjJLvldHmB8dNMjYW6Mfk4mhEAtoDneKPM4PXwua46EeDnBglDrz1G+SYbPuQ31OBCPhBfY35UBoVpDc3x1ymt1WTu2hg+ExhU2NGITygqW40sFfgt3x5W2A2Fuh024YhLCHI9OA/M7ngeLMlUXIaEojUeofSuhIzDLz4CWlImLMI+XTHEIZfUSNWD9kvO5omNpeiAk7E2IQaji8/hpJcTEAQSK4occV7YOhIQzFZEJQWaKGrC1COOg/UKgAitF+DEEFyGW7yMTAg3bfpWbCWFmfmpWzwVIz1JY8d5FSMhS0QgJOb70LVyRFr/Xtlcl7yA07vEHohAC/BRyfhY2RcTvlx5+TstBWCV0SiMQakIWzfFzvxQBiOGVGWHWQTghzK9DExLm8fWFnwGVyduYcPcgK8LDQuKe8IIBodpHc7x+1feNMDAUVFuXGnpqhRnhnYOwTIgF4Qhl7Q6dBtbHASdu7q2/iFEt993eyorwMAneE5KOGIYiVLCLVVyNJh9CS5O3ouO+PmaEC/1MiE3wwxHK+Dy+RHHJ0v3Zq/Ot2unOxUQIa7EI1TE6DdQvAUWOv3eOW8tbM7a3siIE+xMKB0LCN1ATFtG9ZLlspRJ8DFRV/4H2+FvTsaaxIyzUT4Q6aS8bLaGB7SRrlel0hf+wamtWuU+AEG9DhSAkMEf9Rvubc2WKbURhCZeklcPohBxEQ3jYNmcTPpCm6X8TpqqwhO0B4X//TZiq/ib8m/D/hHDwT+vR/2NC4CD8/NdvRJibUBxSoCN8tB7dE/47Rj400NaMcZGlFOGn1ecLZpW304ZxCHNYgzs3y6gZCt2jfcdcaSxoMitCYdA+E/4Rh/DbPdbjnoxpWohuwtxklrHfq5AI4SoOYQFoRdThcmWK1wg4CfNXi8yhW8OMcOQgbMSZAcOiVsY3/eYXgau9R0JDz1reefwys3H4n6WDMJ4N4dNaD933a2SLAa2aPSH0TsH11g9WhJn/OgibsQkFoMzwbUH+7TZr6aReXmhI55sZ4Z9nwkeJkPJD97xlATtA0Sr6LYtWchcLQcNvR2BF+O4kHDEghGbcoQtr+tTvWl4YOwlfTYZww2Z1Te6jZjToEkcShOAv8UT4sP1itH4I1CJ2FKbcD7dDgRXh6PuZcPm+ZrYGLGtv2F71Wagrw9Ss+yV0BBkUa8Bg4yJc4aEm8jo+voahl/ohloHBuBaoMcWP+cNBKH5v4KEm+l4MWcOu+svNBPrzxUAOFIVPoIS3DAmtPcHoWqLY4rDl0qVO8yNBQgFkZmgZlyuH2VITX6Pms4PwqbnGBmLMfW2wjENdNX/J8dobcNt9dBA+N/FQE3dvIlBqaBlnZAv8XHUz1B2E7a7ZQZ+Iv79UK2AHmfm9/GOwGooOQnFoYgORwQ5aUv5vFfm4asdECCVsEsxkn7cslNH8nyuH2gMWVSPzxkXYkCQ0X7HZqw9U/B0/9WLyrgrWjR8uwh8NbCAyOo0gyCpWxhnZkKVqeAFzuHQRwlCDFt/yopqn0STwzJtSxE4d1mfoxJGx53bMrptwOZTW6EO9Ip2Cf50szNDcqJfce6FUtrkSfJnbaxfh9VbCZ8HBW3Vp9+sCTcDKON2561QeixdMx+a68aS7CV8aeL5gKaBi2/rEyeK4nc464cL0irGR1P0UXYTir66JF25MpRYxM+auDlsTVas1oDMci7dms40QtpsSXtawFVDGmBnzO2v4gf1NFuxuwhuspPclQvhwI5m3SWcpGd9hq1unMCqHKXMJPZQYVQOz8SIihOJfhKTPXEDG39VUvbxfHP89tQemFnxwNWDIbszmE0b4kbybWpIVrIwTW+evWKcWtLfAw6utmf+ZR0kaPmKED0MJS/qJCN/J6DQo7b0Yvp90ZErD06Pnk85DSVp1OBAKcu/K+4qvFoh/twlM940bAuGPhpRsSjx/AjXjfUHUhRKbcCRJ3ZOTOgihm0oJp0QHI7aoetIs9u7LW1NqLk+PngmXTYlLrNlLLnqNthy23BqSECbDxvfzOHDc/AGjKT4PTkwAP6R/UD3m/lJowlPJ5iIU2w2eRrSOSKEXLRz/1rEIM5Ik3TwQCa/fG5wSxkEgUwt3ezAVIUwVjb8cjzpvUXqCbkpaSUwOEb9tND7hGjpp2/Gok9CKpuYXR0KNsJc9JiGAqcKR7hFCK+lLJqeEIQS+ICYS4WAtSeeaFCP87EJEwlJiQopxkbDnLbswkErdpfNRF+G1JPEMp5UE7hGGAM5kiBKKz9CIJtaSSkhxNj96ENombH66HnUTPmwtI/KpToVMKeodu56EnRVMFa/ufIrc0PoCs75EWPJORNaF8xEd1YNwY43CZ/ejCOGDHU4Je0+SEJBVUFzMopiSTNgxrVSBlEToXdCvDa7Bxn7xw31vVsrnQp2WIhOu4Gfv/kIeRQkfrISRdGMRw9SUzGJ6MaF5rag3oR1mGjfXAYSGXbpxrd32ktVMv1jLUr4IgkTYsUzYRE2I3zr/KNnqcEe0VhFktVLZzSnKcRLh2jLhO2pCwrsR7HBqrlN7WZAcbY5v+6jU/Yk9ihMuh3Zlk3h72FPR+jQD2/WauJMT3uDx0U3NT21FIhysbRM+4o8SCK2ZMDTiKhU8ISKhleul5ndCaiW9K+iXHU65TvedivJ2QDvXSxLBhERCw077ksk/ZUQl3A/C7gfpUeIbrfbBhlMLnAHhfhBKTSxTeBIego3JqwSPS2gPQmKY8STcBxt+U8VYhPtMKDWfyOWQx9sBD5WNufn9Ce3eE6xmtkvyox6E4tM+KUqcZsMxCO1yFE6aPj0e9SIU936aRm0TjvAA2H3yetST8EE6aMQbMdRtZoOVPQgbr8Q46kt4yPspIGpX9UBdHT7TIU+Qc30Q4WkoSh3eiMFvDtDcgENsVkhFeH2zH4ow86c2zwjQAbDrkSiCCOFQ/L0Rjxb0GYQBhOLDgdBccQ83FDoB3nhkQgpC8XmYWkQN1CnIDB98GfwJ90uKUjq9KX91VgdA12JheEL9+8FRufX66QROgI1fAd25AMJzQE2lgPPSoRa1LPgjqP0YRCjqJ0TefWIf3R4BGy+B/dVAwuNMyg6pnbTRbA025hHwKXjNI5hQXEpnxN8gpIJTECW08KMROhDTmTC61ZGOgM0bmlUrGkJx+X5GXKdb3ww2x08CxyCFBSkJnRHVXKXXDbc89ATYfaFbd6QjFPX3U+o3za/UYurtyUOlZnAUDUVoHciQzmZMpcABnVOIgYA/aVeOaQlF/eVUo0JtUjDj7eoMOPxJvWRMTSgaz42Gg5G3GQcOvobPlD4GobU904ForjnmRtDZnPmk5rv/bCI6IZwSNx2I0FV5MTodVOq++s4HYxGK16fezZExeTogjFamw0Obz+HuuA1HaHXgGi7G28TtOHJEUOihW6/OLytC8fHG4alW5ki0jsuM1pITMKSHRiIUjRdXTDUT9NWByz+tGEpcIWRNKIqfbjNa4zGB3AE6t24+aMAwMTQOoXj9OmwgjDB3MB2QoPO1cuFJjeEHVaXNhBCOxveu5GaEhuww8lYwGIy2JsLXDD8CYxGK189NtxktyNXtKPYZSQC980sykZ/dvAlqODEnhOkfdVXbkOtNJ467gsHtGhl9toM+RXLQmIQw4rxidrQgpa/RYBDFloPOZitheDCCRnXQ2ISi3r7pop/HpjTXm9vRgNqY8MHO6PYLHXt7vu5riDKbNSEcjp/dLmbHo8Ouv2DFE4AJMrAq23ytVwTj2f65bUd3UBaEUD/fcV89mhJqu9qMOp3OwNbJH23BL2++tvvniD+hKb2GrdGSIBSv269kOzpJt9vVer2+3WsD/7nao/l8X7P79BjrRRLMCCHjw8vQw5CoSU8KeLrRHX4so59WcIgJIZT+8doIhKRVoyu9fDIwny1WhLAibz/fYBkyiprD11/xwqdL7AhFy1v/HAa7q6/1msPuxzJm9HSLKaGlx6dXqdsMZiHRNbcvH1GmD75iTgjd9fHzYzv0Da8EvGH35mebOZ6YCCGUcX39+GdzOOw2Gw1/Uvj/m93hsPHj4fqaVWxxKxnCgx5+PX1/fYehsWuhYmDwi9L7y/enzzhlZ6ASJbSkLx/b7c/2x8vLzfYGSrL+s7358ePj87PdflwmYziHEic8yND1a6d0PXG0g/4HF2vIvOFzVQ8AAAAASUVORK5CYII=;" parent="1" vertex="1">
          <mxGeometry x="557" y="-651.75" width="51.75" height="51.75" as="geometry" />
        </mxCell>
        <mxCell id="c5LJ0pvMlqKAeBtO2L46-1" value="" style="shape=image;imageAspect=0;aspect=fixed;verticalLabelPosition=bottom;verticalAlign=top;image=data:image/png,iVBORw0KGgoAAAANSUhEUgAAAOEAAADhCAMAAAAJbSJIAAAAllBMVEX///9pPMVZHcBoOsVeKMJmN8RiMMNdJsFkM8P59/1tQcdgLcJjMsNbI8FfK8JmNsTDteaii9n18vuagdZyScjq5fbZ0O/n4fXj3PN8WMzHuuidhdeGZs/w7Pl2T8qgidjTye2XfdWrl92zoeC+r+SAXc2LbdGxn9/f1/HQxeuRdNN/XM15U8umkdu5qOLXze5MAL1UEb+ejvTLAAAS60lEQVR4nO1daXfiOgwNsbOAs0AIW9gKpWUptPP+/597QPGSxE6sLF3O6f0yc2YI+Ea2JMuSbBh/+MMf/vCHX4RutByNJpPJaLSMut89mAbRHY2T/XyxQiTAGDs3XP8MCFot5vtkPPrVXKPx+3Bm+5jYroVQJw2ELNcm2Ldnw/dx9N1DrYBJf97x8Y1apxg3otjvzPuT7x4yAFGy6TjELeOW4ukSp7NJfoUsp9uVSUIIO4GludpOv5tAMabb2LGrsGMsbSf+uSSXz7Hv1aH3IOn58fPyu8lIkCxKpXdVn1YYhlZeseYluUi+m1AG7z1sqYZ7twqObwa91WzxenpdzFa9wPSdTyuieMoK0P7nmMrl5WrApcP0CA7ixfw5GU+yajKajJPn4UvvSlSuda+CHP4MC7IcOpLVh0LbMWeX5FBmAKLxbtjxA082BVz/NPoSDkVYDk03T8/D9uv7Qf9boqftzAkksgzNzfdy7K6dHD/rpvDH8DUUHechzisr11l/43p8d7zc4vFnz9Xf+nS/yhscD783OGYIjr2sfglxrwa9T0y3HRxmXhvpHRsZMQyjhZ/mdxXf6aORr/44+ZnZivzFl/sAez/9oq2g89yc3xxtw8z8CJ3nxr5dB4eYpPn5Zz0fJNptd3ovoh/jNEcSA5RzXWzTE9RyFmO9BxOfeMTXdMiOqzRH5G+rDxmE5TklQOTMNPkZ/fubQX5f8/NJL0hxJLMvWY19U3Q/UBA/6T/5eMjUpWj0kZ2aLfpPVsfQEX/SI/q2qu+zx7SleF0RaZ/CGVYZNADLlfhOkQ/wN5gEYVI0olNq1durVmfqky3OUJB2EyQIlKLx1BFfq2U3Y3Wl2JnC27RAqi1DEEbRuIhiROYOOnBdDMQlaMeQcEqOIJDiNBbF6AygQ9fDKUitQMijEoJAisZcFGNwgg1dDzPhLYYhaC2klAwHTPUfXcFPtGewwevgLChtMgNt2aQShEsxEvW4e4YNvxTdmBNE/gX0rEKCdynCImpD4VW5caMb427MZwhyYMNSShAuRWMnLMawSYoiwTCEBcAECSLJ34Bu2Dhoh+KKE/Ri2C5QkCDq0dGhGf9CoBQnHeFlr0CPFmDG16C9gD0qEvQiak99I65MsXvmsSH3DTYaFV74VxKgHRIJkonB9hapea+7X2Tj4SrVA75wOTZ8NxhsYI+KBIPr8uUMU8oZSvGVj4gARyTDFnOCwJ2LqGTITT8JDI3uilMEGg3xpePa+35BDFCCiSBB5+7EigxTFKFSFChCH81izMUAXYOJIMHg00tPMUxpMKgUT3wtmroxFCkifpRgv8IePf7HCfqPbUiGoegJ/geM+S4YReTWiWJyu+W+QJ99pWNAmG6UswyNN6qmoe/v+ih7O2ENL3zNprtVwX94vGbks0hAjiHV/HCCRrfHwg2k8naRqwrkVQmO3Ckih4c68gw/P1OBoGEseVS8qrZZMjf3oQrBuA5fkKCU4e0zlQgaxoELwK8WnXoL676j6/B9UdPJGBqvfjWCoiULK7lvWxa0ILD9oIiXVCxAytCo/u1cTwR7+NN8DtTRVWnIGdbAmU8z+LFNzBZh2NipWeMMI3ZgbMXQZ/dsAvjNBWAbZ2gc2UwjwHk6Yk/aoLBhMZpnaAyZb+PDztdfqDlFYOkXoAWGBgschCCvK2FbJr/JRME2GB6Yg48hNo2l1tmNHru2wdC4MP8X6T/E1AzqNTmWdhhycegrm4ipGb/W3iuHdhg+8eHq2rUh3Zi4DURBRLTD0Dix8WpGIUY06Idww5nlLTFcMiE6ehZjQ18JaTpJpyWGxpYqG71JN6LjaFjNGO0x5MrG1BEiE6HTeLpcawz7AUCIzF+zmj6ha5Eh92w0fLc1E2GzluKG9hgeqRPmlcZsulSRWuDgWjnaY2isqCONy0Jmz1QtOS1krbTIkAnRLkvSooeXqLGzOQEtMmQ79jILwF4FyFHXRZsME6pOcbEJWFht2cIb2mRo0Ho5q/BMcUn1TOlsroR/+BP/2vhy5tg4RcHTPftUKzUOh+knWklnZt6pXeRsUsPZ9KbiS/Aalq+wA52kuHlr3z6YlnTUc+TitalnWgfVNZ46ik4naeFM/rnYlgqITVJg6PGnYOqXTVM6SVvYVXwNqF/jqSKEcUuTNDrs9tv1/j1pu+ilbJoyg+I0WZw6HvRMTGzP9WzimC/vbS6AKS5eZn3SvCbt93CqMtSytSuIqoDuG4g81/0UlipbID4ylUt3hP5Lay0FBo/teyjP/aGV47ipneHal1eww+oYIDg+NhjyAP+U2oqgGZ80XV6TBnlrp7Y3Ym6NbJrQZVi4+9DfNY68UEnw6vh2qtf2FOkqeiooXYg0ll+0cRr8p7tGRyUdMiyrKsXjv4LXTDdH0vg+jaoWeN0D3HH0KHbdVAmfR4IgsNNaFVU7MkhMVJDm91GwECO2AVcukcttlmMtiguheOFWn98/Ph13cyRWaYeVTpfveVrq/J4uZSE5hho/Fqk6BHX5/ISOFJ952q1L9nzhHE6CerUrlBI+UjrVUuypZ+KOzmBVSPXCglSlFPlhUMfZpF/m9Mw1rNNP5udebzbv605YlmmnlOKcapO8qqH/RRSp8xcullJzxg70On7+h9a8Ao4QF916fhF/qMVRSKtWSXH3sAjuPPdfb5ZSvDcIBMNeyXB4OpUje13CFGbwAh07NHaEUhT5A3SxWflMN6ro5KeiEILM/VNlm63Txfx36JWiHwSK8olKazpQmP0funTk+TMCQauUINPKocp3WMicAUcnz2AalEmRqppcQiaTrmxUA0GCndIVQ5eC+rgy4utJgFby3bRMigvVajvSFSpRpQPIFOVRPclip9jLXFa95LsJKZYiPR0k2eA+PXOS+GwwCV7dGTpP1JukrtSnKzlxeGASFErxnRLJBioY9dwzQAmyeFbh6dWAJul7js+EUnziwDCxi6SYqCYjnVo4uxgEgpaGBPkeTek63EDTIZzLqJtQiojo7akKpXh4jDfM5lafHw9lM1KgEuTTROU6fGJ90xiPyvoxPw/SozgS/PqsFGk2UC5gSCMcfvo34AQjqsyC4lDB/jo/w8dLYAbUDk5a8bhRqKRIU9ZQJ/MM0/Cpf4UT3LLee6UVDBM2XRLuAoTmSUeOIsXMRKWWiKSf6NJ9lSv+6wBi6O8/vOJjBdRoTMVmDW6o8+ASqaRI1XQmGLOU7Z0EgkgrDH5whH1vTmcVDDfVEUavWLwbK9QN/XecdmooQ0uoPBiIHjLyTSn+CS/8kGqzYgLCFOnWXsgUDOPxn/yHndRvCRTPcoYjypBn0VwkW4A8hPh4lBonKO16nxJiB2Gu0Z+CjgYEKdJgFE5bBaZjmdEdS33HIoZCCXoHeTYofD8300Ecvlj0GAo+MNXlGbs3ydnJTb7hYzHDvhC5wOEcGGcazztih9eA7Zw1GXqsaIL6LpnTl8lDhjwcvlB1XFUxZI0SkL+pFLaf7D1eGMq2d5oM+eQ7lTCsLEOWsYNI9aMX3uOH7fk1GXLRKGSYX4cfwHXIco1InXMXVnDHohCaDHkOl2Id1talLFAZ1OuoxgohaNhWj6HQP0KhS8vtoVNsD6lLDynrkIImVNATMJU9TLW+dc/cgZlRhnKLnwrTiD5NWUsTGrqofUK+f+wcS/POLpyiJ1ZIxvKQWrlfWnKSQuMSJTuKctDtpTLb4IEhn71eKnJIDWuQeaB0b2GFhSacvlFcNweATveCKM8NIsG09/RQCCizt9DYH1peEUV6vlw7y4FmGxSn1m04QTtNkO0Ps9kIGnt85BWMnubi5EJcULAoRBFDkWAmuMPsXrZ6WSdOc+8xowA9QS4cmA5YmKegdvVElATVcRqtWBuylRTZJtasWSvFdKlaKW8KCKpjbXrxUoSVDguNf9VNTaVR+UA53UUJ5psVvKuIKKkbmYmqosgrUWo5NSxJVLmBFggSSTeGgSrmrXtugVSR7Cmvc6xBcUR3UMrsQbFJlCwviJ1bZBVK8dmTzkTlB0p4U3UtHtkFNapoaxlB5tLkD/KZKyAdnUhRkb054ZsR19wcR1EXhGg53Z1Zklj++E+TYKT2j99U0tWmeBEOPkPiEBcEG2PCN91Ynnr3ys+sFJ3VxvlNEsVQ/xyfKE5QVumDTwRC6lFFs5GL0HhMobKpXZaYU/1cDJkGuyOy9CIfpUBEoUjZJFV2VmN2PT8JPmT7JxnFgq5mo7Aol02foKkMJj9MBVam4rC9Uz6UworwS3KiCjsLFuUjasMiBdHyu0eKlfsOFmqQuVYdNXuKq7pRv71PDM2aMxUF58Kd6PA6BrXLyjK7ZHnOLDexYJc++K+0CPUwc2pMVUS8smbdhWOgzqd0d9lYfun45AReaMFUKbJC1yZ+rHFGWjQG6tFILcKkuRzh7nF7Osc9CDqL03Cf1E3kp8EYxUacLcSnmr/zfXgqWoZt5Op/OWi0SLGFa6Pe4otBN5cKx2xpFk7iXwCmSlRdBlnd03fdkVUXdH+vTFaihVG5MNVvAQ3o26o0x99efzgpL01jNaQV+iz+ANCThYIec23XAbvxJ9zyj1aBhoDYNG2hc8sN5sNDa6WnAk+P8wtsQcv1+K12jTA2Yekkbb2nQqsMu1TPFF6yxftitFKv3ipDagwV1QYULN8gm7vYCFplSDcOivpRChZU16rwgOJL+tOUNUeib8L6bT2GaKOo0oarv7VP1AfVIIoybg7e66sF57RFhtQlRdkEhTzmbntCbI/hEzMC5eVTv7Pn3plll2vk7bLEeb0SFghaY8hMQEmOyid478sm20Df0RpD1jZRL/Wa9y9teq/fFsN3AhGhsBJRQ90VGFpi2GVVQjqr8AbWR9hr+OLWlhgOWZmYbv/4X9YLeszmnP6O6PlX9fNmagaiN1hWOvn5Pdm3lcSRsIzyH99XX8jjAdlvlhzzi+5GgF1XI9xvoWditNACwzm/NwvYDoYpG6DwC9HmHSWKDJwCxOwOj1r3mqXQ5j0z8M0eX8FhY5uMNu8KqnAQwbRwjXvNjOeU/KUMo+phvQEbIq7kQs9Y3kjlO7u2Zk90M2QMuz2zqs3l98IpO3AUY8mTDSveu7Z10pf2Shjerlx1qlHk1cOotE25Avxes2p3521vz4sU8ww/75St1KFuyTtPVFf3c+H+Q/jT2893LFDMMaSX5laRIlP2tVzLc407LLd0EoUrSjHLsMvyNeFSfOF3WNa5AYDbG/AlhQm/h9SlFDMMxdtk/4PeCczLTVGtfXqNu2SFrGJ6mX2GoXDRKgYaJCFhX52qqYca9wGLFD/PCNIMV9UJCnVdde8DrnWns0jx7lSlGM4aIYgbSDnYCNnjwIm6zlAUGdYgeOIESSORJPFudaC6yUhRYFiD4GtR2VM1CKOxX2CKS6DovRisJ6D41qAEhcvj4SZMBaHMwC0rCM5ApHiiNto6VSa4FG6dd5s7WaGux310Wu1jOIS1aEn+VpCzLcPU448yM9sERIoIeNNVqug9C6AEE6FnS6ME0+4H8mEptms1RaAEL0IDHO/cdELMG1860FbOSoowgt03obDKbuE6qoVYuIVAB8QKirAp+oGEKgeo2dLDRhgnMkGjk1KESXAgtmhyGrzCV8TWF8ZnxxCdKqEIIjiNxXIjv7UbRvqm8B5hveNzFEEEt2L/+lSjrKbx5IlVTaQHOHzLUIQQHPfEprVup7WLB25IF6chf6OvVOe4GsHuJtUkLVi005KfYyguxo4LCFQKFAEE37HYiEav3XBN9FN3OiASP+k+ySiq6wezeIqJKMBQ3YegSSxnqV7OyJnpLscHRW2CH+dUZ70Obn2GUmxTK6Njad+sMjDd0NU1peM3J1WtaflfWOlyiNMtuS3/rDd9xuvFWu9tJOc0P4RnX1sFss/csGLh3ntzN0BHexSkv9+Fnw/WxeQtc0sOsv3TUyNf/XHy7cx3+68NX6CthT7Kdo8PMdrW7qK07eBMITEK9PV1w9j7XoYj8vzzc/X1styd/Vyrby/48gnKEa2dXHvF+50kY7ha7463sUOy9DquM/gqEyHHcm7mW0giD9uv75Bo++H91caSRu2uOa9+qVBTWA4dydBQaGNzdkmmZQLoTpPLzMR2KPkOz/kB/G5YXoL87LrB8ohD4sX6OTlMsrowmhyS5/Uivn7Ck7ZhQCS4/Ax+d7z3sKpbBLJcm2DHN4PearZ4Pb0uZqteYPoOJrZrSd/MFaETf6N+kSJ5cWzVcClXZFlhGFoWKvsgwacWyj1qY7TtyFYkFFfPYbX7DvuuhcOlV4/kzdTsf3ix/GEbm0SiGDXYhcRf7VsNUTSFZf/UcWAskUuc3qb/g3RnKaa7TejjAmXJuF1VLfbRcPfD56YU0Xg3f7vyvFuFLFP0aUX88G2+G/9YxaKF5TjZzxerqwHHGDs3XP+8ugirxXyfjH/TvCxFN1qORpPJZDRaRt/rTP/hD3/4wx+A+B/vvh2JAdupyQAAAABJRU5ErkJggg==;" vertex="1" parent="1">
          <mxGeometry x="431.5" y="-924" width="70" height="70" as="geometry" />
        </mxCell>
        <mxCell id="sxGFlXzZ9FwV0MmhRmrx-40" value="Public 2A" style="points=[[0,0],[0.25,0],[0.5,0],[0.75,0],[1,0],[1,0.25],[1,0.5],[1,0.75],[1,1],[0.75,1],[0.5,1],[0.25,1],[0,1],[0,0.75],[0,0.5],[0,0.25]];outlineConnect=0;gradientColor=none;html=1;whiteSpace=wrap;fontSize=12;fontStyle=0;shape=mxgraph.aws4.group;grIcon=mxgraph.aws4.group_aws_cloud_alt;strokeColor=#232F3E;fillColor=none;verticalAlign=top;align=left;spacingLeft=30;fontColor=#232F3E;dashed=0;labelBackgroundColor=#ffffff;container=1;pointerEvents=0;collapsible=0;recursiveResize=0;" parent="1" vertex="1">
          <mxGeometry x="616" y="-1008.75" width="220" height="160.5" as="geometry" />
        </mxCell>
        <mxCell id="sxGFlXzZ9FwV0MmhRmrx-41" value="" style="sketch=0;points=[[0,0,0],[0.25,0,0],[0.5,0,0],[0.75,0,0],[1,0,0],[0,1,0],[0.25,1,0],[0.5,1,0],[0.75,1,0],[1,1,0],[0,0.25,0],[0,0.5,0],[0,0.75,0],[1,0.25,0],[1,0.5,0],[1,0.75,0]];outlineConnect=0;fontColor=#232F3E;fillColor=#ED7100;strokeColor=#ffffff;dashed=0;verticalLabelPosition=bottom;verticalAlign=top;align=center;html=1;fontSize=12;fontStyle=0;aspect=fixed;shape=mxgraph.aws4.resourceIcon;resIcon=mxgraph.aws4.compute;" parent="sxGFlXzZ9FwV0MmhRmrx-40" vertex="1">
          <mxGeometry x="71" y="41" width="78" height="78" as="geometry" />
        </mxCell>
        <mxCell id="c5LJ0pvMlqKAeBtO2L46-2" value="" style="shape=image;imageAspect=0;aspect=fixed;verticalLabelPosition=bottom;verticalAlign=top;image=data:image/jpeg,/9j/4AAQSkZJRgABAQAAAQABAAD/4SmURXhpZgAATU0AKgAAAAgABQEaAAUAAAABAAAASgEbAAUAAAABAAAAUgEoAAMAAAABAAIAAAITAAMAAAABAAEAAIdpAAQAAAABAAAAWgAAALQAAABIAAAAAQAAAEgAAAABAAeQAAAHAAAABDAyMjGRAQAHAAAABAECAwCgAAAHAAAABDAxMDCgAQADAAAAAQABAACgAgAEAAAAAQAAAOGgAwAEAAAAAQAAAOGkBgADAAAAAQAAAAAAAAAAAAYBAwADAAAAAQAGAAABGgAFAAAAAQAAAQIBGwAFAAAAAQAAAQoBKAADAAAAAQACAAACAQAEAAAAAQAAARICAgAEAAAAAQAAKHgAAAAAAAAASAAAAAEAAABIAAAAAf/Y/9sAhAABAQEBAQECAQECAwICAgMEAwMDAwQFBAQEBAQFBgUFBQUFBQYGBgYGBgYGBwcHBwcHCAgICAgJCQkJCQkJCQkJAQEBAQICAgQCAgQJBgUGCQkJCQkJCQkJCQkJCQkJCQkJCQkJCQkJCQkJCQkJCQkJCQkJCQkJCQkJCQkJCQkJCQn/3QAEAAr/wAARCACgAKADASIAAhEBAxEB/8QBogAAAQUBAQEBAQEAAAAAAAAAAAECAwQFBgcICQoLEAACAQMDAgQDBQUEBAAAAX0BAgMABBEFEiExQQYTUWEHInEUMoGRoQgjQrHBFVLR8CQzYnKCCQoWFxgZGiUmJygpKjQ1Njc4OTpDREVGR0hJSlNUVVZXWFlaY2RlZmdoaWpzdHV2d3h5eoOEhYaHiImKkpOUlZaXmJmaoqOkpaanqKmqsrO0tba3uLm6wsPExcbHyMnK0tPU1dbX2Nna4eLj5OXm5+jp6vHy8/T19vf4+foBAAMBAQEBAQEBAQEAAAAAAAABAgMEBQYHCAkKCxEAAgECBAQDBAcFBAQAAQJ3AAECAxEEBSExBhJBUQdhcRMiMoEIFEKRobHBCSMzUvAVYnLRChYkNOEl8RcYGRomJygpKjU2Nzg5OkNERUZHSElKU1RVVldYWVpjZGVmZ2hpanN0dXZ3eHl6goOEhYaHiImKkpOUlZaXmJmaoqOkpaanqKmqsrO0tba3uLm6wsPExcbHyMnK0tPU1dbX2Nna4uPk5ebn6Onq8vP09fb3+Pn6/9oADAMBAAIRAxEAPwDwr4g/En4hJ8Qtf2a7qaj+07z5ftk3/PZv9v2rnk+J3xAbC/27qf8A4GT/APxdY3xGkx8Q/EBA/wCYnef+j3rl0bHzV/vLgsFQ9jD3Fsuh+zx2Vj0xfiZ8QOB/b2p/+Bk//wAXVyP4l/EAnjXtT/8AAyf/AOLrzOJ95q8j7OldX1Kj/IvuGenQ/Ej4gMuBr2p/+Bk3/wAVWpF8S/HxXB13U/8AwLm/+Lry2CcqoOK0opAF5oWDo/yL7jSMY9j0qL4k+PgcjXtTx/19zD+TVfX4l+Pcj/if6n/4FS//ABdeZq4xxVpH6cVtHCUP5F9xajHsenR/Ejx4T8uu6icf3riX/wCKNXF+JPj5jtGu6kPYXMuP/QhXmUUuOgq/DJwHxVfUqP8AIvuNowitkeoxfEPx8qf8hy+/8CJf/iqtR/ETx8Dk65ff+BEv+NeaQSkgA1pJJnAxW0cJR/kX3F6dj0UfETx4emt33/gRL/8AFVfh+Inj3GBrl7/4ES//ABVearJt7VcVj1HFV9So/wAi+4NOx6hD8QfHw665ff8AgRL/APFVej+IHj4fN/bd7/4ES/8AxVeawXAYBTWjE+zg9KqOBofyL7ioqPY9Eh+Injkff1i+P/bzL/8AFVbj+Injfb/yFr7/AMCZP/iq89VwBxVpX2rtxV/2dh/5F9xrFJdD0yD4heNiuG1e+H/bzL/8VXYeCvHHjSXxppEUurXzI17bgg3MhBBkXjG6vE4piMcV33gGUv420bI/5frb/wBGrXLjsvw/sJ2prZ9F2NuSDg9D/9D5D+Iz/wDFw/EAz/zE7z/0e9cnFI2cE8VvfEKYN8Rtf4/5il5/6OkrmAQelf724Fr2Mbdj9jpO8TZV8cofyrQimDD5uKwIpgnGKvxsD81dZqbIfHANaKSZO3NYKSBuMVcjlVDuOeB2FA0zpI5tuAORV1X5yD0/SvQPgn8DPi9+0L4oHgv4L+H7rxBfjBlW3UCOBTxumlcrHEvuzD2FfuV8Jv8AgiZoPgfQE+IH7Zfj610SyhAeSy06WOKNe5WS+uQBn2jT6GvznjXxZyDh5+zzLEJVOkIrmm+3ux1XleyObF5nRoaVHr26/cfgAj43c/dxn2qzDOrEIjZI7Cv7NvhJ+w7/AME/vCvgMfEX4M+BdN8cw+SZbe4E6am90y/wxvcymASE8YygzxxxXxR40/4K0/s4fCDxLdeAJPgVqGl3+mv5UtpdW1hZyxEesYDcf3cHDD7ua/Jsn+krWzmvUw3DuVVKzhupTp02v+3W5HmUOInVk44ek3b0R/NiZ0iO1m2n34rTgkBw27jpX9D1v/wWU/ZH8SEWvjX4O3EcEnUmLT7gH8GCVNF8Uf8Agif+0lOtp4p0GHwXqU4wssltPpO3Pcz2h+z8H/nof0r6F+NGd4X3s0yGvCK3dNxq2+UbHWs5qx/iUGl5a/kfz2x5xlunarKMR1PFfu38UP8AgjL4b8W6CPHX7Hnju21bT5U3xWWoSJNG47CO+gyM9vnT/gVfjX8VPgt8WfgX4k/4RD4vaBd6Ffn7iTqCkoHeKVC0Ug91Y4HXHSv0bgfxb4f4hbp5ZXXtFvCXuzVu8XZ6eV15nfg80oV9IPXts/uOEVgOV/StS3nEnytWBFIg+6dwPcdKtI+D8tfpB6J00cuw47VdU8+1YFvcKV2mtKKQqcE8VrGRrGRrxv8AN1ruvADv/wAJzopU8fb7b/0atedowAzXa/D6Rl8c6L6fb7b/ANGrXPj/AOBP0f5Dnsf/0fiH4iyuvxF1/H/QUvP/AEfJWBBI5XJrR+Jcg/4Wd4k2/wDQUu//AEe9cvHJuYZ7V/vJgp8tOPoj9ko/CjpF7VcV2GAKxIp4zhfTitBHQckgCvSTRobCuUG7pX6+/wDBPT/glv41/avFv8W/irJP4Y+HEbFxPxHc6mkf3hbluIoT3nII4ITPVcn/AIJT/wDBPJP2tfGz/Fv4tW7RfDjwxN++WQ+Wup3cY3fZQT/yxjHNw3HUIOrEeuf8FN/+CnM/xVubj9mT9mK5XSfh9pAWwvLvTx5X9oiAeWYYdhUJZR42Kq7fMxn7mAf5+4546zPM80fCnCklGql++rfZoxfRd6j6Lp97j42LxdSpU+rYXfq+x9Y/Hf8A4Khfs8fsceFn/Zw/4J66Dp9w+nMYZdUKsdPgmX5XKnh7ybI5kZtme7jivwP+L/x++Mv7Q3iZvFnxn8RXmv3fOwXD4hiB/higTbFGOOiKK8IhljGVHAzwOw+gHAHsOKtxsu8V9vwF4S5Pw9H2mGhz138VWfvVJPq+Z7X7Ky9dzqweW0qOqV33Pqr9nP8Aaw+Ov7KfiU+Kvg3rclkspU3VhKPNsrtU/hlhbjOOA6bXHZu1fpD44+InxH/4LLfHnwn4E8CeGrXwlHoWnedrOpuq3DQ7n/eSNKArvDwFtoCQdxJb1H4jwugbk4/z/kfp6V/Sv/wQoW1X4PfFm+8LrE3iVZrdYs437RbSG3B/2TLux75r4vxww+ByXAVOL8Jh4/XaaUYTts5tQvK2kuVO65r206GObclKDxMIrnWxueIf2M/+CPX7Pl/H8KPjl41ln8T7VWd7nUriN43YdWjsx5UAz0WTkDqSOa+Rv25v+Ca9h+zx4Wtf2i/2ftRfxf4Acwy3UM0ole3iZh5bedCQJreQnYWADpkdjuH4+a7e+JrvxDfXXjNpm1ma6me/a43GdrguTN5hb5i+c57546V/ST/wTam1rUv+CXfxPsfiqSfCkEesJpxmyUFsLINMIyf+Waz7toHAbIHSviOJ8Bn3BlDDZ681qYm84QqU525ZKbs/ZL7DX2bfo4nJiY18LCNb2jlsmunyK9j/AMFVv2KP2ZfCUXhX9k74cO32iON7hIgun24l2jiSVhJNMyZI3FeexxWz8LP+Cnf7OH7YlrL8Ef21fC1hottqM2yyuGdprMMxCxgykCW2m54lBC+69/5nraT5EL9cDP5VpRyZcbTx0YEcEEY/+t0Nfb4j6MPDTpynH2ixDd1W9pJ1VJbNO9rr0/HU9B8OYZrS9+99T9bf26v+CbHjD9l9JPif8MWk8Q+AJGyZfvXOnBvufaNv34f7sw46bwOCfzAR2zX66f8ABOf/AIKM3Pwwlt/2dP2ip11TwFqv+iW1zdr5v9n+d8vkylyQ1m/Qgg+Xn+7kDiP+Ckn7C3/DMXiuL4mfDOEy+AtfkPkhfmGnzkbhBu7xOOYD6DZnIGejgLjzNcszSPCfFjTqtXo1krRrRXR9qi7dfucqwOMqU6n1XE79H3/4J+ZykjBFadvP5vymufhdevbp+XFXEf8AiWv6IPeOljk2HB6V3XgBj/wneiY6fb7b/wBGrXmtvOGGGrvPh64Xx3oh/wCn+2/9GrWOMd6E15P8inL3Wf/S+CPiQ5/4WX4hb+9ql5+k71yiMc59K3viO/8AxcjXhn/mKXn/AKOeuXjf3r/eDC/wo+h+uQq2sbFvIQc17l+z98GvFv7SXxm8PfA3wSoGoeIrpbdZCPlhjALzTN/sxRKzn6Y9q8ADDbjOOO1f0tf8EGPg/oXg3w58Q/24PH8Yg03Q7WTTLCZ1+5HBGLrUJVz32rHGMf7Qr4bxS42fD+Q4jMaf8RLlgu85e7HTyevojPMMX7Ki5r5evQ9P/wCCqf7QHhP9ir9nDw5/wTv/AGbpWs5rrT1Gqzwttng09mwQ7rjE19JuaQnB8sN/eFfzIxnyhsQfKMYHpgY49vb8q9E/aB+Ofib9pH43+Jfjh4tbF54ivGuBHnIhhGEghU/3YolRB/u15ju96fhHwDHh/J4Yeo715+/Vl1lUlq9ettl5LzYsrwSo0kur3NhGI+arkcgxvfgCsOGUbjGWGQM4z0Ffp/8A8EpP2Z/hz+0z+05b2XxT1Oyg0bw4q6i2mXMqpNqkiH5IIoyQXiUjfNjPygLj5s19bxZxNhsny2tmeK+CnG7srvySXnsunojrxFaNOm5y2R9+/wDBNv8AYE8BfDn4fD9vH9svyrDQtNh/tHR7C/GIliX7l7dRsPmZuPs0WMk4YjJUD5B8Nf8ABQnQvgr+3H4g/aU/Z38NDS/BuvTGC90N22C9gLZkuABhYJnkHnIgBWMkg9TW5/wVh/b4k/aX+JEvwX+F9xs8BeE7kxIYG/daleQkK05XAUxQ4ZIB06vzuXH5H7sMefy9ulfjXAXAuLzujXzviy7liocqo3fJTpPVRt/P1ct09rO55OBwcqqdXE/aW3RI/qD1348f8EUf2k9V/wCFyfFCx/sfX7grPewT213ayzOP+ey2eYbjPTcGJbvivOfjr+1N4s/bk8Jf8MWf8E5/Blzb+D7G3RdTu/KWwi+yxfPHbxgHbBDIUP3/AJ5T8oUDca/nShkTcAD06e1fen/BPn9rrUP2RP2g9N8V3Vw//CM6uyWOu24yUNsxws+0D79ux3qfQMvRq87M/AullOGeY5bUqYmrhlzUKVao5UoSW3LFcuqXw67226KeTqlD2lO8nHZN6HyHdWt1p91LZX8TQTwO8UsTgq0ckbbWRlIBDKwII7EUkUrLnFfsl/wWa/Zd0/4Z/GCw/aO8CRA6D8QCftRiXMUWpIisGUjgC5j/AHnoWVz3FfjBG/vX7d4e8aYfiDJ6GbYbRTWq/lktJR+T0PdwOMjWpqpE3Ukynz/dI5Hb0PH061/Rt/wTO+OHhn9rf4D63+wj+0Ixv3tLFl0yac5mnsUblVZiSZrOTaYz1Cbf7hNfzcRyEY+avZ/gV8ZNf+Afxf8AD3xj8MnddaBdLP5ecCSIjy5Yj7SREp+NeN4ucA/6w5NPC0vdrw9+jLZxqR1jZ9E9n2RGa4JV6Lit1t5M3PjP8J/EnwH+LWvfB/xjzf6FdNA0gGBKhAeKVf8AZkjZWHoDivOY3K/KK/dn/gsz8LdG8YaH4D/bA8BJ51jrNvDp93IoxujmTz7KQ49i6HPQBRX4NRSDk5rr8JOOP9YcgoZlNWqNcs12nH3ZK3TVXt2aLyrGe3w8aj32+41Uc9a9B+HdwD450RT/AM/9t/6NWvNI2568V3Xw6ZR490T/ALCFr/6NWv0PEfwpej/I7pbH/9P87viM+fiZ4hXH3NTvP/R71zEb+1bXxJkK/E3xLg/8xa8H4ee9c1E5Ir/eHC/wo+iP1dKxrCby134+6M/lX9UvxUlvP2UP+CAHhzwnp2bfVfHNvZwyt0Y/2zcG8nyR3FoCn5fSv5TJPMkhMUZwWG0fjxX96H7VzfsFeEP2Xfht4b/bumiTw9Z29m2mWb/a8T3VtZBCBHZ/M+2Nj8rfLzX82fSGzqOHxeTUJ0pVI+253CC5pS9mrpKOl9/wPHzepZ00112XkfwoxXEEbKJiqA+mAAPpnpX0B+zr8E/G/wC038YtB+C3w0RH1LXZtizP/qreFAGlnkx/BFHlyB1wAOSK/oDn/b4/4IZfDq3+yeCfhEmsohwDH4fgYH6G8cN+YrwP/gj/APEP4T+Lv+CqvjXxP4TsBpOmeJdO1mbw9aSRxwm2SS5t5hAscZKKVgVxheAAe1fS47xczX+xsfj1llSg6VNyi6iVm/8AD5bvyVjqlmtX2U58lrLqfYniT4C/8Eev+CcVtp/w9/aPj/4TLxjcW6Tz/abea+uCr8eYLWHEFtExU7AfmI7sea4f4tf8E9P2Pv2wfgpfftHf8Ez9RTTdc0Uuz6VavMkMssS5a2a3mIksrkr/AKvbtVjjjBzX4zf8FKvDHxJ8Kft0fEm1+KEdx9p1HWbm+sZZshZtNmbNm0J/55pAFjGPulSvav1g/wCDeHw742Hj34ieOIhJD4W+wWtlI7DEEt8kjOu0/dLRRbt2M7QwzjOK/Ks+yHMMj4XhxrRzerPEKMJtSnejU53G8OTa2tl+S6cFajOlQ+tKo3LT0+4/nkjclQ3QjjGNuMcbce1X43DjBr9APC/7GPxc/bf+MXxb8Y/su2Nnc6RoWu3Mscc0wtxOt3cTvFHbOw8onYu/axQAMMGvjv4o/Bn4t/AvxC/hT4x+Hb/w5qCkqIr6AxCQf3oZP9XIo/vIzrjvX9Y5Txjl2KrfUoVo+3ik5U+Zc8bpNXjvsz6aliqc/dT17HHRSYbpV9WjljKuPl5BHrWNGzbc1ajkcLxX1SdjoP6kv2Y9Qb/goR/wSl8QfAnVJRceLPBMRtLV2yzh7MfaNNkyecvGPIJ77W+lfzPxMVhCnI2nbtPUYAGD9On4V+vv/BDP4vN4G/a1uvhjdz7bTxppEkaoTx9psczxHHTPl+YPx+lfGP7enwii+Bf7Yfjz4fadD5FiNSe+s17C3vgLhAvsu8qPpX88eG9P+xeLs04dWlOoo4mmu3N7tS3lzWstkjycu/dYmpQ6P3l+p8sxvwOKuxzFDkAfQ9KylYggCrSMTxX9HRke+nY/pS+Fk1z+0p/wRO17wpJ+/wBQ8FxXMERzlsaXMt3D16E2xC/Sv514Z1ZOK/oh/wCCM1wfEv7Jfxg8EXPzRCeXAPT/AErTyh/9Ar+cq1HkxBAfu8flxX89+DEfqmd59lcPhhXVReXtY3t6aHjZN7tWtSWyf5o6dJOgxXcfD5/+K90Mf9RC1/8ARq15vDPjbur0D4eSg+P9CH/UQtf/AEatf0Bipfupej/I96Wx/9T8y/iVIo+JniX/ALC15/6Peuaim2EYra+JTE/E/wATL6atffpO4rlklbcBX+7WBdqUV5I/VIPSxvtclYTLEMsgyB7iv6rv+C7sY8TfsT/A34g2o3wLcw5lHQC70wMPzCfpX8oEczYK4GK/q4+L4u/2r/8Ag3x8L+NNOH2rVvAUFlNOo+dl/sac2VxnH/ToTIfavxDxhawuc5FmkvhhXdN/9xY8q/I83MXy1KU+if5n8uMMmYwxHWvRPht8SPGnwk8e6T8SvhxfvpmuaLcpdWdwn8EiHgEfxI33XQghkJUjBrzGGWQxL5nUDHPtW7pOj3vibVbXw3p6lp9RmjtYgvUvOwjUD3y3Ffu+JpUp05U66Tg1Z32t1+Vj2E+nQ/p00P8A4LH/ALCX7SfgrTtN/bv+Fq6jrmmKoEtvp1vqlpvAyXhMjrPAG6lDkdtxFeN/tYf8FkvB2tfB9/2cf2E/DEngbw7cQtazX8kEVlLHbOMPDY21uSkJdSVMpO4D7ozzXY/8F2/A3wh+CPw0+EPwu8EeHtLsNbeKT7RfW9rDHcvbafBFbokkqqHKs8hPJ5Ir+cuKZ1GcDIr+YvCjwu4UzjBYfPqWGnGnzSlClKo5U4tSa5lHbW2i28tjycuwOHrRVVJ26Lp9x9Rfs9/tYftD/suao+pfArxRd6CszB57WPbJZTkDA8y2kBjbA4BwGA6NX7z/AAW/4LF/s+/tK+GIvgh/wUQ8H2IivsRHUooDPppJ4DyRNma1Y/34iwB6bRX8xMEzN1xV1GbHBr9i438Iciz/APf4mly1ltUh7lRNbPmW9ul00episso1dZLXutD+gr9r/wD4I4T2Hht/jx+wxqS+L/ClzEbtdHWZbi4WHG7dY3Cki6THRGPmDoC/SvwdYSwzPa3imGSIlXSQbGVl4KlDhgw6EEZFfaX7EP8AwUM+OH7FXiaC28Kztq/hGaQG98P3DsYGBPzPbHn7PN6Mo2k/fU9R+r37d3w6/Yl/bK/Zlv8A/goF8E/EFp4W1+zVV1KC4AikvLnGFsrq3TLLekf6mRFIkGCdy/MvwOS8UcQcL46llHEl8Rh6klCliIr3k3ooVYq7u+kvz15eKliKuHmqVfVPZ/5n49fsS+N3+H37YHw18X+YR9l8QWULY4Gy5f7O+T6FZOR7V+kX/Bd7wcnh39rjQ/GMAIXX/DsG/jjzLSeWPr/uFa/MX9nH9m39pv4165b+JvgD4Pv9d/sW5inFzGix2yTwOrqrTSMke4FeUDZHtX1v/wAFFvEn7enxL1PQvF/7ZHgb/hGo9JWWzs7q1tNtswmYOQ86TTIW+X5V3LXuZ3haNTjzA46hiKd4U6lOcOePPrrBKG7978NdjpqJPGQmmtE1uj84Y5W3c1ejY9U+lYUcrjqOvtV+CTZjccA8ZHb3/Cv3NPse2mf0u/8ABGGN/Dn7JXxh8b3I2RieT5j0/wBG04ufy3jNfzjW0ylQx78/nX9GXwl+2/s2/wDBD7xD4wvAbbU/GkV5LErDaxOqTLZQFen/AC7qJB/hX84MbFcAdq/AvBeX1rO8+zWPwzrqmv8AuFHlf5ni5O71a1VbN2+5G0jqx47V6L8OZkPj/QcdtQtf/Rq15bFKy5xXe/Dgn/hPtCPrqFr/AOjVr9+xP8KXo/yPoJP3T//V/LP4lNj4peJmzx/a19+tw+K5ZHHXNbPxNkKfE/xKp/6C17+k7iuZimBUACv918H/AAo+iP1A2In4xnFf0/f8EAvjL4d8e+EPiT+wf8R3W403XLSXUrGFjjzIbiP7LqESj12mOQenNfy8K+MDFe5fs5/Hjxb+zN8b/DXx48EHOoeGr1LlYS21biMgxzW59pYmdPQZzjgV8P4p8GvPsir5dB2na8H2nHWL8tVb0bMcZR9rScOvQ6D9oL4LeKP2bPjh4l+AnjPnUvDN61oWxgSxYDwTKP7ssTI//Aq6r9kqyttX/at+GGl3Y3RT+LtDRh7HUIK/oH/4K4/s+eD/ANtf9mvw3/wUx/ZgX+0fs2mqdaigXfNPpykjcyJz5+nyb0kHUJnr5Yr+b34D+KIPCXxx8E+L3cImkeINJvWPT5IbyKQkfgK8zgXjV8RcNzqtcteMZU6kdnGpFWat0vul2dvJGDxHtaN+uz9T9wP+Di3U55P2u/BemS8wweEUZAOzy39zk/lGB+FfgerjAC1/RJ/wce+Ebm2+N/wz+IduAYNR0K70/d72tyJh+lxxX86EchIUn2rm+j3WhPgvL3DpBr7pST/ErJqtsLA2FlxjBrWimTaFzXOo3OavwyAnNftEJ2PbTvsdBlW4r6L/AGTfgv8A8NHftF+D/gRcTNBaeI9UijuijYIgiVpJnA6b1hRwp9+K+aILjeemK+lf2Rfjjb/s4/tNeCvjbfwvPZ+HtSSa7jiXMjW0itBMF7FhHIxUeorzeJ3inlmI/s9Xq8kuT/Fyvl/G3/DGOJcvZvk3P6J/+CjX/BRjVf2Hda0r9jv9jzStP0K40LT4JLm6eBZY7OORd0MEEDfuzIY8PJJIG4YcFjmq/wDwTl/4KVeKf2yPF97+yN+15pun66PEVjcm0vBAsS3AjQGS2uIF/d5KbmR02YK4xnGIP+Cl3/BObxh+2V4q079r79kO+sPEa69YQLe2n2lIxcpEgW3ubWQjYT5YCSIzKRsGMnIFT/gmX/wTS+If7KPxAuv2tP2tbiw8OW/h3T7k2dm1yj+TvXEl1dSL+6RUi3BVDE5bJxgZ/gaFPgL/AFCc5uP9ocv/AHH+sf8Apduf5cvmfHJYP6n/AH/xufh3+2H8Co/2Zf2m/F/wTspjJY6TfE2BP3vsVyqy26sf7yxsqE99ue9cV8BvhJ4m/aA+MPh34L+D/wDj/wDEV0lujY/1cX3ppsekcSs59hXY/tp/H7TP2mP2o/Gfxm0gFdM1S8CWG4Yb7LaoIIXI7F0TeR2zjtX7f/8ABLL4EeGf2Rv2fNf/AOCh37RK/YWudNY6TDKu2aGwzjcqvjE184RIhx8m3oHIH9VcUcf4rIOEaOKxq5sZOnCEY9ZVpRStbr72r9LdUfR4jGSo4VOfxWS+Zg/8FtPizoPgHwn8Pv2NfATCOw0e0j1C7hT+CK2jFvYRN6HAkf8ABa/n0RueDwK7746fGzxV+0H8ZPEXxp8YhRfeIbszmIZxDCBtggXPaKIIgx6eprzKGQjrX1PhNwW+H8hw+XVHepbmm+85ay9ddE+yR2ZXhPY0VDqbEcg9a774cPn4g6AM/wDMRtP/AEalecIwAyK7z4byY+IOgcf8xG0/9GpX6Hi5/uZej/I9BuyP/9b8lvii+fih4mBP/MXvv/Sh64+CfYcdq6X4ouP+Fo+Jf+wtf/8ApQ9cZG4r/dbBP91H0P1A6eCXdzmriOc9a5qGYrgHpWvDKmwCupAft3/wSD/4KYR/seeOJPgx8Zrgy/DDxRL+9Zl8xdJvJflNyF/595BgXCAccSdmB9b/AOCqH/BKm9+D13cftXfsmQLq/wANdWC6jcW2n4m/sl5f3n2iHy/vae+Qyuu4Q9CPLwV/n2DDbiv2v/4Jn/8ABXvx5+x/9n+C3xlin8WfDGZjGsP+svNKR+GNqGO2SDH3rdvfYRkqfwbjXgvM8szN8U8LRTqtWrUXoq0V1XRVF0fX10l52IoTjL21Hfqu5+kn/BU+c/tW/wDBJL4RftYaBEbi50k6ZdXhXGYkvLf7JdbiOyXKoD2r+WtZSSCePav9AvwL8NP2RP2of2IfE3wp/ZlurC68C+Mra+8qOwY+TZXd7mUgQuS1sUuD5nkkKEPAUCv4S/jh+z18c/2ZfFH/AAhXx88NXvh7UgSqG4QeRcberwTqTFKv+4x+lfK/Ri4xwtTD4zIrOnKlVk4QnpNQk27cu94u6l8jLI66tKltZ6I8zjk96sowxnNZCyqpIPHp0q2kq/d6fhiv6rPoYTcTbjnwAF4NakEuYyGb73Fc0JU/KtGNlwG7YHpVwlY6lNH6y/8ABOF/+CkXiG18TWH7DOvywWPh5Lea+0+6uIvsjG4ZwvkQ3KvCJTsctgodoHJ4Fe7fsz3v7QP/AAVr+M1/8C/2ofi1qGn6dolq98dKsoYUS88iURSCOOMJAWjJBLSJJ8pyo4JH6WfsQfAb4ufsx/8ABLDVNd+Fvh+XVvid8Sbdr21s4yqMjXy/Z7HfI5VES3tz57FiAGJGelcJ+x5/wTx+GH/BNSCH9sP9szx1b2GtaZBKsFpbSslpAZ0KvHlf3l7M4JHlomzPIDYBH8RcSeKOV1q+bYjCxpRxKl7LCyhSjKvKol7z2d430jKy0uk21Y+TxGPp/vJRSUlpGy1Pnb9i7/gj7r+m/GjXfH37W0cen+AvA+oXKQR3LKn9r/Y3O25k7JZbQHYnBk+7gKDXz1/wVQ/4KGQftWeMovhH8IZmi+HXhiXbE8fyR6pdINvnlRgeRF923XHq/GVAy/8Agoh/wVj8b/tdz3Hwt+FguPD3w4STDRE7bvVdp4a6x/q4em23HX+MnhR+R8TjACcIP4e1fsHh1wFnGYY6nxRxhb28Y2pUl8NLvJ/9PJf+S/JKPqYHB1JyWIxO/RdjZWQgcHrWmkhwBnisGN1bgVbjkUOK/oo9xM6SOVVwBXf/AA5f/i4Ogj/qI2v/AKNWvLYJlzXonw2mU/ETQAP+glaf+jkrDFfwp+j/ACLb90//1/yA+KLn/hafiUf9Ra+/9KHrjY3NbnxMkH/C1PE2T/zFr7/0oeuWjZcZr/dDB6Uo+h+mRkbCsSAKvQzFG5rFRl4q2jLmu5SNDp4ZS+B2q4DuIBArmYZ9n0rYhkXHJqgPf/gR+0T8bv2aPF//AAnfwJ8S3nhrUmwJWtWHlTqOizwOGilHoHQ4zxiv6EPgv/wcAeFPHnh1fhl+3f8ADWy17TpgElvdLjjnicHjMunXRK5945enRO1fy+oy4q3G6hefwr894y8LMiz9qeY0E6i2mvdmu1pKz06J3S7GNfB0q3xo/rEb4R/8G+n7WF59q8FeKIvAeq3P/LvFeXOjBWPYW1+ptOP+mYxVp/8AghH+xX4sP234f/HS58l/u/vtMu/p8yFO3tX8oEUyqAOxq3GFVi1uNmf7vy/yr4uPg9nOG93K88rQj2mo1fztoc6y6pFWhVZ/V5bf8EJ/2LPCg+1/ED45TmFeXBl0y1G36uXx+VTW/wAJ/wDggB+yleC78V+Irfxzqlrgi3lu7jWMuuQM29kotd3/AF0Xjtiv5TY443P79Q2B/FzWlH5arxxVf8QeznE+7mme15x7U1Gl+Mbj/s6o9J1X8tD+oL9ob/g4SkNu/hT9lHwctsigRxarr235QMBfJsYTgAY/jl9tlfgd8Y/2gfjN+0T4tPjX41+I7zxFqKZEbXTARQqT0hgQLFEo6BUQdPXmvnpH2gbavpKZD719zwL4U5Bw5rlmHSn1m9Zv/t57LyVl5HqYLLqNFfu0dDEMAVfSTZwelYkU0fC55FXQQelfqSdz0TZVh95avQyK9YELhfvGtFW/iTtTA20cp0r0P4ZyH/hYfh4n/oJWn/o5K8tWUOADXf8Aw0cD4i+H/wDsJWn/AKOSsMV/Cn6P8hrY/9D8YPiY6n4p+JgP+gtff+lD1yyS4AXFeo/E/wCF3xW/4Wj4kmg8L6uVOq3xBFlOQQbh8Y+TpXMQ/DL4pbf3vhnV1P8A14XB/wDZK/3GwWMpezj7y27o/R7owlfGBirSPz0roIvhl8UD/wAyzrB9P9BuB/7JVyP4XfFfP/Isav8A+AU//wARXYsTT/mX3o1jNHPI/wAvSrsMpQ4NdGvwt+KuP+RY1f8A8Ap//iKtR/C74p7fm8Mat/4BT/8AxFWsbR/mX3ornRlRzAgACroboK17b4Y/FMf8yzq3/gFP/wDEVqR/DH4qdT4Z1b/wCn/+Ip/XaX8y+9BzI59JOgx0rRim2nGK2Y/hl8Uu/hrVf/AKf/4irkXw0+KO7nw3qv8A4Bz/APxFaQxtL+ZfejaM1YoxSKeRVpH46VsR/DT4oqox4a1Uf9uc/wD8RV5fht8UAP8AkW9V/wDAOb/4itfrlL+ZfeiudGLG/TirKMc5HGK24/hz8Txj/im9U/8AAOf/AOIq5F8OPieWwPDmqf8AgHP/APEUfW6X8y+9GlOskY0MvfFa1vPv7Y4rTi+GvxOD8+G9UA/685//AIitCP4cfExT8vhzVB/25zf/ABFbUsbSX2196OtTRkqcirkblPetlfh18S8YHh7VP/AOb/4irifDv4l5/wCRd1P/AMA5/wD4iun67R/mX3ofOjIjbHzV6D8NJFPxF8P/APYStP8A0clYcHw8+JOfm8Panj/r0m/+Ir0T4bfDz4hR/ETQJZPD+pKq6laEk2kwAAmT/Y6VzYvG0vZSSktn1XYq6tc//9kAAP/bAIQACQYHDw4QDQ0NDxENDw4RFRAODRYSFRIVDhgXEhcXFxEVFhgdKiEYGiUbFRYhMSElKSsuLi4XIDM4Myw3KC4uKwEKCgoODQ4bEBAaKyUdJisuLy0tKzUtLS0tKy0tLS0tLS0tLS0tLS0tLS0tLS0rLS0tLS0tLS0tLS0rLS0tLS0t/8AAEQgA4QDhAwERAAIRAQMRAf/EABsAAQACAwEBAAAAAAAAAAAAAAEGBwIDBQAE/8QAQRAAAQMCAgQJCwQCAQQDAAAAAQACAwQRBSEGEjFRBxMUIkFhcYGRIzIzQlNzkqGxstFSYnLBQ4LhY5Oi8CRUwv/EABoBAQACAwEAAAAAAAAAAAAAAAABAwIEBQb/xAA1EQACAQIDBgQGAgEEAwAAAAAAAQIDEQQSIQUxMkFRcRNhobEigZHB0eFC8CMUUoLxFSRD/9oADAMBAAIRAxEAPwD5K2sl42a0snpHeu79R6166EI5VotxtI1Ctl9rJ8bvysskeiA8sl9rJ8bvymSPRAeWS+1k+N35TJHogPLJfayfG78pkj0QHlkvtZPjd+UyR6IDyyX2snxu/KZI9ELGQrJfayfG78pkj0RNkPLJfav+N35U5I9ELCKyX2snxu/KZI9ELDyyX2r/AI3flMkeiFkPLJfav+M/lMkeiFkIrJfaP+I/lMkeiFkPLJfav+N35TJHoibCKuX2j/jP5U5I9ELDyuX2j/iKZI9ELCKuX2j/AIj+UyR6IWHlcvtH/EUyR6IWEVcvtH/EUyR6IWQ8rl9o/wCIpkj0QsZCrl9o/wCIpkj0Qsh5XL7R/wARTJHohZDyuX2j/iKZI9ELIRVye0f8RTJHohYRVye0f8RTJHoibIRVye0f8RTw49ELIy5VJ7R/xFT4cOiFj3KpPaP+Ip4cOiFkSnjHfqPiVysq6FViuK70s3vH/cV0ocK7IyNKyAhAKAUAoDIISIQCgFSBQChIoBCAyBQCFIFAKAUAgoDJAIKkkUAoBCAQgMghIoCWrklRXNd6Wb3j/uK6MOFdkSjSFkBQCEBkgPIBQGQQkQUAoBUgUAoSKAQgMggEKQKAQgFAIKAyQCCpJFAKAQgEIDIISS5ckqK4rvSze8f9xXRhwrsiUaFkDIIBQCCgMkB5AKAyCEiCgFAKkCgFCRQCEBkEAhSBQCEAoBBQGSAQVJIoBQCEAoCX3XJKiuK70s3vH/cV0YcK7Ik0rIk8gMggFAIQCgFAKAyQk+3DsLqKk2p4Xy73Ac0drjkPFV1K1OmrzaRDaW8lNDwdVD7GeaOAfpAMh+oC59TatNcMW/QwdVHdpuDykb6SSWU9PODR8gtSW1ar4UkYOoz6xodhjdsfjK78qv8A1+JfP0IzyE6IYY7ZGO6V35T/AF+JXP0GeR81RoBRO8x0sfY8O+4LOO1Ky3pMlVWcat4O5m3MFQyTc17Sw+IJHyC26e1oPjjbtqZqquZG8SwWqpfTwva32gGsz4hl4roUsTSq8EvyZqSe4+AFXmQoBCAUAgoDJAIKkkUAoBBQEuXJKiuK70s3vH/cV0IcK7Ik1LMkUB5AZBAKAQgFAfbhWGT1cnFU7DI7a47GsG9x6Aq6taFKOabsG0t5Y+B6A08AElYRUSDMtzETe71u/wAFxK+0qk9Kei9Sl1G9x9GKabUNIOKgHHubkGRgBjbdBds8LrCls+tV+KWnfeQoNnLw3hHaXkVUPFxk817CXFn8gdo7PBbFXZTUfgld+Zk6XQkWK4bBicIfFO5uXk5o5Dq9jmg2PfmtKlWnhp2lH5NGCbiyrcdweajl4qosSc2PBuHi9tYXzHYV6HD4iFaOaBsRknuOcCB02Pgr95J9lNik8Z8nPIwjoD3fS6rlRpy4or6BxR3cM01r2FrS4VV8gxzOceoFgBJ8VqVdnYeSvw/3zMHTiWJguIS1LLz0slMbbH6pDuzO/iAuHXpRpy+CafYpkktzOXjWhVNUaz4RyaU+s3zD2s2d4stjD7Rq09Jar1+plGo0V9jOC1FE7VnZYE2ZIM2P7Dv6jmu7QxNOurwfy5l0ZJ7jnq8yFAKAQUBkgEFSSKAUBL1ySkreu9LN7x/3FdCHCuyMkaQsiTJSBQCgEIBQEj0T0VlxB2u68VM02dL0v3tZfaevYFpYvGRoKy1l0/JjKdixK7EaHBoGxtaG+zgbm+Q/qcf/ANFcaFKti53f15IqScmVtj+k9TXEiR3FxdFO24b/ALfqPb4Lu4fB06HDq+rLYxSOKFsmRkEJOhguMz0UnGU7rX8+M5sk6nD+9qpr0IVo2mvyiGk952cHw+bGquWadxbGCDK8eqPViZfqv9ela1arDB0lGO/l+WYtqC0J1LPhuFNaw8XCSMgGl8jus2Bce0rkKOIxTvq/b8FXxSGCsw3FA6McXMbZsc0se3rFwD3hJU8ThXfVewtKJB8dwd+E1UE8RLoeMD4nHaNU3dE7uvn0hdfD4hYulKEt9tfyWxlmVjr4jwinMUsAH75Df/xaf7WtS2Sv/pL6GKpdTit01r+MbIZWkDbFqAMd1EDP5rb/APHYfLa3z5mfhxJvgukFLicboJGgSFvlKd2Yd1tPrD5hcivhauGlni9OTRTKLjqRLSvRJ9JeenvJT+sNroe3e3r6Oneupg8eqvwT0l7/ALLYTvoyLrpFghAKAQUBkgEFSSKAmC5JSVtX+mm94/7iuhDhXZGSNIKyJEIDJSBQCgJHoZoy7EJdZ9200R8q/wDWdvFtO/Zc9A7VpYzFqhHTie78mM5WJ/pRpHDhcLKena3jtS0MIybE3YHuA6Nw6VycLhZ4mbnN6c31Koxcncqarq5J3ummeZJHm7nk3J6uodS9DCEYRyxVkXpWNayB5AKAyCEls8HcTY6BrwM3ue93WQbD5ALzu0pOWIt2NepxFYV9Y+ollnlJc+RxJJ6NzewDLuXfpwVOCjHci9KyMaWqfC9k0ZLXxnWaR1dHYdiynBTi4vcyWrlq6bsE2HSSOFi0Mlb1G4/okLzuAbhiUl5o14aSKnXpDZFAZxSOaQ5pLXNN2uBsWneCNihpNWYLM0P0qFWBS1VhPazXG1pxut+q3R0rgY3Aul/kp8Pt+jXnC2qI/ppozyVxqKdv/wAdx5zB/gJ6P4no3bFvYDG+Ksk+L3/ZZCd9GRVdMsEIBQCCgMkAhSSTC65JSVtX+mm94/7iuhDhXZGSNKyJEFAIQGSkH24PhslZPHTRedIfO6GAbXnqAVVarGlBzlyIbsrlu4pWQYLRNbG3zRqQx9Mrz6zj8yV56lCeLra/PyX93FCTkynqyrknkfNM4vkkJc5x6eobh1L0cIRhFRjuRsJWNSzAhAKAboCU4RoVU1NM+puIyRenidtl3k/pBGz8LQrbQp06ihv6vp/eZg5pOxIuDPFAGy4fLzJInOcxpyJF+ey28EHxWntOjqq0dz/q+pjUXM5ukug87ZXy0bRLE8l3Fg2fGTmRY5EX2K/C7Rg4qNR2a59SY1FzMNHtBqiSRj6tnEwtN3MJBfJb1QBsG8qcTtGnGLVN3foiZVFbQ7XCVizWQsomG75SHPA9RjTcX7TbwK1tl0HKbqvcvcxpx1uVsu6XChIoDNjy0hzSWuabhwNiCNhBRpNWYLV0WxpmJU74ZwHStGpMw7JAR54G4/IrzeMw7w1RShu5eXka045XoV/pJg7qKd0RzY7nQu/U2+w9Y2FdzC4hV6ebnz7l8ZZkcxbJkIQCgEFAZKUCXrlFRW9f6Wb3j/uK34cK7IyRpWQFCRCAboC2ODHBRBTmtkFpKgc0n1IwcvG2t2WXB2lXz1PDW5e5TUetiDaY46a+pdI0+Rj8nAP23zfbe459ll1cJh/Bp2e97yyMbI4i2jIQgFAIQE10B0W5S4VdS3yDD5Nh/wAzgdp/aD4nsXMx+M8NeHDi5+X7K5ytojtadaX8RrUdI7y1rSyj/D+1v7vpfetXAYHP/kqbuS6/oxhC+rK3imcxzZGOLXtdrNeDmDtvfeu44pqz3FxM8N4RqhjQ2oiZPbLjAdRx/kMwe6y5lXZVOTvB29St01yMsQ4Rp3tLaeFkJP8AkcdcjsGQ8bqKeyoJ3nK/oFSXM04VohPXQyVss15Jml8IuHGR3/UPRstYbPks6uOhQmqUY6Lf5diXNJ2Im9paS1wLXNJDmnaCMiCukmmrosBSBQkUB9+C4k+knjqGeoec39bT5zf/AHpAVVeiq1Nwf9ZEldWLJ0qoGYhRCaHnuYzj4CNrgW3Le8fMBcDB1Xh6+WW7czXg8stSqwV6U2RQCgFAIKlAmC5RUVvX+lm94/7it+HCuyMjSsgKAUJPuwSgNVUU9M3/ACyBrjube7j3NBVdaoqdNz6IhuyuWrwh4mKOhEEXNdPaBgGWowN5xHcLf7BcLAUvFrZpctfmUwV2U+F6IvMkB5AZBAdjRXBHV9Q2EZRt58z/ANLQdg6zsH/C1sViFQp5ufLuRKVkWRphjrMMp2QU4a2V7dSFgtaJoFuMt1bB1ri4PDvEVHKe7n5+RTGOZ6lRlxJJJJJzJJuSekk9JXoy88gFAZBCSbcG2OcVKaKR3MmN4rnzX9LR/IfMda5e08Pmj4i3rf2/RVUjzDhJwbiZm1jBZlQdWTLIPA294HiDvU7MxGeHhvet3b9E05XViGrqFgoBQkUBY/BpimvFLSPOcPPj62uJuO4/cuFtWjlkqi57+5RVWtyJ6W4dyWsmjAsx54yPsdmR3G47l08FW8Winz3P5FsHdHIC2zIUAhAIUoExXKKitq/0s3vH/cVvw4V2RJpWRIoBQE74JKLXqaioIygjDWnrkJ/ph8Vy9qTtTUer9jCo9D5uFHEeNreIB5tMwNt+54Dz8i1WbNp5aObqKa0IgF0CwyUg6WCYJUVzzHTM1tXz3k6rGfyd/QzVNbEU6KvNkOSW8mMPBg/V59W0O3NjJA7y7Nc17WV9IepX4pyMU0Zr8KPKon6zGZ8fESCwfvaejxC2aWLoYn4Gtej+xkpKWhwsUxKWrldPO7XkcAL2sAALAAdA/JW3SpRpRyxWhmlY+UFWAUAoBQGyKRzHNew6rmODmu3EG4PiEaTVmC4OZi+HdF5o/gkabfJw8F5rXCYjs/T/AKKOGRUBBBIcLEGxG4jIhel7GweUgUAoSdvQ6u4itp3Xs2R3FP7H5D52WrjafiUJLpr9DCavElPChScymqAMw4xOPU4Fw+0+K52yamsofMwpPkV+F2y4QpAoBRAmN1yyorav9NN7x/3Fb8OFdkZGlZAUAoC2+CWm1KOWXplmdn1NAaP7XB2pK9VLoiqpvK7xhstVV1cscckuvM83axzsg6w2DcAuvScadKKbS0RYtEZRaM4g7NtHOf8AW31sjxVFb5oZkfFLRSsl5NIwsm12sMZtcOcRYG3aFaqkXHOnoTcuWR8GCUA5txGAAOmaR289Zv2AdS84lPF1+/oijWTK4qNOsRe/XE4iF8o2Mbqjq51ye8rsx2fQSta5bkiTrQfSs4g2SnqWtE7G3NhzZmnImx2HeOtcvG4PwGpQ3exXONiAaZ4SKKsliYLRPAliG4O2t7nAjssuvg63i0lJ79zLYO6OItoyEFAKAUAoCweCvEs56Nx2jjox4NePm0+K4+1aWkai7P7FdRcziafUHJ66QgWbOBM3tNw4eIJ71t7Pq56C8tDKm7ojq3TMVIFAZMeWkOG1pDh2g3CNXVgWzpiwT4bI/bZjJh3EH6ErzeBfh4lLujXhpIqcFekNkyCAQpAogTJcsqK1r/TT+8f9xW/DhXZGRpCyAoBQF18G7QzDICcgTI4n/dy85tB3xD+RTPeaKjhDw2LKNz5f4RkDxNllHZ1eW/TuMjOdNwpwjzKSV3a9jfpdXLZMuckT4ZCarGGz4iyuLOLa6ohkcwu1tUNcy+dv23XTjRcKHh3vo17liVlYsfhPonz0LXxAv4iVszgM7t1HNJ7tYHsBXH2bUUK1pc1YqpuzKhBXoS8m/BVRPfVSVABEcUZYXdBc4izb9JsCfBczalRKko82yuo9D3CdJxtdFBGNZ7Y2ssNus9xIb4EeKbMWWi5Pdf2FPcaMW4P62AF0WrVtG3U5r/gO3uKzpbSoz0lp3JVRMi0kbmEte1zHDJzHAtI7Qcwt9NNXRmAUgUAoDsaJ1vJ62lkvYF4Y7sfzf7HgtfF0/EoyXl7ESV0TXhUo9aGnqAM43lhPU8floXL2TUtOUOq9iuk9bFbBdwuFAKkCgLbB4zBxfpo/pH/wvN8OM/5fc1/5lTBekNkQgMgUA3UoEzXLKis6/wBNP7x/3Fb0OFdkSjSFmSZAoBQF1cH518KhHVK3/wA3LzmO0xL+RTPiKWAtluyXoy4yQChJZmg+nEXFso692o5g1Y6h3mvb0NeeggZX2G2/bxsbgJZnUpL5FUoc0d6XQrC53ccIRZ2Z4uV7WO67NdYdy1Vj8RBZb/VamOeSNeL6SUOFQ8RThjpGgiOmjtYHe8jYN5OZU0sLWxM8093V/YKLk9SqJMSmdOasvtOX8Zxlhk7osDllkO5d9UoKHh203F1laxM8G4SpWWbWxCZvTLGA1/aWnI91lza2y4vWm7eTMHT6EtdHhuMx35kxA2jmSxX+Y+i598RhJdPZmHxRIJpJoPUUmtLBepgGZIHlIx+5o2jrHguthtoQq/DLR+hZGaZFAV0DMUAknaMiMwdxUklwaVjlWFSyDMmJk4/1LXn5ArzWE/xYpLza+xrx0kVECvSGwIKAUA3UgtuLmYOL9FF9Y/8AlebfxYz/AJfc1/5lTBekNkUAhAZKUCaLllRWVf6af3j/ALit6HCuyJNIWRIhSDIIC4OCaoD6F8fspntI6nAO/tcDacbVr9UUz3lWYxT8VU1MRy1Jntt/sbfJdulLNTi/JFq3HyqwkUB3NF9GpcSM7Yntj4lrSS4EhxcTZuWzYVrYnFRoWclvIlKx8OL4W+jmkppSwvZbW1CS3MX3DeraVZVYKa3eZKd9T5Gi2zJWkmSAUBtpqh8T2yxPdG9pu17TYjvWMoqStJXQ3li6LcIIdqw4hZjtjakCzTu1x6vbs7FxsVs1r4qX0/BVKn0Pt0s0Ijqgami1Y5iLlgsI5+m/U7r2b96rwm0JU/gqar1REZ20ZWE8L4nOjkaY3sNnMIsWncV3oyUldbi4wUgt3Bp2S4QxjntBNK5hBcBsaW/0vOVouOLbS/kUPiKkavSGwZBQBBQGQF8htOQ70vYFuaVOFPhcjNlomRDv1WrzeE/yYpPzbNeOsipF6U2BQkUAgqUCaXXKKis6/wBNP71/3lb8OFdkSaVkBCEiFILD4Ha7Vmq6Yn0rGyMHWwkO+Th4LlbVheEZdPuV1FocrhNw8w4hJIBZtS1sre0AMcPFt/8AZX7OqZqCXTQmD0Iqt4zFAWxwR0urSzze1mIB6mNA+pK4W1J3qKPRFVTeV1pHV8fWVct7h0z9U9QOqPkAuvh4ZKUY+RZFWRzwrjIQgMlIFAeQEr0P0xkoS2Ga8tKTm293Q9bOr9vgtDF4KNZZo6S9+/5MJQudXhIr6CZsDoS2WpeA5srCLCM9Em/qG0ZqjZtOtBtS0j0fXyIppo4OA6JVdaBIxoiiOyV9wHfxG1w69i26+NpUXZ6vojJzSO1NwaVIF2VEMhHqlrm3781rR2tTvrFmPioimJYbNSvMVRGY3dF9jhvadhC6FKrCrHNB3LE09x8qsBkEJOtorRGorKWO1wJBI/8Aiw6x+lu9a+LqeHRk/K31MZOyJrwp1loaenBzkk4xw6mNI+rh4Ll7Jhecp9Fb6ldJa3K3XdLhQChIqUCaLlFJWeIemn96/wC8rfhwrsjI0rICgEISdXRjEzR1dNUX5rXgSfwdzXfI37lTiKXi0pR/tyGroszhUwrj6RlVGLupnaxO+Nws7wOqe4rj7Nq5Krg+fuVQdnYqJd8uFAXRwajVwuFw6XTOP/df+F53aGuJa7eyKZ8RS7HXAJ2nM969Ey8zQCEAhAZKQKA8gJBoRgza2rYyQXijHGyj9QBFmntNu661MbXdGldb3ojGcrIn+melgw8Mp6djXTubcA+ZE3YCQNpyyHUuRg8H495SenuVQhch9Fwg17Hh0rmTsvzoywMy6i3Z33XSns2g1aN0yx00TrEaeHGaASRjnOYXwOPnRSAeabdYsVyqcp4SvZ/PzRWrxZTtiMjkRkRu6l6UvPICxOCzDD5escNvkou7N58dUdxXG2rW3U13f2Kqj5Ef07xLlFbKAbsgtCzu84/ESO5buApeHRXV6mcFZEfW4ZipAoBUokmq5RUVlXny0/vH/cVvw4V2RJpCyAoBQChJc3Bxi7a6iNLNZ8kA4mRp9eM3DCf9cj2Lz+PoulVzx3PX5lM1ZlYaS4K7D6mSmdctHOhefXYSdU9uRB6wu1h66rU1NfPuWp3VzmK8kujgxdr4ZC3c+Zp/7rj/AGvO7R0xDfb2KZ8RTAbq807W8092S9Fe+pcZIBQkQgEIDJSBQE54JZWipqmE5vhaW9eq83+4LlbVTdOL8yupuPk4TKR7K50rgdSZjDG7o5rdUt8RfvVuzZp0Mq3pk03oRS66BmXBwdU7ocPY6XmiRzpWg9DTsPeBfvXnNoyU67S5afMonrIqerkD5JXt2Okc4dhcSF6GCtFJ9C9GzDqJ9TLFTxC75Xao6ukuPUBc9yipUjTg5y3IN2Vy2sZqo8Jw8MiNnMYIYL7XPI84/NxXnaMJYrEXl1u+390KEs0in73zJuTmTv616U2BBQCgFSBRAmy5ZWVjiHpp/ev+4rfhwrsiTQCsgZBAKAUB1tGMcfh9SypYC5o5ksYPpGEi47cgR1hU4igq1Nwfy7hq6LZ0vwOPF6Rk1M5rpWt4yml6Hg5mMncfkbLh4WvLDVXGe7mVReVlLSMcxzmPaWuYS17CLFpBsQRvXok01dFxbHBDU61JPF7OYm3U5oP1BXD2rG1RS6oqqbyuNI6XiaysitbVmfYdRdrD5ELr4eeelF+RYnoc9XEigFCRBQCEBkpB9mE4jJSTRVMR50br26HjpYeojJV1aUasHCXMhq6sW5S4hh+NQiN4Y93nGBxAkiOzWb0/7BeelTr4Sd19eTKbOLNVLoHh0LuNc10gbmGyPuwdo6e9ZS2jXmrJ27DPI5OnGmMQifRUThI54LJZWnmxt2FjSNpOzLYtjA4GWZVKi7LqZQhzZW4K7ZaWtoDo5yOJ1XUgNmkbcA5cQzbY32E7T3Befx+K8WXhw3L1ZTOV9EQvTTH+XVBLD5CG7IR0Ozzk77eAC6mCw3g09d73/gshGyOAtwyMghIgoBQCpQJrdcsqKyxD00/vX/eVvw4V2RkaFkBBQGQQCgFATXg80v5E/ktS48lldzX/AP13Hp/gendt3rn47CeKs8eJev7MZRvqSvT3QwVo5ZRgcoDbuYDlUttlY7Ne2w9PStLBY3wn4dTd7fowjK2jI/wS1ZirKileC0yxE6pFiHxuzaR0GzneC2tpwUqSmuT9GZTWlz5eFWhMVeJQObURNff9zSWuHgG+Ks2bPNRt0ZMHoQ9dAzFAKAUJEFAIQGSkHSwDBp66V0VNqh7GGTWc4tAAIFrgGxJKor14UY5p7txDaS1HGqarpn8nq3P1tUO1DIXggkgHbbaD4JRlSqLPC30Cs9UTKPQemfhxqKdz553wiaJ5OqMhrcWGDLPMZ3zXOe0KixGSasr2f5uV53mszboJoaWllbWtsfOgpztbukeN+4LHHY696dN939kJz5I08IOlgfrUFK67NlRKD53/AEmndvPdvWez8Hb/ACzXZff8EwhzZAQuuWCgFAZBCRBQCpQJquWVFZYh6af3r/vK3ocK7IyNCzAoBBQGQQCgFATfQXTl1Fq0tXd9LkGPAu6n/LOraOjcudjMCqvxw4vf9mMo31LFnwWmqpqbE6dwbKwhwnZYtnZbVLH78jt2i3cuUq86cZUpLTo+RXdrQ4/CvhvG0bahou6leHH+DiGu8Lg9y2NmVctXL1Jg9SoF3y4UAoBQChIhAIQFrcFOGcXTyVbhY1DrMP7GEj5u1lwtqVc1RQXL3ZTUetiF4w6bFa+d1Kx02s7UjtsDG5BxJyaMic966dHLhqCU3b8litFaloaJYVJQUjYaiVri0ueehsQOZbc7QDfNcLF1lWq5or9lMndkR0z054zWpaB1mebLUjLX3tj3D93hvXRwez8vx1d/JfkshDmyAjLYuuWCEAoBQCgMghIqUCbLllRWOIemn96/7yt6HCuyMjQsgKkCgEFAZBAKAUB29G9KKrDnXgdrRnz6dxJY7rH6T1j5rXr4anWXxb+vMhxTLUwTTKgxJhgl1YnygsfSykWkuM2tJyePn1Li1cHWoPNHVLmitxaORjfBjDJd9DKYCc+JeC9h6gb3b81fR2pJaVFfzJVTqQrE9DsQpr69M+Ro9eIcaO2zcx3hdKnjKNTdK3fQzUkzhvaWmzwWHcQWnwK2U77jIAVIG6AyYCTZo1juGZ+SPQHcwjRWtqnMDaeSONxAdM9pja0E5uGtYusNy1quLpU07yV+i1Icki64qBjIG0rLtjbHxQ1TqkC1siNhXm3Ubnne+9yi+tzhVmM4bhEfExiNjgLimiALz1u3dritmFDEYqWZ37v++xlaUiutJdLqmvu0niIOiBpPO/mfW+i7OGwVOjrvfX8FsYJEfW4ZGQQCgEFAKAUAoBUoknC5ZUVhiHpp/ev+8rehwrsiTQsiRQCpAoBBQGQQCgFAKEnfwbTGvo7NjnMkY/wyDjG9gJ5w7itarg6NXeteqMXFMmeHcKseQqqV7T0vicHD4XEH5lc+eyn/AAl9TB0ztx6Z4RUjykjBfa2WIj6iy1ngsTDcvoyMskNsBlztQOv02jCf+5H/AHeo+I8I8BjztQDr8mUvjJf7vUfELtK8Hph5OWIW6Io7/aE/0mKnvT+YyyZya/hRgFxTU8sh6HPLY2+AJP0WxDZU/wCcku2pKpkSxfTevqrt43iIz/jiGrftd5x8Qt+lgaNPW135magkR6/TvzJ3rcMxUgUAoBBQCgEFAZIDyAVKJJxdcoqKvxD00/vX/eVvw4V2RJpWQFCRQCpAoBBQGQQCgFAIQkQpBkCgPIBCAyQCgFCRBQCEBkpAoDyAyCAUAgoBQCpRJOLrlFRV+Iemn96/7yt+HCuyJNIWQFAKEigFSBQCCgMggFAKAQhIhSDIIBQCgFAKAUJEFAIQGSkCgPIDIFAKAQgFSiScLlFRV+IHy0/vX/eVvw4V2RJpWQEIBQChIoBUgUAgoDIIBQCgEISIUgyBQCgFAKAUAoSIQCEBkpAoBQCEAoBuiJJyuWVFW4ifLT+9f95W/BfCuyJNAcsrMGWsN6mwEOCWA3SxIgpYDdAIKWA3SwMgUsBBSwG6WA3SxIgqQZApYCClgN0sBulgN0sBBSwEFLEmV1NgIKAbpYDdLAbpYGQKWJG6lIE6XLKj4av0kn83fcVXHcjE1KQeQCgEIBQkUB5SQeQChJkoB5AeQHlJBmhJ5AeQHkB5AZhCTyA8gFAIUgQgPIDyAyCkEgWkYH//2Q==;" vertex="1" parent="1">
          <mxGeometry x="280" y="-1554" width="90" height="90" as="geometry" />
        </mxCell>
        <mxCell id="c5LJ0pvMlqKAeBtO2L46-4" value="" style="shape=image;imageAspect=0;aspect=fixed;verticalLabelPosition=bottom;verticalAlign=top;image=data:image/png,iVBORw0KGgoAAAANSUhEUgAAAOEAAADhCAMAAAAJbSJIAAAAmVBMVEV3RtT///94R9RzP9OniuJ2RNR0QdNzQNNwOtJyPdP7+f5vONL9/P9tNdFpLNGskuTz7/trMdH59v2LYtrs5fm9purm4Pa+qerIt+2EWdjRwvCihOG/rOry7vvb0PONaNqWct5kIs98Tdbl3PfLve2AU9e1nOfg1faggeCNZdvZzfKbed/WyfKYed3Ds+rJuu2rj+S1nudiHM/buK47AAAXMUlEQVR4nO1dC3eqPBZFMAFEFBSrKCjFUp+1df7/jxsgBxLeAbV37HhW151vlEg2Odk5rwSh99dF+NcdeLiECOf9vyvzGGFfk/6qaH2CUBL+jojJv/GflEOY/fZf/InJv5V/YvIvl8h/cAyzkh/DvyfNCP+93jZrb53evrT0eSXRvXKE/14z78eoLy19fuFF+O/1tiujvrT02aWKS5Nv4d//SZ3kZdSXlj6/tEP47/W2PaO+tPT55Rm8p9sY9aWlzy9dEP57vW3DqC8tfX55Hu+pK6O+tPT5pTvCf6+3fIz6GsNHCFbUX7zb7d4Twhi10ivT+/4ctWuCMBK6MurNXIrtr4OP+K9H+Nzr9c6tmqDDyW7fM5BbtVTtb3uuI3D3FwnzYZRZXyB+iOLV6m1/umr2jQixGPV3ODN5tU6fxQDDJjq3Vs/iBj7uxqi3IUSSS4odZnyjiOR9Wh+xl/maoBm5vpViM3ITQiTOB+T2wznmub/8M0wRDn9kjhbYXyRNFmIniDd5T+qK9vf8H1lo0jdtTwGGTfZao4qq/pk2WKk8q/w9vSccsFU5k1PDMCIxeSAWAF01jArCpwl7iwB36OUNWoqDXXxfY0vub8zEuh5gPIeOfkvJf81rpy8WZwb8NPnfXReI3REif0luP95Y0OGdbaIKUkWKf4aR24lY2YGizt5VVLXKa/YuGfPTmPzHMmSbtozaHaH5Te7qSOo06Upv54tl6xZS/XEyBT/CkUbiMpmMY1stG0csT51B8qNTRXJg+M3W/eyMUD3BYw2QgNEy6f/uvDLz8xHJeL9OLphL0bc4gC73Bm8bWyn0ypw6iWIMlyh8JDY8klPrhb8rQtUmPTAEHNuN4+SB9yZrT9MUGaNIMMaqHnjrhDAGjkTUGEmfSQtjN37XVWiAkKzqen/rJj83GONIM7FApqI1lbj8ppu9J+zBI96QhkjzXGYlWDirzdQOZbM5zdb0862tJeOLFHtLv1jPvrzoenu6WX0yDQauBy2kDfl969CSbToifCcAh/PU0JDk8bHHiPu2C8VwmY+G6yl7G2n6YbDfbqMGb2yDnvUppS3kT3hKo99AqMPdWGMNqeLS6tXIbu/jLFuq/WFdg4EzTZymiI1FMN8+daGGTgva2wkh7pM5dBxlOAXp07UxKO/txJqNpAJpqu8zt/z6cHpesZb9+RGh7EG/lfXWBaHaJ9o1KUwJbHrj9Vuxt8P1XioQZixKMNsaxQaTj9lUywPBHnkck1aE2gEh+s+QPsvURoU/rAbT6yI3fD9eoFYpVcg4m/E5O/K7vodLLAFBWpHrJqwn1cSo7RESJz0E6Gnl3yNVG4l2f+UsLpfF9RCMTLXWYkU4bOCn19viSJcq+FLzyCNo40m1Rpg46cNxOUC4CkmSEkk9OKYBvb6ugQ6GTosQQWuEiZO+rnqMeb0tKhvGVbZo45/gk8WSI0SQaG9bhAo46dtpF08mEoQ2pyKLcLfGYAPvy5mrKC0RygfGeErvqqpVE6coanAxhtYs4O1gaNUqrKbjKZiLvLZNO4RYICwz2TN8jdTxuH/Qq/ymzF+4nJAxcK9m1MPGJkgT944nM06T+kWM3LOISnTyRi5FIqjITGdQxx9ay8BvirsgST2lflbv8tXMQokPtWOCAQiBW7LjU/VWCE1Y6JY2c8PEr9nNPbNotVBBKl5lDFHjwyv6TZkG1If6YAJzSP4gH/KFadsgVEA/dmy0Qp8lPR4Yx5Wgq4THM4wa+kSS7o/XmaBLhNG9visSYozPVDmxlPGheg5mjARQpUHENo2M2gKhCh6TZTMA1X2224vrNJCUyNcjzzt0EWVFtDf7Jb1mwhjog++fg+2H7iROG4TKLAVef5f53UmfGW4Mjtdgz2G+8SNMSGywYn5WmhbcCWv3vfCmgW/qum4Gge/tnSUzGJGNas+sTIOzs/c2gRI1QEEw7X9+F4a7N8g8V498b3GsWdwIkZ+wDHMp3oAXe852x3Ut6y0Sy7KMbGeHY19FyvQz6zdNDDdt4E6y38HTiNkmUT95lnwoVPtNLblUWpGezszih8PZu13pN2WAWCS4FrLI+9UtjFOJGFfpHayoGTteJkC8NuopN0KF8OjgRyt+eA6ZIfSbjqV9ZHqb8aGUoH8u8ZuyD8QJrR8kkzm8ZBFqP2CgNloO3AjVK7nrwFMKH1qRL45VfzXflvaU4OtvApW1CpDqb5x1dYP15+kQLxJ+/Ogme5m2VTwCcLCSm+iUn2lMiFxMPGZpEggkJx5YJCmmsFpbrpGdSIa1XuxRiQ+FsKKj/TVskLl+OLGsxY+dNFD78afbDR3DJMhAIhr10mK1MB3S8W1Aewp3H6SdDxc+7eB9Xi7L5XJ7XC6/L5fZly9olak0JKvm5jS7XL6Xy+M2bHW5fK58RaHGw4hQjUdnHArIgx06HAHiFggRBnPpSKNdSCOP/0pnZ5TZVxVFFEU7EEWZuHwNxmfUAItiYAtiCE6VWRtAJl7vTqLXm5D3YM2ASkZtY9MgEbhkRi1QCJcZhYUJ4rscP1vfAslkLfXoPRWghPPo3lZbqIIWTMX0dgi8jRm3N9RSVJLwOFPbG/sEs8WXRG7nPUlguC3oLFHJkvhRc7uMjco67E0XRJ8HMdtOVhL9hCweVviYOfy1th6wAmZon077UTzrJ6euPn+94E18wyOlFCC3Ca+T3xIhQsRzseh8gTt+PqbOSSVr1Ir2D6j1g3eKt43TIJQnT6THH6yzxF2jeKyWNurYiKxQQsrGQK29xkKsrpGoZMhc6gTrxCT3HqGm+EDmfbqwA7UO+ZmtfbyU+GaDcaqV8j42MBZ18dOuopBEM7WvE2rlDMMKXaL60nWYJU+8iRV32xCHLqpl4wWiMIqTIJHdm6XWvVSvot25VIjW/Rx5IvyR09u7CfaMLKsAtbI2apN0yMwUyFOZkSWLp8apnchkcaKTDpyZVQv7okvuSXOz5KmSJL5TvG09YTZeICqxJWycUvtT3+aotemvW4YUyDPVSuTHS9SyW91ZneCYaNxUJxE58KkVqXVBKBE1TSs+kRBP/2Nwb4SI1AxZqbbAnZtDF4x0QYhJpIs+SS0OZrg8mQRWLRsvQAeLAEq0TondpomH+VS0I5dGDmg8ZlY676RVcuP7CjxK2jklRrxupSydKhWkeHpY6Y0wsaS+7k2m8lcvgxAdYo77btfZLgiVS44A7FqEVYTZeAEmCA9J1h6Wx0tzMP9GLYXlwTgliADh3d0LcCxsqitGxbJUIzcgpKYpEh+KMF2F5NjbZkxiHumEUD4Z2TuNWiKsItLcBYBwlKhcojvlAah7ainRlgLC5b29C20JCEEAYTvOvifCdvODQ4jRlkfY0gDutlr0Jzxais1RQVIFU4rfhZJVsHItHYz5XafOXBrnxiY/6TqllSEETycre3j+4NrmZZS7T/xhmq8nCIftGO2G9ZDOh/LVAnsltZXJmkl+gg9hfrW4PHy1gICbld4Z9vqssj8CFkkFwkXJl3mE8goQgsqhILbaPoRHaymEat4YB5H0PstxBOEgI+k1IYlkvpiUIcSkWp7OdzO+8bHVDqhuvgXZYJcqixbnM96m2RsTV+f7Z8xKMu54k/n4h6R0c/qHN272UzLyw1Zk2gUhkDhtQ+JFu1yghsyivaayQr4S41IxVZXgTydaEeXtMt7TlHxsJioHJv64slr1Tlo6ip/s4D35/2m8qAwhj8MBdSxHnFvKYcLTGBciO63cNoV/HRBiwpzfqQVTiBcRIUPNgRDqWLbFGGghxqUTK6ffYr3ogNAkuXe6bVWDeFEOixYNAIdbjGUSqygJETAxLqJywNrb0SO1FNJplNCAWt18DFOLFnWjMbIJKevttGRcIMZFI0CIDPdkxT+I7aP6YpwSZUw2iHkf8zl1fV1CsEUx47U/U7BKb0ZiXEOqCDJhuTN/XK81QqAzRvuAWgtem2mVECwRxnsiJR6Wp5ZckGaaflLyxFOS++JMj3bRUpMES5n8JMzL98KVb5UIqZDNlqUqGgmQp0HJUyNR713pnr7SO7REKBEiZWgBqHVdqGwxJ/F0laMi/KoyaS3enFKuorEUyBPhQTs6bYkQH0hYfUad3QK1JhK7VN/Boe8sFuP+dKQUQWpxadPbRpOrqjYkIE8ztQRgUmwFzoL/tghJFR1jGQK1lsQwidNIxdkUSohJcdpx/LWfBmrpKAN5urSaBT4Zzjg9/ZaV7MTlG1JWAWqNi3dykkfYMz6yZcuIKU59W4+9Ur0D8nToYotJ5eaEM8PWDiFZ23suLS1JqDW/3JchzNtlsMyADCaenhvjSDOBPGmSVEQIHirfuROtEGKZ9MWjVwO1rksKzMxBUkf7ZiW1pGxNXA5h1Oey2Qjk6VAmwyR4yZZJ1Uirqi8oy58zNyNE2rNLNAafoBZaN/FmD3vV2TgAOixDWSyOO9jQNxyXeO9AnmwVNBDsmiuZ3wahRJ65xUwAINJdaY1gWs8eleYJxF8fsj6uH4iiqKqBnRRFD8t8W5gasZoQRoWMDV82v01tYlBYKYBIdxxON4KCwowlTir1wn/Ud/LtuaQfiS3ap3QKm0oqd5ex0mY3wjj2C106lWAr4sDhuRM8oGN5zSt8a5X9EtDplppHKCBVNXuOmdgCoQ61LUypNtmK6JbNwiIGco5CKQYhKWKZrIodSW3RPnXtoQAznB131FKEyVSh9icSoPSTz4DSiBNRkd4kZf/lsVCNRBUNZjV5HxZ1vlz4EcIQMl2ATyzODfKkUqQKIbiC5bFQ2P4/ZxiAgK7QeVa4EWKSf7Wov4enbqI8XEIMyiqEhbgaKzLZcZXYbmJKpxb833toKWxwYohUIoWYS87oJSLHBVXNw0LGLtNWXuTIEyESWLzfjhKwP5nMFlgkE4/TaEfkwJ4qvaovrJJJOI8hT/ikOafPjZD0j6mchYV4VjWEeQtMI24JDFK+ZB0Jx9zvZ0UltuiO2qKalcya+2gpKSjprRhPFKi1aku3bbObLLAcsFSMAhux7pKsEft2XpV0gUR6jxpqZNDzyZKSnnMiBL+TumlFas32yHe2zso2I+8+tNn0ZDcoXI9P6+XYG2nRtwgrqkfmWc1uO7BFaZQWSbUdaI0Qyp7ShaFIrTmE0byduNvLuO/Zh+sFNiAmvkUUJh8Yb8foW9tzluBk9KvzZgl50iCb6eb09jYtHeWeoESo1alK3dOToFjZTeWkvyXb1gZOzZYGhONnzJAtKSB0mzYGcSJEKO4DzdSTpaI6pZ74/qwM16kDDCOSEWtfu3MZyNOh8ZNcLcptCCGavk/z2lDaVuOhHZzc0TO7vc+Yzl7uPJPeclOf2gVreykk5JnPn96mpVD2mFY+w2JYSX1Rj5TRdBXtkjUmE8PdLrJ72RHWRt4y+tYYGIZ1XPh6k4lJ7FqaJoD8KU/XeRDGz4umJiBJ2tAMS2Y4WF4/pBNfKwLAWvSt9+N5oq40G0bErqURfrDzmqwaToRQjpwihBx9c7grOtBMkqqOZImPO5Mw39YC2HuRputAj+JU9O1aStLLNEQPgdq7VwXXCVR8UC4gFcRNlRm8CC9ZhMBjhVzFIwX4PF3i74xwUYrwd8fQTxCSeBQgXCj34dJV6Tx8yF6nyj70s/MQMrNNhiknQhLaLnAph4t9P9EXpVx6p9UCZjndCUSeX6Wz8wCBkAKNuMF6uIGTfITbtBQylXSWo9i14E4A3UFUElKgNS3qjIsL2lneH7TChFiJRvvzRDsKHPTHpL004r81xcF4EZpGbnkAp3uCfgeiikj4kEl7vceGrdsUMuVFCMV5lDwTp3vY/w1FleCUTCbtBdTaWJjMi1Be5clTg+PvjP7o0RjRaA7uJHMORp5aq4Q7EkUOGLGoC4fg+LveZD3VH8mpSJMSX5NJPybUygYZShmVG6FAyPNKL0yPv4uOMis9Avoewh4KzaaQIVpbGWSgF/JGhIE8mQRQ+BjTE56jI6DrjjLrKOyBZr0BmxFNorXNpab850QFEMNnHhr2mSOgmaPM7iLFA83YyGxSUQAf3SX3pMJWfzbTFB0BzQQj4qPMeM/zrEenyih7oJmRqWOAioIeR8C9zQk8JHq2yxgRUnpGPpmRu+9Pzzb5D4osCkKKFGw+P5ZsrMpyMnVhKDn9gyPt1QJhEh9zMhMO+V727LihYVmr6UhTpNaDGSqmqmv2bOm6mY0MA2cqZ5LjcAi9VbpU5Bi1TR4/OZLxM7PIImyWHWW2cPYHv43GIkn1D5njyhP9zB8KLSjJYds8rk2rahN43cPAzl0dHwFdEgA9fns2R4gp/m1NWn0fi+eBlx0KLdnkebpcDniriqGEbLaFMyuxGmyuJUeZGe7VbzgoOT7yyxSXVskeovXnSS4U/KXH1TOnJt7uPYFo8JaRQT9foBXRX3yUmVHoqHX1/HwVPttQsg9OYfAGhnv50fWSE9B0OMlsyKWjbREikVRf9CbXsnFBkh5y/OW8y6M8rg6FRwJNVPG6zQXHJ9bye+wFWlmRLMJX8uPD+vebdEUY/mhyXOmHWGrDhHSoiXYIM9vrifuNteJ4xGt6dv+Xe+l7B0Et12wkwRlHze9fSvW29RlD5ix5mUqoexXXhDAVE30ts2fpORs7u86o/j6z0IRjN5NMpTJ+LGAxqfWL3qHF2ePOJ5aHMrfrzG0k67b3sWNGyNhumBbsi0si2S5WUqlipj+oTdMNb7wqKnQ6nyZV1IHrjWoLyhHGdibHZCz7ZmwqI8n02PVl4JxstdZ0Rxq+pipR8Rqlm7wn9l6KnGY/rb5fXr1MQerCidXWy1eohVn9NKxZySTNCOtDhXYj5yIbS7edzgFN8B7HnllvhYb04F3ocmB8TFVWPycLT6vvccaHCudzu7c+dXtHCQ766R0HxtoeKZXF9nEXZYE9Vtd9o/o5nJ9wnYsXmaoa60MNHO6dFkJXLY1vrBz2zPxyna8pqjNdUHysbi8n0aG7Sl2r0KDZrMZMu6KN2iid3/eEtVUmU299jD1RV2tqDZQgcwR0zYtLIgmdKF38mn2wNv1g3uGVA93f2SWoYtZvGhjWcbxH1QtaSPeMrsaHQpdeFi+nYhAa4tmCjd1G5pmB3b2nYldK/abIKLHFCpsk1dUJHApduEKShUPBJIp+dj5tYLQKuQWhUOU3TXbnzw0u2QUUiuIvrYg/S+klXPRW1xIvI/ahOsYNbkRI/Kbc8eOxDrrW9TQqW+VwMN17qAgwnHgj8fs4Kf7W1inxobjlZoSx3/TeDx2EEhf4wxOLBgFCchF4tKA4hUBBVDe28Mw6vm2UOyCMf0Y17ZVz3hUG4Lyv8ptYQZpwLbzwy90u49q/G3MGd0IoxIuXb3s/HzlPn/hNtQ0lDX9buWdjLT83tqjwHRVcJp29p1pB0aubTP20t7JU6Gyqw4uhjbrKnAIyCWewrZlaw3uRuOWuCIlEMKezM/tystAWrdDVgg917k9DM/WOCYIHIIwEKf40Yw+U66qc86HmP+FKeuf0x4MQxhqroxM7vQq6iqVT3oe6Z+ID5GEIIwkNFPZVeqGuMmYlUtg3PDb7UF3loQgjHglYW9S6+okjj7U+szwsvVofqrPcm0vLJOc37bw4R4ZlZv+ocRb1OySsKuThCCPJ+E1zSRJUxn4J9fPe5JKRX0EY+00JpCh+xdSxP0o/U/kdhFEw/pS8tbo3SV3nwUP1k8hvIQzvJBRetbNePYY+s/f9NYSRfZYJYwwc/zfqqX4RYTwdqQmzszu/5rGV/CrCcJUY9QlEYyb+UlnjLyMMxzG21HanRxNMKr+OUJBH/dnJfOwKwcrvI4wCAr9dHv7bCH9XXgifX14In19eCJ9fXgifX14In19eCJ9fXgifX14In19eCJ9fXgifX14In19eCJ9fXgifX14In1/+fxBq0l8VjSCc9/+uzGOEf1z+PsL/As7HnAyC2PfJAAAAAElFTkSuQmCC;" vertex="1" parent="1">
          <mxGeometry x="280" y="-1191.25" width="90" height="90" as="geometry" />
        </mxCell>
      </root>
    </mxGraphModel>
  </diagram>
</mxfile>
